<?xml version="1.0" encoding="utf-8" standalone="no"?>
<!DOCTYPE svg PUBLIC "-//W3C//DTD SVG 1.1//EN"
  "http://www.w3.org/Graphics/SVG/1.1/DTD/svg11.dtd">
<svg height="345.6pt" version="1.1" viewBox="0 0 460.8 345.6" width="460.8pt" xmlns="http://www.w3.org/2000/svg" xmlns:xlink="http://www.w3.org/1999/xlink">
 <metadata>
  <rdf:RDF xmlns:cc="http://creativecommons.org/ns#" xmlns:dc="http://purl.org/dc/elements/1.1/" xmlns:rdf="http://www.w3.org/1999/02/22-rdf-syntax-ns#">
   <cc:Work>
    <dc:type rdf:resource="http://purl.org/dc/dcmitype/StillImage"/>
    <dc:date>2023-01-14T08:43:12.363229</dc:date>
    <dc:format>image/svg+xml</dc:format>
    <dc:creator>
     <cc:Agent>
      <dc:title>Matplotlib v3.4.3, https://matplotlib.org/</dc:title>
     </cc:Agent>
    </dc:creator>
   </cc:Work>
  </rdf:RDF>
 </metadata>
 <defs>
  <style type="text/css">*{stroke-linecap:butt;stroke-linejoin:round;}</style>
 </defs>
 <g id="figure_1">
  <g id="patch_1">
   <path d="M 0 345.6 
L 460.8 345.6 
L 460.8 0 
L 0 0 
z
" style="fill:#ffffff;"/>
  </g>
  <g id="axes_1">
   <g id="LineCollection_1">
    <path clip-path="url(#p773bb56759)" d="M 178.119346 141.122592 
L 189.226188 29.990083 
" style="fill:none;stroke:#000000;"/>
    <path clip-path="url(#p773bb56759)" d="M 178.119346 141.122592 
L 39.986777 204.345926 
" style="fill:none;stroke:#000000;"/>
    <path clip-path="url(#p773bb56759)" d="M 178.119346 141.122592 
L 402.764376 175.670045 
" style="fill:none;stroke:#000000;"/>
    <path clip-path="url(#p773bb56759)" d="M 189.226188 29.990083 
L 59.807797 68.749901 
" style="fill:none;stroke:#000000;"/>
    <path clip-path="url(#p773bb56759)" d="M 189.226188 29.990083 
L 387.68481 104.027985 
" style="fill:none;stroke:#000000;"/>
    <path clip-path="url(#p773bb56759)" d="M 420.813223 315.609917 
L 377.748258 251.947256 
" style="fill:none;stroke:#000000;"/>
    <path clip-path="url(#p773bb56759)" d="M 420.813223 315.609917 
L 208.876185 312.580812 
" style="fill:none;stroke:#000000;"/>
    <path clip-path="url(#p773bb56759)" d="M 420.813223 315.609917 
L 402.764376 175.670045 
" style="fill:none;stroke:#000000;"/>
    <path clip-path="url(#p773bb56759)" d="M 377.748258 251.947256 
L 208.876185 312.580812 
" style="fill:none;stroke:#000000;"/>
    <path clip-path="url(#p773bb56759)" d="M 377.748258 251.947256 
L 387.68481 104.027985 
" style="fill:none;stroke:#000000;"/>
    <path clip-path="url(#p773bb56759)" d="M 208.876185 312.580812 
L 39.986777 204.345926 
" style="fill:none;stroke:#000000;"/>
    <path clip-path="url(#p773bb56759)" d="M 320.586608 47.736087 
L 387.68481 104.027985 
" style="fill:none;stroke:#000000;"/>
    <path clip-path="url(#p773bb56759)" d="M 320.586608 47.736087 
L 402.764376 175.670045 
" style="fill:none;stroke:#000000;"/>
    <path clip-path="url(#p773bb56759)" d="M 320.586608 47.736087 
L 59.807797 68.749901 
" style="fill:none;stroke:#000000;"/>
    <path clip-path="url(#p773bb56759)" d="M 59.807797 68.749901 
L 39.986777 204.345926 
" style="fill:none;stroke:#000000;"/>
   </g>
   <g id="PathCollection_1">
    <defs>
     <path d="M 0 8.660254 
C 2.296726 8.660254 4.499694 7.747755 6.123724 6.123724 
C 7.747755 4.499694 8.660254 2.296726 8.660254 0 
C 8.660254 -2.296726 7.747755 -4.499694 6.123724 -6.123724 
C 4.499694 -7.747755 2.296726 -8.660254 0 -8.660254 
C -2.296726 -8.660254 -4.499694 -7.747755 -6.123724 -6.123724 
C -7.747755 -4.499694 -8.660254 -2.296726 -8.660254 0 
C -8.660254 2.296726 -7.747755 4.499694 -6.123724 6.123724 
C -4.499694 7.747755 -2.296726 8.660254 0 8.660254 
z
" id="mcdfa02af5a" style="stroke:#1f78b4;"/>
    </defs>
    <g clip-path="url(#p773bb56759)">
     <use style="fill:#1f78b4;stroke:#1f78b4;" x="178.119346" xlink:href="#mcdfa02af5a" y="141.122592"/>
     <use style="fill:#1f78b4;stroke:#1f78b4;" x="189.226188" xlink:href="#mcdfa02af5a" y="29.990083"/>
     <use style="fill:#1f78b4;stroke:#1f78b4;" x="420.813223" xlink:href="#mcdfa02af5a" y="315.609917"/>
     <use style="fill:#1f78b4;stroke:#1f78b4;" x="377.748258" xlink:href="#mcdfa02af5a" y="251.947256"/>
     <use style="fill:#1f78b4;stroke:#1f78b4;" x="208.876185" xlink:href="#mcdfa02af5a" y="312.580812"/>
     <use style="fill:#1f78b4;stroke:#1f78b4;" x="320.586608" xlink:href="#mcdfa02af5a" y="47.736087"/>
     <use style="fill:#1f78b4;stroke:#1f78b4;" x="387.68481" xlink:href="#mcdfa02af5a" y="104.027985"/>
     <use style="fill:#1f78b4;stroke:#1f78b4;" x="402.764376" xlink:href="#mcdfa02af5a" y="175.670045"/>
     <use style="fill:#1f78b4;stroke:#1f78b4;" x="59.807797" xlink:href="#mcdfa02af5a" y="68.749901"/>
     <use style="fill:#1f78b4;stroke:#1f78b4;" x="39.986777" xlink:href="#mcdfa02af5a" y="204.345926"/>
    </g>
   </g>
  </g>
 </g>
 <defs>
  <clipPath id="p773bb56759">
   <rect height="345.6" width="460.8" x="0" y="0"/>
  </clipPath>
 </defs>
</svg>
