<?xml version="1.0" encoding="utf-8" standalone="no"?>
<!DOCTYPE svg PUBLIC "-//W3C//DTD SVG 1.1//EN"
  "http://www.w3.org/Graphics/SVG/1.1/DTD/svg11.dtd">
<svg height="345.6pt" version="1.1" viewBox="0 0 460.8 345.6" width="460.8pt" xmlns="http://www.w3.org/2000/svg" xmlns:xlink="http://www.w3.org/1999/xlink">
 <metadata>
  <rdf:RDF xmlns:cc="http://creativecommons.org/ns#" xmlns:dc="http://purl.org/dc/elements/1.1/" xmlns:rdf="http://www.w3.org/1999/02/22-rdf-syntax-ns#">
   <cc:Work>
    <dc:type rdf:resource="http://purl.org/dc/dcmitype/StillImage"/>
    <dc:date>2023-01-14T08:42:25.840474</dc:date>
    <dc:format>image/svg+xml</dc:format>
    <dc:creator>
     <cc:Agent>
      <dc:title>Matplotlib v3.4.3, https://matplotlib.org/</dc:title>
     </cc:Agent>
    </dc:creator>
   </cc:Work>
  </rdf:RDF>
 </metadata>
 <defs>
  <style type="text/css">*{stroke-linecap:butt;stroke-linejoin:round;}</style>
 </defs>
 <g id="figure_1">
  <g id="patch_1">
   <path d="M 0 345.6 
L 460.8 345.6 
L 460.8 0 
L 0 0 
z
" style="fill:#ffffff;"/>
  </g>
  <g id="axes_1">
   <g id="LineCollection_1">
    <path clip-path="url(#pbf0b54ba22)" d="M 124.685885 198.537535 
L 39.986777 99.504131 
" style="fill:none;stroke:#000000;"/>
    <path clip-path="url(#pbf0b54ba22)" d="M 124.685885 198.537535 
L 245.628949 107.401383 
" style="fill:none;stroke:#000000;"/>
    <path clip-path="url(#pbf0b54ba22)" d="M 124.685885 198.537535 
L 218.53396 305.363878 
" style="fill:none;stroke:#000000;"/>
    <path clip-path="url(#pbf0b54ba22)" d="M 39.986777 99.504131 
L 127.631247 29.990083 
" style="fill:none;stroke:#000000;"/>
    <path clip-path="url(#pbf0b54ba22)" d="M 39.986777 99.504131 
L 142.455417 116.899044 
" style="fill:none;stroke:#000000;"/>
    <path clip-path="url(#pbf0b54ba22)" d="M 245.628949 107.401383 
L 127.631247 29.990083 
" style="fill:none;stroke:#000000;"/>
    <path clip-path="url(#pbf0b54ba22)" d="M 245.628949 107.401383 
L 384.855226 188.494074 
" style="fill:none;stroke:#000000;"/>
    <path clip-path="url(#pbf0b54ba22)" d="M 267.217171 223.289355 
L 420.813223 260.987012 
" style="fill:none;stroke:#000000;"/>
    <path clip-path="url(#pbf0b54ba22)" d="M 267.217171 223.289355 
L 142.455417 116.899044 
" style="fill:none;stroke:#000000;"/>
    <path clip-path="url(#pbf0b54ba22)" d="M 267.217171 223.289355 
L 218.53396 305.363878 
" style="fill:none;stroke:#000000;"/>
    <path clip-path="url(#pbf0b54ba22)" d="M 420.813223 260.987012 
L 362.109262 315.609917 
" style="fill:none;stroke:#000000;"/>
    <path clip-path="url(#pbf0b54ba22)" d="M 420.813223 260.987012 
L 384.855226 188.494074 
" style="fill:none;stroke:#000000;"/>
    <path clip-path="url(#pbf0b54ba22)" d="M 127.631247 29.990083 
L 142.455417 116.899044 
" style="fill:none;stroke:#000000;"/>
    <path clip-path="url(#pbf0b54ba22)" d="M 362.109262 315.609917 
L 218.53396 305.363878 
" style="fill:none;stroke:#000000;"/>
    <path clip-path="url(#pbf0b54ba22)" d="M 362.109262 315.609917 
L 384.855226 188.494074 
" style="fill:none;stroke:#000000;"/>
   </g>
   <g id="PathCollection_1">
    <defs>
     <path d="M 0 8.660254 
C 2.296726 8.660254 4.499694 7.747755 6.123724 6.123724 
C 7.747755 4.499694 8.660254 2.296726 8.660254 0 
C 8.660254 -2.296726 7.747755 -4.499694 6.123724 -6.123724 
C 4.499694 -7.747755 2.296726 -8.660254 0 -8.660254 
C -2.296726 -8.660254 -4.499694 -7.747755 -6.123724 -6.123724 
C -7.747755 -4.499694 -8.660254 -2.296726 -8.660254 0 
C -8.660254 2.296726 -7.747755 4.499694 -6.123724 6.123724 
C -4.499694 7.747755 -2.296726 8.660254 0 8.660254 
z
" id="m6a8320e028" style="stroke:#1f78b4;"/>
    </defs>
    <g clip-path="url(#pbf0b54ba22)">
     <use style="fill:#1f78b4;stroke:#1f78b4;" x="124.685885" xlink:href="#m6a8320e028" y="198.537535"/>
     <use style="fill:#1f78b4;stroke:#1f78b4;" x="39.986777" xlink:href="#m6a8320e028" y="99.504131"/>
     <use style="fill:#1f78b4;stroke:#1f78b4;" x="245.628949" xlink:href="#m6a8320e028" y="107.401383"/>
     <use style="fill:#1f78b4;stroke:#1f78b4;" x="267.217171" xlink:href="#m6a8320e028" y="223.289355"/>
     <use style="fill:#1f78b4;stroke:#1f78b4;" x="420.813223" xlink:href="#m6a8320e028" y="260.987012"/>
     <use style="fill:#1f78b4;stroke:#1f78b4;" x="127.631247" xlink:href="#m6a8320e028" y="29.990083"/>
     <use style="fill:#1f78b4;stroke:#1f78b4;" x="142.455417" xlink:href="#m6a8320e028" y="116.899044"/>
     <use style="fill:#1f78b4;stroke:#1f78b4;" x="362.109262" xlink:href="#m6a8320e028" y="315.609917"/>
     <use style="fill:#1f78b4;stroke:#1f78b4;" x="384.855226" xlink:href="#m6a8320e028" y="188.494074"/>
     <use style="fill:#1f78b4;stroke:#1f78b4;" x="218.53396" xlink:href="#m6a8320e028" y="305.363878"/>
    </g>
   </g>
  </g>
 </g>
 <defs>
  <clipPath id="pbf0b54ba22">
   <rect height="345.6" width="460.8" x="0" y="0"/>
  </clipPath>
 </defs>
</svg>
