<?xml version="1.0" encoding="utf-8" standalone="no"?>
<!DOCTYPE svg PUBLIC "-//W3C//DTD SVG 1.1//EN"
  "http://www.w3.org/Graphics/SVG/1.1/DTD/svg11.dtd">
<svg xmlns:xlink="http://www.w3.org/1999/xlink" width="432pt" height="864pt" viewBox="0 0 432 864" xmlns="http://www.w3.org/2000/svg" version="1.1">
 <metadata>
  <rdf:RDF xmlns:dc="http://purl.org/dc/elements/1.1/" xmlns:cc="http://creativecommons.org/ns#" xmlns:rdf="http://www.w3.org/1999/02/22-rdf-syntax-ns#">
   <cc:Work>
    <dc:type rdf:resource="http://purl.org/dc/dcmitype/StillImage"/>
    <dc:date>2023-01-14T15:57:47.570094</dc:date>
    <dc:format>image/svg+xml</dc:format>
    <dc:creator>
     <cc:Agent>
      <dc:title>Matplotlib v3.5.1, https://matplotlib.org/</dc:title>
     </cc:Agent>
    </dc:creator>
   </cc:Work>
  </rdf:RDF>
 </metadata>
 <defs>
  <style type="text/css">*{stroke-linejoin: round; stroke-linecap: butt}</style>
 </defs>
 <g id="figure_1">
  <g id="patch_1">
   <path d="M 0 864 
L 432 864 
L 432 0 
L 0 0 
z
" style="fill: #ffffff"/>
  </g>
  <g id="axes_1">
   <g id="patch_2">
    <path d="M 54 299.350588 
L 388.8 299.350588 
L 388.8 103.68 
L 54 103.68 
z
" style="fill: #ffffff"/>
   </g>
   <g id="matplotlib.axis_1">
    <g id="xtick_1">
     <g id="line2d_1">
      <defs>
       <path id="m0b7687de36" d="M 0 0 
L 0 3.5 
" style="stroke: #000000; stroke-width: 0.8"/>
      </defs>
      <g>
       <use xlink:href="#m0b7687de36" x="69.218182" y="299.350588" style="stroke: #000000; stroke-width: 0.8"/>
      </g>
     </g>
     <g id="text_1">
      <!-- 0 -->
      <g transform="translate(66.036932 313.949026)scale(0.1 -0.1)">
       <defs>
        <path id="DejaVuSans-30" d="M 2034 4250 
Q 1547 4250 1301 3770 
Q 1056 3291 1056 2328 
Q 1056 1369 1301 889 
Q 1547 409 2034 409 
Q 2525 409 2770 889 
Q 3016 1369 3016 2328 
Q 3016 3291 2770 3770 
Q 2525 4250 2034 4250 
z
M 2034 4750 
Q 2819 4750 3233 4129 
Q 3647 3509 3647 2328 
Q 3647 1150 3233 529 
Q 2819 -91 2034 -91 
Q 1250 -91 836 529 
Q 422 1150 422 2328 
Q 422 3509 836 4129 
Q 1250 4750 2034 4750 
z
" transform="scale(0.015625)"/>
       </defs>
       <use xlink:href="#DejaVuSans-30"/>
      </g>
     </g>
    </g>
    <g id="xtick_2">
     <g id="line2d_2">
      <g>
       <use xlink:href="#m0b7687de36" x="130.705785" y="299.350588" style="stroke: #000000; stroke-width: 0.8"/>
      </g>
     </g>
     <g id="text_2">
      <!-- 20 -->
      <g transform="translate(124.343285 313.949026)scale(0.1 -0.1)">
       <defs>
        <path id="DejaVuSans-32" d="M 1228 531 
L 3431 531 
L 3431 0 
L 469 0 
L 469 531 
Q 828 903 1448 1529 
Q 2069 2156 2228 2338 
Q 2531 2678 2651 2914 
Q 2772 3150 2772 3378 
Q 2772 3750 2511 3984 
Q 2250 4219 1831 4219 
Q 1534 4219 1204 4116 
Q 875 4013 500 3803 
L 500 4441 
Q 881 4594 1212 4672 
Q 1544 4750 1819 4750 
Q 2544 4750 2975 4387 
Q 3406 4025 3406 3419 
Q 3406 3131 3298 2873 
Q 3191 2616 2906 2266 
Q 2828 2175 2409 1742 
Q 1991 1309 1228 531 
z
" transform="scale(0.015625)"/>
       </defs>
       <use xlink:href="#DejaVuSans-32"/>
       <use xlink:href="#DejaVuSans-30" x="63.623047"/>
      </g>
     </g>
    </g>
    <g id="xtick_3">
     <g id="line2d_3">
      <g>
       <use xlink:href="#m0b7687de36" x="192.193388" y="299.350588" style="stroke: #000000; stroke-width: 0.8"/>
      </g>
     </g>
     <g id="text_3">
      <!-- 40 -->
      <g transform="translate(185.830888 313.949026)scale(0.1 -0.1)">
       <defs>
        <path id="DejaVuSans-34" d="M 2419 4116 
L 825 1625 
L 2419 1625 
L 2419 4116 
z
M 2253 4666 
L 3047 4666 
L 3047 1625 
L 3713 1625 
L 3713 1100 
L 3047 1100 
L 3047 0 
L 2419 0 
L 2419 1100 
L 313 1100 
L 313 1709 
L 2253 4666 
z
" transform="scale(0.015625)"/>
       </defs>
       <use xlink:href="#DejaVuSans-34"/>
       <use xlink:href="#DejaVuSans-30" x="63.623047"/>
      </g>
     </g>
    </g>
    <g id="xtick_4">
     <g id="line2d_4">
      <g>
       <use xlink:href="#m0b7687de36" x="253.680992" y="299.350588" style="stroke: #000000; stroke-width: 0.8"/>
      </g>
     </g>
     <g id="text_4">
      <!-- 60 -->
      <g transform="translate(247.318492 313.949026)scale(0.1 -0.1)">
       <defs>
        <path id="DejaVuSans-36" d="M 2113 2584 
Q 1688 2584 1439 2293 
Q 1191 2003 1191 1497 
Q 1191 994 1439 701 
Q 1688 409 2113 409 
Q 2538 409 2786 701 
Q 3034 994 3034 1497 
Q 3034 2003 2786 2293 
Q 2538 2584 2113 2584 
z
M 3366 4563 
L 3366 3988 
Q 3128 4100 2886 4159 
Q 2644 4219 2406 4219 
Q 1781 4219 1451 3797 
Q 1122 3375 1075 2522 
Q 1259 2794 1537 2939 
Q 1816 3084 2150 3084 
Q 2853 3084 3261 2657 
Q 3669 2231 3669 1497 
Q 3669 778 3244 343 
Q 2819 -91 2113 -91 
Q 1303 -91 875 529 
Q 447 1150 447 2328 
Q 447 3434 972 4092 
Q 1497 4750 2381 4750 
Q 2619 4750 2861 4703 
Q 3103 4656 3366 4563 
z
" transform="scale(0.015625)"/>
       </defs>
       <use xlink:href="#DejaVuSans-36"/>
       <use xlink:href="#DejaVuSans-30" x="63.623047"/>
      </g>
     </g>
    </g>
    <g id="xtick_5">
     <g id="line2d_5">
      <g>
       <use xlink:href="#m0b7687de36" x="315.168595" y="299.350588" style="stroke: #000000; stroke-width: 0.8"/>
      </g>
     </g>
     <g id="text_5">
      <!-- 80 -->
      <g transform="translate(308.806095 313.949026)scale(0.1 -0.1)">
       <defs>
        <path id="DejaVuSans-38" d="M 2034 2216 
Q 1584 2216 1326 1975 
Q 1069 1734 1069 1313 
Q 1069 891 1326 650 
Q 1584 409 2034 409 
Q 2484 409 2743 651 
Q 3003 894 3003 1313 
Q 3003 1734 2745 1975 
Q 2488 2216 2034 2216 
z
M 1403 2484 
Q 997 2584 770 2862 
Q 544 3141 544 3541 
Q 544 4100 942 4425 
Q 1341 4750 2034 4750 
Q 2731 4750 3128 4425 
Q 3525 4100 3525 3541 
Q 3525 3141 3298 2862 
Q 3072 2584 2669 2484 
Q 3125 2378 3379 2068 
Q 3634 1759 3634 1313 
Q 3634 634 3220 271 
Q 2806 -91 2034 -91 
Q 1263 -91 848 271 
Q 434 634 434 1313 
Q 434 1759 690 2068 
Q 947 2378 1403 2484 
z
M 1172 3481 
Q 1172 3119 1398 2916 
Q 1625 2713 2034 2713 
Q 2441 2713 2670 2916 
Q 2900 3119 2900 3481 
Q 2900 3844 2670 4047 
Q 2441 4250 2034 4250 
Q 1625 4250 1398 4047 
Q 1172 3844 1172 3481 
z
" transform="scale(0.015625)"/>
       </defs>
       <use xlink:href="#DejaVuSans-38"/>
       <use xlink:href="#DejaVuSans-30" x="63.623047"/>
      </g>
     </g>
    </g>
    <g id="xtick_6">
     <g id="line2d_6">
      <g>
       <use xlink:href="#m0b7687de36" x="376.656198" y="299.350588" style="stroke: #000000; stroke-width: 0.8"/>
      </g>
     </g>
     <g id="text_6">
      <!-- 100 -->
      <g transform="translate(367.112448 313.949026)scale(0.1 -0.1)">
       <defs>
        <path id="DejaVuSans-31" d="M 794 531 
L 1825 531 
L 1825 4091 
L 703 3866 
L 703 4441 
L 1819 4666 
L 2450 4666 
L 2450 531 
L 3481 531 
L 3481 0 
L 794 0 
L 794 531 
z
" transform="scale(0.015625)"/>
       </defs>
       <use xlink:href="#DejaVuSans-31"/>
       <use xlink:href="#DejaVuSans-30" x="63.623047"/>
       <use xlink:href="#DejaVuSans-30" x="127.246094"/>
      </g>
     </g>
    </g>
   </g>
   <g id="matplotlib.axis_2">
    <g id="ytick_1">
     <g id="line2d_7">
      <defs>
       <path id="mfd994bc35f" d="M 0 0 
L -3.5 0 
" style="stroke: #000000; stroke-width: 0.8"/>
      </defs>
      <g>
       <use xlink:href="#mfd994bc35f" x="54" y="299.350588" style="stroke: #000000; stroke-width: 0.8"/>
      </g>
     </g>
     <g id="text_7">
      <!-- 0.0 -->
      <g transform="translate(31.096875 303.149807)scale(0.1 -0.1)">
       <defs>
        <path id="DejaVuSans-2e" d="M 684 794 
L 1344 794 
L 1344 0 
L 684 0 
L 684 794 
z
" transform="scale(0.015625)"/>
       </defs>
       <use xlink:href="#DejaVuSans-30"/>
       <use xlink:href="#DejaVuSans-2e" x="63.623047"/>
       <use xlink:href="#DejaVuSans-30" x="95.410156"/>
      </g>
     </g>
    </g>
    <g id="ytick_2">
     <g id="line2d_8">
      <g>
       <use xlink:href="#mfd994bc35f" x="54" y="260.216471" style="stroke: #000000; stroke-width: 0.8"/>
      </g>
     </g>
     <g id="text_8">
      <!-- 0.2 -->
      <g transform="translate(31.096875 264.015689)scale(0.1 -0.1)">
       <use xlink:href="#DejaVuSans-30"/>
       <use xlink:href="#DejaVuSans-2e" x="63.623047"/>
       <use xlink:href="#DejaVuSans-32" x="95.410156"/>
      </g>
     </g>
    </g>
    <g id="ytick_3">
     <g id="line2d_9">
      <g>
       <use xlink:href="#mfd994bc35f" x="54" y="221.082353" style="stroke: #000000; stroke-width: 0.8"/>
      </g>
     </g>
     <g id="text_9">
      <!-- 0.4 -->
      <g transform="translate(31.096875 224.881572)scale(0.1 -0.1)">
       <use xlink:href="#DejaVuSans-30"/>
       <use xlink:href="#DejaVuSans-2e" x="63.623047"/>
       <use xlink:href="#DejaVuSans-34" x="95.410156"/>
      </g>
     </g>
    </g>
    <g id="ytick_4">
     <g id="line2d_10">
      <g>
       <use xlink:href="#mfd994bc35f" x="54" y="181.948235" style="stroke: #000000; stroke-width: 0.8"/>
      </g>
     </g>
     <g id="text_10">
      <!-- 0.6 -->
      <g transform="translate(31.096875 185.747454)scale(0.1 -0.1)">
       <use xlink:href="#DejaVuSans-30"/>
       <use xlink:href="#DejaVuSans-2e" x="63.623047"/>
       <use xlink:href="#DejaVuSans-36" x="95.410156"/>
      </g>
     </g>
    </g>
    <g id="ytick_5">
     <g id="line2d_11">
      <g>
       <use xlink:href="#mfd994bc35f" x="54" y="142.814118" style="stroke: #000000; stroke-width: 0.8"/>
      </g>
     </g>
     <g id="text_11">
      <!-- 0.8 -->
      <g transform="translate(31.096875 146.613336)scale(0.1 -0.1)">
       <use xlink:href="#DejaVuSans-30"/>
       <use xlink:href="#DejaVuSans-2e" x="63.623047"/>
       <use xlink:href="#DejaVuSans-38" x="95.410156"/>
      </g>
     </g>
    </g>
    <g id="ytick_6">
     <g id="line2d_12">
      <g>
       <use xlink:href="#mfd994bc35f" x="54" y="103.68" style="stroke: #000000; stroke-width: 0.8"/>
      </g>
     </g>
     <g id="text_12">
      <!-- 1.0 -->
      <g transform="translate(31.096875 107.479219)scale(0.1 -0.1)">
       <use xlink:href="#DejaVuSans-31"/>
       <use xlink:href="#DejaVuSans-2e" x="63.623047"/>
       <use xlink:href="#DejaVuSans-30" x="95.410156"/>
      </g>
     </g>
    </g>
    <g id="text_13">
     <!-- $S_2 / S_{page}$ -->
     <g transform="translate(23.996875 220.815294)rotate(-90)scale(0.1 -0.1)">
      <defs>
       <path id="DejaVuSans-Oblique-53" d="M 3859 4513 
L 3738 3897 
Q 3422 4066 3111 4152 
Q 2800 4238 2509 4238 
Q 1944 4238 1609 3991 
Q 1275 3744 1275 3334 
Q 1275 3109 1398 2989 
Q 1522 2869 2034 2731 
L 2413 2638 
Q 3053 2472 3303 2217 
Q 3553 1963 3553 1503 
Q 3553 797 2998 353 
Q 2444 -91 1538 -91 
Q 1166 -91 791 -17 
Q 416 56 38 206 
L 166 856 
Q 513 641 861 531 
Q 1209 422 1556 422 
Q 2147 422 2503 684 
Q 2859 947 2859 1369 
Q 2859 1650 2717 1795 
Q 2575 1941 2106 2059 
L 1728 2156 
Q 1081 2325 845 2545 
Q 609 2766 609 3163 
Q 609 3859 1145 4304 
Q 1681 4750 2541 4750 
Q 2875 4750 3203 4690 
Q 3531 4631 3859 4513 
z
" transform="scale(0.015625)"/>
       <path id="DejaVuSans-2f" d="M 1625 4666 
L 2156 4666 
L 531 -594 
L 0 -594 
L 1625 4666 
z
" transform="scale(0.015625)"/>
       <path id="DejaVuSans-Oblique-70" d="M 3175 2156 
Q 3175 2616 2975 2859 
Q 2775 3103 2400 3103 
Q 2144 3103 1911 2972 
Q 1678 2841 1497 2591 
Q 1319 2344 1212 1994 
Q 1106 1644 1106 1300 
Q 1106 863 1306 627 
Q 1506 391 1875 391 
Q 2147 391 2380 519 
Q 2613 647 2778 891 
Q 2956 1147 3065 1494 
Q 3175 1841 3175 2156 
z
M 1394 2969 
Q 1625 3272 1939 3428 
Q 2253 3584 2638 3584 
Q 3175 3584 3472 3232 
Q 3769 2881 3769 2247 
Q 3769 1728 3584 1258 
Q 3400 788 3053 416 
Q 2822 169 2531 39 
Q 2241 -91 1919 -91 
Q 1547 -91 1294 64 
Q 1041 219 916 525 
L 556 -1331 
L -19 -1331 
L 922 3500 
L 1497 3500 
L 1394 2969 
z
" transform="scale(0.015625)"/>
       <path id="DejaVuSans-Oblique-61" d="M 3438 1997 
L 3047 0 
L 2472 0 
L 2578 531 
Q 2325 219 2001 64 
Q 1678 -91 1281 -91 
Q 834 -91 548 182 
Q 263 456 263 884 
Q 263 1497 752 1853 
Q 1241 2209 2100 2209 
L 2900 2209 
L 2931 2363 
Q 2938 2388 2941 2417 
Q 2944 2447 2944 2509 
Q 2944 2788 2717 2942 
Q 2491 3097 2081 3097 
Q 1800 3097 1504 3025 
Q 1209 2953 897 2809 
L 997 3341 
Q 1322 3463 1633 3523 
Q 1944 3584 2234 3584 
Q 2853 3584 3176 3315 
Q 3500 3047 3500 2534 
Q 3500 2431 3484 2292 
Q 3469 2153 3438 1997 
z
M 2816 1759 
L 2241 1759 
Q 1534 1759 1195 1570 
Q 856 1381 856 984 
Q 856 709 1029 553 
Q 1203 397 1509 397 
Q 1978 397 2328 733 
Q 2678 1069 2791 1631 
L 2816 1759 
z
" transform="scale(0.015625)"/>
       <path id="DejaVuSans-Oblique-67" d="M 3816 3500 
L 3219 434 
Q 3047 -456 2561 -893 
Q 2075 -1331 1253 -1331 
Q 950 -1331 690 -1286 
Q 431 -1241 206 -1147 
L 313 -588 
Q 525 -725 762 -790 
Q 1000 -856 1269 -856 
Q 1816 -856 2167 -557 
Q 2519 -259 2631 300 
L 2681 563 
Q 2441 288 2122 144 
Q 1803 0 1434 0 
Q 903 0 598 351 
Q 294 703 294 1319 
Q 294 1803 478 2267 
Q 663 2731 997 3091 
Q 1219 3328 1514 3456 
Q 1809 3584 2131 3584 
Q 2484 3584 2746 3420 
Q 3009 3256 3138 2956 
L 3238 3500 
L 3816 3500 
z
M 2950 2216 
Q 2950 2641 2750 2872 
Q 2550 3103 2181 3103 
Q 1953 3103 1747 3012 
Q 1541 2922 1394 2759 
Q 1156 2491 1023 2127 
Q 891 1763 891 1375 
Q 891 944 1092 712 
Q 1294 481 1672 481 
Q 2219 481 2584 976 
Q 2950 1472 2950 2216 
z
" transform="scale(0.015625)"/>
       <path id="DejaVuSans-Oblique-65" d="M 3078 2063 
Q 3088 2113 3092 2166 
Q 3097 2219 3097 2272 
Q 3097 2653 2873 2875 
Q 2650 3097 2266 3097 
Q 1838 3097 1509 2826 
Q 1181 2556 1013 2059 
L 3078 2063 
z
M 3578 1613 
L 903 1613 
Q 884 1494 878 1425 
Q 872 1356 872 1306 
Q 872 872 1139 634 
Q 1406 397 1894 397 
Q 2269 397 2603 481 
Q 2938 566 3225 728 
L 3116 159 
Q 2806 34 2476 -28 
Q 2147 -91 1806 -91 
Q 1078 -91 686 257 
Q 294 606 294 1247 
Q 294 1794 489 2264 
Q 684 2734 1063 3103 
Q 1306 3334 1642 3459 
Q 1978 3584 2356 3584 
Q 2950 3584 3301 3228 
Q 3653 2872 3653 2272 
Q 3653 2128 3634 1964 
Q 3616 1800 3578 1613 
z
" transform="scale(0.015625)"/>
      </defs>
      <use xlink:href="#DejaVuSans-Oblique-53" transform="translate(0 0.78125)"/>
      <use xlink:href="#DejaVuSans-32" transform="translate(63.476562 -15.625)scale(0.7)"/>
      <use xlink:href="#DejaVuSans-2f" transform="translate(110.74707 0.78125)"/>
      <use xlink:href="#DejaVuSans-Oblique-53" transform="translate(144.438477 0.78125)"/>
      <use xlink:href="#DejaVuSans-Oblique-70" transform="translate(207.915039 -15.625)scale(0.7)"/>
      <use xlink:href="#DejaVuSans-Oblique-61" transform="translate(252.348633 -15.625)scale(0.7)"/>
      <use xlink:href="#DejaVuSans-Oblique-67" transform="translate(295.244141 -15.625)scale(0.7)"/>
      <use xlink:href="#DejaVuSans-Oblique-65" transform="translate(339.677734 -15.625)scale(0.7)"/>
     </g>
    </g>
   </g>
   <g id="line2d_13">
    <path d="M 69.218182 258.142716 
L 72.292562 231.743168 
L 75.366942 226.055267 
L 78.441322 214.567011 
L 81.515702 230.630838 
L 84.590083 242.492905 
L 87.664463 240.649683 
L 90.738843 251.666818 
L 93.813223 277.335713 
L 96.887603 269.31169 
L 99.961983 171.057511 
L 103.036364 220.515675 
L 106.110744 290.453348 
L 109.185124 210.077831 
L 112.259504 248.810396 
L 115.333884 240.290689 
L 118.408264 261.110795 
L 121.482645 275.769404 
L 124.557025 255.568852 
L 127.631405 279.5763 
L 130.705785 265.512762 
L 133.780165 172.063654 
L 136.854545 237.708503 
L 139.928926 253.803129 
L 143.003306 272.122953 
L 146.077686 249.471135 
L 149.152066 219.294861 
L 152.226446 249.160261 
L 155.300826 220.439345 
L 158.375207 246.853212 
L 161.449587 270.018657 
L 164.523967 274.163458 
L 167.598347 230.999009 
L 170.672727 191.787458 
L 173.747107 222.654756 
L 176.821488 277.949233 
L 179.895868 211.428006 
L 182.970248 199.668554 
L 186.044628 271.985688 
L 189.119008 258.998431 
L 192.193388 278.625885 
L 195.267769 275.025301 
L 198.342149 198.050076 
L 201.416529 233.116539 
L 204.490909 251.512128 
L 207.565289 245.727268 
L 210.639669 284.714642 
L 213.71405 282.031292 
L 216.78843 255.616388 
L 219.86281 262.549244 
L 222.93719 251.244573 
L 226.01157 255.54406 
L 229.08595 254.594889 
L 232.160331 255.124992 
L 235.234711 255.170114 
L 238.309091 254.662183 
L 241.383471 255.385245 
L 244.457851 254.287489 
L 247.532231 254.32387 
L 250.606612 253.910929 
L 253.680992 251.998326 
L 256.755372 255.257094 
L 259.829752 252.849863 
L 262.904132 256.87291 
L 265.978512 254.876026 
L 269.052893 255.876319 
L 272.127273 255.976146 
L 275.201653 256.005445 
L 278.276033 256.410522 
L 281.350413 255.702767 
L 284.424793 255.540702 
L 287.499174 253.684073 
L 290.573554 252.911204 
L 293.647934 250.60482 
L 296.722314 250.212313 
L 299.796694 248.823548 
L 302.871074 249.410864 
L 305.945455 249.881796 
L 309.019835 250.765686 
L 312.094215 252.141777 
L 315.168595 251.657637 
L 318.242975 254.260948 
L 321.317355 250.210103 
L 324.391736 252.653051 
L 327.466116 250.681217 
L 330.540496 251.440118 
L 333.614876 252.009701 
L 336.689256 250.925626 
L 339.763636 251.731719 
L 342.838017 250.609001 
L 345.912397 251.704256 
L 348.986777 252.133453 
L 352.061157 252.150677 
L 355.135537 254.512694 
L 358.209917 250.685141 
L 361.284298 253.555322 
L 364.358678 249.136148 
L 367.433058 251.178098 
L 370.507438 252.319143 
L 373.581818 251.379012 
" clip-path="url(#p2e2161686c)" style="fill: none; stroke: #1f77b4; stroke-width: 1.5; stroke-linecap: square"/>
   </g>
   <g id="line2d_14">
    <path d="M 69.218182 245.60661 
L 72.292562 222.18962 
L 75.366942 200.096594 
L 78.441322 198.738321 
L 81.515702 218.312922 
L 84.590083 239.443811 
L 87.664463 253.551743 
L 90.738843 261.831187 
L 93.813223 266.659392 
L 96.887603 269.455288 
L 99.961983 270.982121 
L 103.036364 271.721318 
L 106.110744 272.013786 
L 109.185124 272.096711 
L 112.259504 272.121668 
L 115.333884 272.175678 
L 118.408264 272.302893 
L 121.482645 272.522008 
L 124.557025 272.837424 
L 127.631405 273.245114 
L 130.705785 273.735503 
L 133.780165 274.29543 
L 136.854545 274.910067 
L 139.928926 275.564643 
L 143.003306 276.245517 
L 146.077686 276.940456 
L 149.152066 277.638307 
L 152.226446 278.328333 
L 155.300826 278.999498 
L 158.375207 279.63992 
L 161.449587 280.236632 
L 164.523967 280.775794 
L 167.598347 281.243365 
L 170.672727 281.626216 
L 173.747107 281.913505 
L 176.821488 282.098062 
L 179.895868 282.177471 
L 182.970248 282.154587 
L 186.044628 282.037327 
L 189.119008 281.837787 
L 192.193388 281.570862 
L 195.267769 281.252677 
L 198.342149 280.899104 
L 201.416529 280.524609 
L 204.490909 280.141505 
L 207.565289 279.759617 
L 210.639669 279.386292 
L 213.71405 279.02664 
L 216.78843 278.683906 
L 219.86281 278.359895 
L 222.93719 278.055389 
L 226.01157 277.770529 
L 229.08595 277.50514 
L 232.160331 277.258997 
L 235.234711 277.032032 
L 238.309091 276.824484 
L 241.383471 276.63699 
L 244.457851 276.470612 
L 247.532231 276.326797 
L 250.606612 276.207261 
L 253.680992 276.113801 
L 256.755372 276.048028 
L 259.829752 276.011066 
L 262.904132 276.003226 
L 265.978512 276.02373 
L 269.052893 276.070532 
L 272.127273 276.140289 
L 275.201653 276.228514 
L 278.276033 276.329901 
L 281.350413 276.438772 
L 284.424793 276.549578 
L 287.499174 276.657362 
L 290.573554 276.758114 
L 293.647934 276.84897 
L 296.722314 276.928257 
L 299.796694 276.99539 
L 302.871074 277.050688 
L 305.945455 277.095137 
L 309.019835 277.13015 
L 312.094215 277.157358 
L 315.168595 277.178436 
L 318.242975 277.194985 
L 321.317355 277.208448 
L 324.391736 277.220075 
L 327.466116 277.230899 
L 330.540496 277.24175 
L 333.614876 277.253264 
L 336.689256 277.26591 
L 339.763636 277.280015 
L 342.838017 277.295784 
L 345.912397 277.313331 
L 348.986777 277.33269 
L 352.061157 277.353842 
L 355.135537 277.376721 
L 358.209917 277.401233 
L 361.284298 277.427261 
L 364.358678 277.454676 
L 367.433058 277.483339 
L 370.507438 277.513111 
L 373.581818 277.543851 
" clip-path="url(#p2e2161686c)" style="fill: none; stroke: #ff7f0e; stroke-width: 1.5; stroke-linecap: square"/>
   </g>
   <g id="line2d_15">
    <path d="M 69.218182 258.350101 
L 72.292562 254.645286 
L 75.366942 250.636021 
L 78.441322 246.314996 
L 81.515702 241.680281 
L 84.590083 236.73667 
L 87.664463 231.49698 
L 90.738843 225.983174 
L 93.813223 220.227128 
L 96.887603 214.270917 
L 99.961983 208.166455 
L 103.036364 201.974426 
L 106.110744 195.762489 
L 109.185124 189.602862 
L 112.259504 183.569463 
L 115.333884 177.73488 
L 118.408264 172.167442 
L 121.482645 166.92867 
L 124.557025 162.071324 
L 127.631405 157.638151 
L 130.705785 153.661365 
L 133.780165 150.162786 
L 136.854545 147.154513 
L 139.928926 144.639968 
L 143.003306 142.61515 
L 146.077686 141.069956 
L 149.152066 139.989463 
L 152.226446 139.355088 
L 155.300826 139.145588 
L 158.375207 139.337893 
L 161.449587 139.907761 
L 164.523967 140.830289 
L 167.598347 142.080295 
L 170.672727 143.632603 
L 173.747107 145.462243 
L 176.821488 147.544606 
L 179.895868 149.855558 
L 182.970248 152.371531 
L 186.044628 155.069597 
L 189.119008 157.927539 
L 192.193388 160.923912 
L 195.267769 164.038109 
L 198.342149 167.250414 
L 201.416529 170.54206 
L 204.490909 173.895274 
L 207.565289 177.293324 
L 210.639669 180.72055 
L 213.71405 184.162392 
L 216.78843 187.605401 
L 219.86281 191.037247 
L 222.93719 194.44671 
L 226.01157 197.823668 
L 229.08595 201.15907 
L 232.160331 204.444902 
L 235.234711 207.674147 
L 238.309091 210.840738 
L 241.383471 213.939508 
L 244.457851 216.96613 
L 247.532231 219.917065 
L 250.606612 222.789501 
L 253.680992 225.581289 
L 256.755372 228.29089 
L 259.829752 230.917317 
L 262.904132 233.460072 
L 265.978512 235.9191 
L 269.052893 238.294735 
L 272.127273 240.587653 
L 275.201653 242.798823 
L 278.276033 244.929472 
L 281.350413 246.981043 
L 284.424793 248.955159 
L 287.499174 250.853593 
L 290.573554 252.67824 
L 293.647934 254.431088 
L 296.722314 256.1142 
L 299.796694 257.729687 
L 302.871074 259.279697 
L 305.945455 260.766391 
L 309.019835 262.191939 
L 312.094215 263.558499 
L 315.168595 264.868213 
L 318.242975 266.123195 
L 321.317355 267.325526 
L 324.391736 268.477247 
L 327.466116 269.580353 
L 330.540496 270.63679 
L 333.614876 271.648453 
L 336.689256 272.61718 
L 339.763636 273.544757 
L 342.838017 274.43291 
L 345.912397 275.283307 
L 348.986777 276.09756 
L 352.061157 276.877219 
L 355.135537 277.623782 
L 358.209917 278.338686 
L 361.284298 279.023314 
L 364.358678 279.678995 
L 367.433058 280.307002 
L 370.507438 280.908558 
L 373.581818 281.484836 
" clip-path="url(#p2e2161686c)" style="fill: none; stroke: #2ca02c; stroke-width: 1.5; stroke-linecap: square"/>
   </g>
   <g id="line2d_16">
    <path d="M 69.218182 265.969774 
L 72.292562 265.845054 
L 75.366942 265.720105 
L 78.441322 265.594929 
L 81.515702 265.469526 
L 84.590083 265.343898 
L 87.664463 265.218046 
L 90.738843 265.091972 
L 93.813223 264.965677 
L 96.887603 264.839162 
L 99.961983 264.712428 
L 103.036364 264.585477 
L 106.110744 264.45831 
L 109.185124 264.330929 
L 112.259504 264.203335 
L 115.333884 264.075528 
L 118.408264 263.947512 
L 121.482645 263.819286 
L 124.557025 263.690853 
L 127.631405 263.562214 
L 130.705785 263.43337 
L 133.780165 263.304322 
L 136.854545 263.175073 
L 139.928926 263.045622 
L 143.003306 262.915973 
L 146.077686 262.786126 
L 149.152066 262.656083 
L 152.226446 262.525845 
L 155.300826 262.395413 
L 158.375207 262.26479 
L 161.449587 262.133976 
L 164.523967 262.002973 
L 167.598347 261.871782 
L 170.672727 261.740406 
L 173.747107 261.608845 
L 176.821488 261.477101 
L 179.895868 261.345175 
L 182.970248 261.213069 
L 186.044628 261.080785 
L 189.119008 260.948323 
L 192.193388 260.815686 
L 195.267769 260.682875 
L 198.342149 260.549891 
L 201.416529 260.416736 
L 204.490909 260.283411 
L 207.565289 260.149919 
L 210.639669 260.01626 
L 213.71405 259.882436 
L 216.78843 259.748448 
L 219.86281 259.614299 
L 222.93719 259.479989 
L 226.01157 259.34552 
L 229.08595 259.210894 
L 232.160331 259.076112 
L 235.234711 258.941176 
L 238.309091 258.806087 
L 241.383471 258.670847 
L 244.457851 258.535457 
L 247.532231 258.399919 
L 250.606612 258.264235 
L 253.680992 258.128405 
L 256.755372 257.992432 
L 259.829752 257.856317 
L 262.904132 257.720061 
L 265.978512 257.583666 
L 269.052893 257.447134 
L 272.127273 257.310466 
L 275.201653 257.173664 
L 278.276033 257.036729 
L 281.350413 256.899662 
L 284.424793 256.762466 
L 287.499174 256.625141 
L 290.573554 256.48769 
L 293.647934 256.350113 
L 296.722314 256.212412 
L 299.796694 256.07459 
L 302.871074 255.936646 
L 305.945455 255.798583 
L 309.019835 255.660402 
L 312.094215 255.522105 
L 315.168595 255.383693 
L 318.242975 255.245168 
L 321.317355 255.106531 
L 324.391736 254.967783 
L 327.466116 254.828926 
L 330.540496 254.689962 
L 333.614876 254.550891 
L 336.689256 254.411716 
L 339.763636 254.272438 
L 342.838017 254.133057 
L 345.912397 253.993577 
L 348.986777 253.853997 
L 352.061157 253.71432 
L 355.135537 253.574546 
L 358.209917 253.434678 
L 361.284298 253.294716 
L 364.358678 253.154661 
L 367.433058 253.014516 
L 370.507438 252.874282 
L 373.581818 252.733959 
" clip-path="url(#p2e2161686c)" style="fill: none; stroke: #d62728; stroke-width: 1.5; stroke-linecap: square"/>
   </g>
   <g id="line2d_17">
    <path d="M 69.218182 267.6011 
L 72.292562 267.581114 
L 75.366942 267.561113 
L 78.441322 267.541096 
L 81.515702 267.521065 
L 84.590083 267.501018 
L 87.664463 267.480956 
L 90.738843 267.460879 
L 93.813223 267.440787 
L 96.887603 267.42068 
L 99.961983 267.400557 
L 103.036364 267.38042 
L 106.110744 267.360267 
L 109.185124 267.340099 
L 112.259504 267.319915 
L 115.333884 267.299717 
L 118.408264 267.279503 
L 121.482645 267.259274 
L 124.557025 267.23903 
L 127.631405 267.21877 
L 130.705785 267.198495 
L 133.780165 267.178205 
L 136.854545 267.157899 
L 139.928926 267.137579 
L 143.003306 267.117242 
L 146.077686 267.096891 
L 149.152066 267.076524 
L 152.226446 267.056142 
L 155.300826 267.035744 
L 158.375207 267.015332 
L 161.449587 266.994903 
L 164.523967 266.97446 
L 167.598347 266.954001 
L 170.672727 266.933526 
L 173.747107 266.913036 
L 176.821488 266.892531 
L 179.895868 266.87201 
L 182.970248 266.851474 
L 186.044628 266.830922 
L 189.119008 266.810355 
L 192.193388 266.789773 
L 195.267769 266.769175 
L 198.342149 266.748561 
L 201.416529 266.727932 
L 204.490909 266.707287 
L 207.565289 266.686627 
L 210.639669 266.665952 
L 213.71405 266.64526 
L 216.78843 266.624554 
L 219.86281 266.603831 
L 222.93719 266.583094 
L 226.01157 266.56234 
L 229.08595 266.541571 
L 232.160331 266.520786 
L 235.234711 266.499986 
L 238.309091 266.47917 
L 241.383471 266.458339 
L 244.457851 266.437492 
L 247.532231 266.416629 
L 250.606612 266.39575 
L 253.680992 266.374856 
L 256.755372 266.353946 
L 259.829752 266.333021 
L 262.904132 266.31208 
L 265.978512 266.291123 
L 269.052893 266.27015 
L 272.127273 266.249162 
L 275.201653 266.228158 
L 278.276033 266.207138 
L 281.350413 266.186102 
L 284.424793 266.165051 
L 287.499174 266.143984 
L 290.573554 266.122901 
L 293.647934 266.101802 
L 296.722314 266.080688 
L 299.796694 266.059557 
L 302.871074 266.038411 
L 305.945455 266.017249 
L 309.019835 265.996071 
L 312.094215 265.974878 
L 315.168595 265.953668 
L 318.242975 265.932443 
L 321.317355 265.911201 
L 324.391736 265.889944 
L 327.466116 265.868671 
L 330.540496 265.847382 
L 333.614876 265.826077 
L 336.689256 265.804756 
L 339.763636 265.78342 
L 342.838017 265.762067 
L 345.912397 265.740698 
L 348.986777 265.719314 
L 352.061157 265.697913 
L 355.135537 265.676496 
L 358.209917 265.655064 
L 361.284298 265.633615 
L 364.358678 265.612151 
L 367.433058 265.59067 
L 370.507438 265.569173 
L 373.581818 265.547661 
" clip-path="url(#p2e2161686c)" style="fill: none; stroke: #9467bd; stroke-width: 1.5; stroke-linecap: square"/>
   </g>
   <g id="patch_3">
    <path d="M 54 299.350588 
L 54 103.68 
" style="fill: none; stroke: #000000; stroke-width: 0.8; stroke-linejoin: miter; stroke-linecap: square"/>
   </g>
   <g id="patch_4">
    <path d="M 388.8 299.350588 
L 388.8 103.68 
" style="fill: none; stroke: #000000; stroke-width: 0.8; stroke-linejoin: miter; stroke-linecap: square"/>
   </g>
   <g id="patch_5">
    <path d="M 54 299.350588 
L 388.8 299.350588 
" style="fill: none; stroke: #000000; stroke-width: 0.8; stroke-linejoin: miter; stroke-linecap: square"/>
   </g>
   <g id="patch_6">
    <path d="M 54 103.68 
L 388.8 103.68 
" style="fill: none; stroke: #000000; stroke-width: 0.8; stroke-linejoin: miter; stroke-linecap: square"/>
   </g>
   <g id="legend_1">
    <g id="patch_7">
     <path d="M 296.1 185.172187 
L 381.8 185.172187 
Q 383.8 185.172187 383.8 183.172187 
L 383.8 110.68 
Q 383.8 108.68 381.8 108.68 
L 296.1 108.68 
Q 294.1 108.68 294.1 110.68 
L 294.1 183.172187 
Q 294.1 185.172187 296.1 185.172187 
z
" style="fill: #ffffff; opacity: 0.8; stroke: #cccccc; stroke-linejoin: miter"/>
    </g>
    <g id="line2d_18">
     <path d="M 298.1 116.778437 
L 308.1 116.778437 
L 318.1 116.778437 
" style="fill: none; stroke: #1f77b4; stroke-width: 1.5; stroke-linecap: square"/>
    </g>
    <g id="text_14">
     <!-- $\eta=$1 -->
     <g transform="translate(326.1 120.278437)scale(0.1 -0.1)">
      <defs>
       <path id="DejaVuSans-Oblique-3b7" d="M 3703 2113 
L 3034 -1331 
L 2459 -1331 
L 3125 2094 
Q 3222 2591 3075 2838 
Q 2931 3084 2544 3084 
Q 2078 3084 1750 2788 
Q 1425 2491 1325 1978 
L 941 0 
L 363 0 
L 1044 3500 
L 1622 3500 
L 1516 2956 
Q 1781 3272 2094 3428 
Q 2403 3584 2769 3584 
Q 3372 3584 3609 3213 
Q 3844 2838 3703 2113 
z
" transform="scale(0.015625)"/>
       <path id="DejaVuSans-3d" d="M 678 2906 
L 4684 2906 
L 4684 2381 
L 678 2381 
L 678 2906 
z
M 678 1631 
L 4684 1631 
L 4684 1100 
L 678 1100 
L 678 1631 
z
" transform="scale(0.015625)"/>
      </defs>
      <use xlink:href="#DejaVuSans-Oblique-3b7" transform="translate(0 0.09375)"/>
      <use xlink:href="#DejaVuSans-3d" transform="translate(82.861328 0.09375)"/>
      <use xlink:href="#DejaVuSans-31" transform="translate(186.132812 0.09375)"/>
     </g>
    </g>
    <g id="line2d_19">
     <path d="M 298.1 131.476875 
L 308.1 131.476875 
L 318.1 131.476875 
" style="fill: none; stroke: #ff7f0e; stroke-width: 1.5; stroke-linecap: square"/>
    </g>
    <g id="text_15">
     <!-- $\eta=$0.1 -->
     <g transform="translate(326.1 134.976875)scale(0.1 -0.1)">
      <use xlink:href="#DejaVuSans-Oblique-3b7" transform="translate(0 0.78125)"/>
      <use xlink:href="#DejaVuSans-3d" transform="translate(82.861328 0.78125)"/>
      <use xlink:href="#DejaVuSans-30" transform="translate(186.132812 0.78125)"/>
      <use xlink:href="#DejaVuSans-2e" transform="translate(249.755859 0.78125)"/>
      <use xlink:href="#DejaVuSans-31" transform="translate(281.542969 0.78125)"/>
     </g>
    </g>
    <g id="line2d_20">
     <path d="M 298.1 146.175313 
L 308.1 146.175313 
L 318.1 146.175313 
" style="fill: none; stroke: #2ca02c; stroke-width: 1.5; stroke-linecap: square"/>
    </g>
    <g id="text_16">
     <!-- $\eta=$0.01 -->
     <g transform="translate(326.1 149.675313)scale(0.1 -0.1)">
      <use xlink:href="#DejaVuSans-Oblique-3b7" transform="translate(0 0.78125)"/>
      <use xlink:href="#DejaVuSans-3d" transform="translate(82.861328 0.78125)"/>
      <use xlink:href="#DejaVuSans-30" transform="translate(186.132812 0.78125)"/>
      <use xlink:href="#DejaVuSans-2e" transform="translate(249.755859 0.78125)"/>
      <use xlink:href="#DejaVuSans-30" transform="translate(281.542969 0.78125)"/>
      <use xlink:href="#DejaVuSans-31" transform="translate(345.166016 0.78125)"/>
     </g>
    </g>
    <g id="line2d_21">
     <path d="M 298.1 160.87375 
L 308.1 160.87375 
L 318.1 160.87375 
" style="fill: none; stroke: #d62728; stroke-width: 1.5; stroke-linecap: square"/>
    </g>
    <g id="text_17">
     <!-- $\eta=$0.001 -->
     <g transform="translate(326.1 164.37375)scale(0.1 -0.1)">
      <use xlink:href="#DejaVuSans-Oblique-3b7" transform="translate(0 0.78125)"/>
      <use xlink:href="#DejaVuSans-3d" transform="translate(82.861328 0.78125)"/>
      <use xlink:href="#DejaVuSans-30" transform="translate(186.132812 0.78125)"/>
      <use xlink:href="#DejaVuSans-2e" transform="translate(249.755859 0.78125)"/>
      <use xlink:href="#DejaVuSans-30" transform="translate(281.542969 0.78125)"/>
      <use xlink:href="#DejaVuSans-30" transform="translate(345.166016 0.78125)"/>
      <use xlink:href="#DejaVuSans-31" transform="translate(408.789062 0.78125)"/>
     </g>
    </g>
    <g id="line2d_22">
     <path d="M 298.1 175.572188 
L 308.1 175.572188 
L 318.1 175.572188 
" style="fill: none; stroke: #9467bd; stroke-width: 1.5; stroke-linecap: square"/>
    </g>
    <g id="text_18">
     <!-- $\eta=$0.0001 -->
     <g transform="translate(326.1 179.072188)scale(0.1 -0.1)">
      <use xlink:href="#DejaVuSans-Oblique-3b7" transform="translate(0 0.78125)"/>
      <use xlink:href="#DejaVuSans-3d" transform="translate(82.861328 0.78125)"/>
      <use xlink:href="#DejaVuSans-30" transform="translate(186.132812 0.78125)"/>
      <use xlink:href="#DejaVuSans-2e" transform="translate(249.755859 0.78125)"/>
      <use xlink:href="#DejaVuSans-30" transform="translate(281.542969 0.78125)"/>
      <use xlink:href="#DejaVuSans-30" transform="translate(345.166016 0.78125)"/>
      <use xlink:href="#DejaVuSans-30" transform="translate(408.789062 0.78125)"/>
      <use xlink:href="#DejaVuSans-31" transform="translate(472.412109 0.78125)"/>
     </g>
    </g>
   </g>
  </g>
  <g id="axes_2">
   <g id="patch_8">
    <path d="M 54 534.155294 
L 388.8 534.155294 
L 388.8 338.484706 
L 54 338.484706 
z
" style="fill: #ffffff"/>
   </g>
   <g id="matplotlib.axis_3">
    <g id="xtick_7">
     <g id="line2d_23">
      <g>
       <use xlink:href="#m0b7687de36" x="69.218182" y="534.155294" style="stroke: #000000; stroke-width: 0.8"/>
      </g>
     </g>
     <g id="text_19">
      <!-- 0 -->
      <g transform="translate(66.036932 548.753732)scale(0.1 -0.1)">
       <use xlink:href="#DejaVuSans-30"/>
      </g>
     </g>
    </g>
    <g id="xtick_8">
     <g id="line2d_24">
      <g>
       <use xlink:href="#m0b7687de36" x="130.705785" y="534.155294" style="stroke: #000000; stroke-width: 0.8"/>
      </g>
     </g>
     <g id="text_20">
      <!-- 20 -->
      <g transform="translate(124.343285 548.753732)scale(0.1 -0.1)">
       <use xlink:href="#DejaVuSans-32"/>
       <use xlink:href="#DejaVuSans-30" x="63.623047"/>
      </g>
     </g>
    </g>
    <g id="xtick_9">
     <g id="line2d_25">
      <g>
       <use xlink:href="#m0b7687de36" x="192.193388" y="534.155294" style="stroke: #000000; stroke-width: 0.8"/>
      </g>
     </g>
     <g id="text_21">
      <!-- 40 -->
      <g transform="translate(185.830888 548.753732)scale(0.1 -0.1)">
       <use xlink:href="#DejaVuSans-34"/>
       <use xlink:href="#DejaVuSans-30" x="63.623047"/>
      </g>
     </g>
    </g>
    <g id="xtick_10">
     <g id="line2d_26">
      <g>
       <use xlink:href="#m0b7687de36" x="253.680992" y="534.155294" style="stroke: #000000; stroke-width: 0.8"/>
      </g>
     </g>
     <g id="text_22">
      <!-- 60 -->
      <g transform="translate(247.318492 548.753732)scale(0.1 -0.1)">
       <use xlink:href="#DejaVuSans-36"/>
       <use xlink:href="#DejaVuSans-30" x="63.623047"/>
      </g>
     </g>
    </g>
    <g id="xtick_11">
     <g id="line2d_27">
      <g>
       <use xlink:href="#m0b7687de36" x="315.168595" y="534.155294" style="stroke: #000000; stroke-width: 0.8"/>
      </g>
     </g>
     <g id="text_23">
      <!-- 80 -->
      <g transform="translate(308.806095 548.753732)scale(0.1 -0.1)">
       <use xlink:href="#DejaVuSans-38"/>
       <use xlink:href="#DejaVuSans-30" x="63.623047"/>
      </g>
     </g>
    </g>
    <g id="xtick_12">
     <g id="line2d_28">
      <g>
       <use xlink:href="#m0b7687de36" x="376.656198" y="534.155294" style="stroke: #000000; stroke-width: 0.8"/>
      </g>
     </g>
     <g id="text_24">
      <!-- 100 -->
      <g transform="translate(367.112448 548.753732)scale(0.1 -0.1)">
       <use xlink:href="#DejaVuSans-31"/>
       <use xlink:href="#DejaVuSans-30" x="63.623047"/>
       <use xlink:href="#DejaVuSans-30" x="127.246094"/>
      </g>
     </g>
    </g>
   </g>
   <g id="matplotlib.axis_4">
    <g id="ytick_7">
     <g id="line2d_29">
      <g>
       <use xlink:href="#mfd994bc35f" x="54" y="526.167296" style="stroke: #000000; stroke-width: 0.8"/>
      </g>
     </g>
     <g id="text_25">
      <!-- −6 -->
      <g transform="translate(32.257812 529.966514)scale(0.1 -0.1)">
       <defs>
        <path id="DejaVuSans-2212" d="M 678 2272 
L 4684 2272 
L 4684 1741 
L 678 1741 
L 678 2272 
z
" transform="scale(0.015625)"/>
       </defs>
       <use xlink:href="#DejaVuSans-2212"/>
       <use xlink:href="#DejaVuSans-36" x="83.789062"/>
      </g>
     </g>
    </g>
    <g id="ytick_8">
     <g id="line2d_30">
      <g>
       <use xlink:href="#mfd994bc35f" x="54" y="502.109438" style="stroke: #000000; stroke-width: 0.8"/>
      </g>
     </g>
     <g id="text_26">
      <!-- −4 -->
      <g transform="translate(32.257812 505.908656)scale(0.1 -0.1)">
       <use xlink:href="#DejaVuSans-2212"/>
       <use xlink:href="#DejaVuSans-34" x="83.789062"/>
      </g>
     </g>
    </g>
    <g id="ytick_9">
     <g id="line2d_31">
      <g>
       <use xlink:href="#mfd994bc35f" x="54" y="478.051579" style="stroke: #000000; stroke-width: 0.8"/>
      </g>
     </g>
     <g id="text_27">
      <!-- −2 -->
      <g transform="translate(32.257812 481.850798)scale(0.1 -0.1)">
       <use xlink:href="#DejaVuSans-2212"/>
       <use xlink:href="#DejaVuSans-32" x="83.789062"/>
      </g>
     </g>
    </g>
    <g id="ytick_10">
     <g id="line2d_32">
      <g>
       <use xlink:href="#mfd994bc35f" x="54" y="453.993721" style="stroke: #000000; stroke-width: 0.8"/>
      </g>
     </g>
     <g id="text_28">
      <!-- 0 -->
      <g transform="translate(40.6375 457.79294)scale(0.1 -0.1)">
       <use xlink:href="#DejaVuSans-30"/>
      </g>
     </g>
    </g>
    <g id="ytick_11">
     <g id="line2d_33">
      <g>
       <use xlink:href="#mfd994bc35f" x="54" y="429.935863" style="stroke: #000000; stroke-width: 0.8"/>
      </g>
     </g>
     <g id="text_29">
      <!-- 2 -->
      <g transform="translate(40.6375 433.735082)scale(0.1 -0.1)">
       <use xlink:href="#DejaVuSans-32"/>
      </g>
     </g>
    </g>
    <g id="ytick_12">
     <g id="line2d_34">
      <g>
       <use xlink:href="#mfd994bc35f" x="54" y="405.878005" style="stroke: #000000; stroke-width: 0.8"/>
      </g>
     </g>
     <g id="text_30">
      <!-- 4 -->
      <g transform="translate(40.6375 409.677224)scale(0.1 -0.1)">
       <use xlink:href="#DejaVuSans-34"/>
      </g>
     </g>
    </g>
    <g id="ytick_13">
     <g id="line2d_35">
      <g>
       <use xlink:href="#mfd994bc35f" x="54" y="381.820147" style="stroke: #000000; stroke-width: 0.8"/>
      </g>
     </g>
     <g id="text_31">
      <!-- 6 -->
      <g transform="translate(40.6375 385.619366)scale(0.1 -0.1)">
       <use xlink:href="#DejaVuSans-36"/>
      </g>
     </g>
    </g>
    <g id="ytick_14">
     <g id="line2d_36">
      <g>
       <use xlink:href="#mfd994bc35f" x="54" y="357.762289" style="stroke: #000000; stroke-width: 0.8"/>
      </g>
     </g>
     <g id="text_32">
      <!-- 8 -->
      <g transform="translate(40.6375 361.561507)scale(0.1 -0.1)">
       <use xlink:href="#DejaVuSans-38"/>
      </g>
     </g>
    </g>
    <g id="text_33">
     <!-- Energy $E$ -->
     <g transform="translate(26.157812 458.67)rotate(-90)scale(0.1 -0.1)">
      <defs>
       <path id="DejaVuSans-45" d="M 628 4666 
L 3578 4666 
L 3578 4134 
L 1259 4134 
L 1259 2753 
L 3481 2753 
L 3481 2222 
L 1259 2222 
L 1259 531 
L 3634 531 
L 3634 0 
L 628 0 
L 628 4666 
z
" transform="scale(0.015625)"/>
       <path id="DejaVuSans-6e" d="M 3513 2113 
L 3513 0 
L 2938 0 
L 2938 2094 
Q 2938 2591 2744 2837 
Q 2550 3084 2163 3084 
Q 1697 3084 1428 2787 
Q 1159 2491 1159 1978 
L 1159 0 
L 581 0 
L 581 3500 
L 1159 3500 
L 1159 2956 
Q 1366 3272 1645 3428 
Q 1925 3584 2291 3584 
Q 2894 3584 3203 3211 
Q 3513 2838 3513 2113 
z
" transform="scale(0.015625)"/>
       <path id="DejaVuSans-65" d="M 3597 1894 
L 3597 1613 
L 953 1613 
Q 991 1019 1311 708 
Q 1631 397 2203 397 
Q 2534 397 2845 478 
Q 3156 559 3463 722 
L 3463 178 
Q 3153 47 2828 -22 
Q 2503 -91 2169 -91 
Q 1331 -91 842 396 
Q 353 884 353 1716 
Q 353 2575 817 3079 
Q 1281 3584 2069 3584 
Q 2775 3584 3186 3129 
Q 3597 2675 3597 1894 
z
M 3022 2063 
Q 3016 2534 2758 2815 
Q 2500 3097 2075 3097 
Q 1594 3097 1305 2825 
Q 1016 2553 972 2059 
L 3022 2063 
z
" transform="scale(0.015625)"/>
       <path id="DejaVuSans-72" d="M 2631 2963 
Q 2534 3019 2420 3045 
Q 2306 3072 2169 3072 
Q 1681 3072 1420 2755 
Q 1159 2438 1159 1844 
L 1159 0 
L 581 0 
L 581 3500 
L 1159 3500 
L 1159 2956 
Q 1341 3275 1631 3429 
Q 1922 3584 2338 3584 
Q 2397 3584 2469 3576 
Q 2541 3569 2628 3553 
L 2631 2963 
z
" transform="scale(0.015625)"/>
       <path id="DejaVuSans-67" d="M 2906 1791 
Q 2906 2416 2648 2759 
Q 2391 3103 1925 3103 
Q 1463 3103 1205 2759 
Q 947 2416 947 1791 
Q 947 1169 1205 825 
Q 1463 481 1925 481 
Q 2391 481 2648 825 
Q 2906 1169 2906 1791 
z
M 3481 434 
Q 3481 -459 3084 -895 
Q 2688 -1331 1869 -1331 
Q 1566 -1331 1297 -1286 
Q 1028 -1241 775 -1147 
L 775 -588 
Q 1028 -725 1275 -790 
Q 1522 -856 1778 -856 
Q 2344 -856 2625 -561 
Q 2906 -266 2906 331 
L 2906 616 
Q 2728 306 2450 153 
Q 2172 0 1784 0 
Q 1141 0 747 490 
Q 353 981 353 1791 
Q 353 2603 747 3093 
Q 1141 3584 1784 3584 
Q 2172 3584 2450 3431 
Q 2728 3278 2906 2969 
L 2906 3500 
L 3481 3500 
L 3481 434 
z
" transform="scale(0.015625)"/>
       <path id="DejaVuSans-79" d="M 2059 -325 
Q 1816 -950 1584 -1140 
Q 1353 -1331 966 -1331 
L 506 -1331 
L 506 -850 
L 844 -850 
Q 1081 -850 1212 -737 
Q 1344 -625 1503 -206 
L 1606 56 
L 191 3500 
L 800 3500 
L 1894 763 
L 2988 3500 
L 3597 3500 
L 2059 -325 
z
" transform="scale(0.015625)"/>
       <path id="DejaVuSans-20" transform="scale(0.015625)"/>
       <path id="DejaVuSans-Oblique-45" d="M 1081 4666 
L 4031 4666 
L 3928 4134 
L 1606 4134 
L 1338 2753 
L 3566 2753 
L 3463 2222 
L 1234 2222 
L 909 531 
L 3284 531 
L 3181 0 
L 172 0 
L 1081 4666 
z
" transform="scale(0.015625)"/>
      </defs>
      <use xlink:href="#DejaVuSans-45" transform="translate(0 0.09375)"/>
      <use xlink:href="#DejaVuSans-6e" transform="translate(63.183594 0.09375)"/>
      <use xlink:href="#DejaVuSans-65" transform="translate(126.5625 0.09375)"/>
      <use xlink:href="#DejaVuSans-72" transform="translate(188.085938 0.09375)"/>
      <use xlink:href="#DejaVuSans-67" transform="translate(229.199219 0.09375)"/>
      <use xlink:href="#DejaVuSans-79" transform="translate(292.675781 0.09375)"/>
      <use xlink:href="#DejaVuSans-20" transform="translate(351.855469 0.09375)"/>
      <use xlink:href="#DejaVuSans-Oblique-45" transform="translate(383.642578 0.09375)"/>
     </g>
    </g>
   </g>
   <g id="line2d_37">
    <path d="M 69.218182 471.271447 
L 72.292562 456.593508 
L 75.366942 446.27075 
L 78.441322 486.249634 
L 81.515702 463.356403 
L 84.590083 483.893971 
L 87.664463 463.934668 
L 90.738843 497.913946 
L 93.813223 492.414179 
L 96.887603 453.909593 
L 99.961983 459.622081 
L 103.036364 489.305443 
L 106.110744 488.67181 
L 109.185124 467.221957 
L 112.259504 498.828101 
L 115.333884 455.076701 
L 118.408264 495.673617 
L 121.482645 486.248842 
L 124.557025 486.609101 
L 127.631405 481.478059 
L 130.705785 488.970032 
L 133.780165 461.883134 
L 136.854545 489.354601 
L 139.928926 449.553065 
L 143.003306 462.491796 
L 146.077686 470.665637 
L 149.152066 469.652513 
L 152.226446 479.272165 
L 155.300826 468.143075 
L 158.375207 487.183847 
L 161.449587 481.177486 
L 164.523967 465.585144 
L 167.598347 423.627817 
L 170.672727 446.024884 
L 173.747107 483.381336 
L 176.821488 501.255579 
L 179.895868 473.409431 
L 182.970248 445.68288 
L 186.044628 481.546894 
L 189.119008 497.227236 
L 192.193388 500.999383 
L 195.267769 480.795069 
L 198.342149 475.987037 
L 201.416529 494.459816 
L 204.490909 491.251197 
L 207.565289 478.035707 
L 210.639669 492.084556 
L 213.71405 497.785869 
L 216.78843 501.120603 
L 219.86281 501.260647 
L 222.93719 505.132303 
L 226.01157 505.691948 
L 229.08595 505.134594 
L 232.160331 505.018731 
L 235.234711 505.245167 
L 238.309091 505.552452 
L 241.383471 505.290498 
L 244.457851 504.517491 
L 247.532231 503.010357 
L 250.606612 501.245041 
L 253.680992 501.120313 
L 256.755372 500.423747 
L 259.829752 501.750165 
L 262.904132 502.293798 
L 265.978512 501.173758 
L 269.052893 503.44538 
L 272.127273 502.227188 
L 275.201653 503.921116 
L 278.276033 502.494883 
L 281.350413 503.220535 
L 284.424793 502.622629 
L 287.499174 502.21214 
L 290.573554 502.795747 
L 293.647934 501.24696 
L 296.722314 502.245356 
L 299.796694 500.709272 
L 302.871074 501.758709 
L 305.945455 501.152571 
L 309.019835 502.090294 
L 312.094215 502.202725 
L 315.168595 501.892157 
L 318.242975 501.434098 
L 321.317355 500.125041 
L 324.391736 499.229042 
L 327.466116 501.577489 
L 330.540496 501.706671 
L 333.614876 503.299784 
L 336.689256 502.069741 
L 339.763636 502.477015 
L 342.838017 501.284586 
L 345.912397 502.100278 
L 348.986777 501.977923 
L 352.061157 502.088512 
L 355.135537 501.870044 
L 358.209917 500.365321 
L 361.284298 499.046417 
L 364.358678 500.273159 
L 367.433058 500.503529 
L 370.507438 503.462706 
L 373.581818 502.740825 
" clip-path="url(#pc10632954c)" style="fill: none; stroke: #1f77b4; stroke-width: 1.5; stroke-linecap: square"/>
   </g>
   <g id="line2d_38">
    <path d="M 69.218182 359.943888 
L 72.292562 373.260668 
L 75.366942 390.178782 
L 78.441322 408.584067 
L 81.515702 425.453154 
L 84.590083 439.020779 
L 87.664463 449.442937 
L 90.738843 457.541527 
L 93.813223 463.918517 
L 96.887603 468.943895 
L 99.961983 472.909811 
L 103.036364 476.084574 
L 106.110744 478.710251 
L 109.185124 480.992624 
L 112.259504 483.095038 
L 115.333884 485.134694 
L 118.408264 487.179613 
L 121.482645 489.24746 
L 124.557025 491.310376 
L 127.631405 493.309806 
L 130.705785 495.179968 
L 133.780165 496.871235 
L 136.854545 498.363078 
L 139.928926 499.663025 
L 143.003306 500.796635 
L 146.077686 501.796107 
L 149.152066 502.692273 
L 152.226446 503.510759 
L 155.300826 504.271084 
L 158.375207 504.987201 
L 161.449587 505.668496 
L 164.523967 506.320745 
L 167.598347 506.946933 
L 170.672727 507.547941 
L 173.747107 508.12319 
L 176.821488 508.671283 
L 179.895868 509.190646 
L 182.970248 509.6801 
L 186.044628 510.139315 
L 189.119008 510.569062 
L 192.193388 510.971261 
L 195.267769 511.348837 
L 198.342149 511.705457 
L 201.416529 512.045221 
L 204.490909 512.372357 
L 207.565289 512.690982 
L 210.639669 513.004934 
L 213.71405 513.317672 
L 216.78843 513.632244 
L 219.86281 513.951286 
L 222.93719 514.277051 
L 226.01157 514.611445 
L 229.08595 514.956059 
L 232.160331 515.312189 
L 235.234711 515.680847 
L 238.309091 516.062737 
L 241.383471 516.45822 
L 244.457851 516.867258 
L 247.532231 517.289339 
L 250.606612 517.723401 
L 253.680992 518.16776 
L 256.755372 518.620065 
L 259.829752 519.077285 
L 262.904132 519.535764 
L 265.978512 519.991333 
L 269.052893 520.439488 
L 272.127273 520.875628 
L 275.201653 521.295326 
L 278.276033 521.69459 
L 281.350413 522.0701 
L 284.424793 522.419374 
L 287.499174 522.740852 
L 290.573554 523.033898 
L 293.647934 523.298714 
L 296.722314 523.536216 
L 299.796694 523.747861 
L 302.871074 523.935484 
L 305.945455 524.101136 
L 309.019835 524.246955 
L 312.094215 524.37506 
L 315.168595 524.487478 
L 318.242975 524.586096 
L 321.317355 524.672636 
L 324.391736 524.748643 
L 327.466116 524.815491 
L 330.540496 524.874385 
L 333.614876 524.926378 
L 336.689256 524.972384 
L 339.763636 525.013196 
L 342.838017 525.049497 
L 345.912397 525.081875 
L 348.986777 525.110838 
L 352.061157 525.136823 
L 355.135537 525.160206 
L 358.209917 525.18131 
L 361.284298 525.200413 
L 364.358678 525.217758 
L 367.433058 525.23355 
L 370.507438 525.247972 
L 373.581818 525.261176 
" clip-path="url(#pc10632954c)" style="fill: none; stroke: #ff7f0e; stroke-width: 1.5; stroke-linecap: square"/>
   </g>
   <g id="line2d_39">
    <path d="M 69.218182 350.73519 
L 72.292562 353.817818 
L 75.366942 357.129246 
L 78.441322 360.671566 
L 81.515702 364.442319 
L 84.590083 368.433711 
L 87.664463 372.632004 
L 90.738843 377.017183 
L 93.813223 381.563014 
L 96.887603 386.237541 
L 99.961983 391.004068 
L 103.036364 395.822557 
L 106.110744 400.651374 
L 109.185124 405.449179 
L 112.259504 410.176802 
L 115.333884 414.798898 
L 118.408264 419.285238 
L 121.482645 423.611532 
L 124.557025 427.759769 
L 127.631405 431.718105 
L 130.705785 435.480394 
L 133.780165 439.045461 
L 136.854545 442.416233 
L 139.928926 445.598833 
L 143.003306 448.601707 
L 146.077686 451.434842 
L 149.152066 454.109096 
L 152.226446 456.635665 
L 155.300826 459.025661 
L 158.375207 461.289812 
L 161.449587 463.438257 
L 164.523967 465.480413 
L 167.598347 467.424906 
L 170.672727 469.279556 
L 173.747107 471.051383 
L 176.821488 472.746646 
L 179.895868 474.37089 
L 182.970248 475.929012 
L 186.044628 477.425316 
L 189.119008 478.863585 
L 192.193388 480.247136 
L 195.267769 481.578887 
L 198.342149 482.861403 
L 201.416529 484.096954 
L 204.490909 485.287555 
L 207.565289 486.43501 
L 210.639669 487.540942 
L 213.71405 488.606829 
L 216.78843 489.634028 
L 219.86281 490.623796 
L 222.93719 491.577311 
L 226.01157 492.495687 
L 229.08595 493.379988 
L 232.160331 494.231236 
L 235.234711 495.050419 
L 238.309091 495.838504 
L 241.383471 496.596432 
L 244.457851 497.325129 
L 247.532231 498.025505 
L 250.606612 498.698458 
L 253.680992 499.344872 
L 256.755372 499.965621 
L 259.829752 500.561564 
L 262.904132 501.13355 
L 265.978512 501.682414 
L 269.052893 502.208978 
L 272.127273 502.714048 
L 275.201653 503.198417 
L 278.276033 503.66286 
L 281.350413 504.108136 
L 284.424793 504.534986 
L 287.499174 504.944134 
L 290.573554 505.336283 
L 293.647934 505.71212 
L 296.722314 506.072311 
L 299.796694 506.417502 
L 302.871074 506.748321 
L 305.945455 507.065374 
L 309.019835 507.36925 
L 312.094215 507.660515 
L 315.168595 507.939718 
L 318.242975 508.207389 
L 321.317355 508.464037 
L 324.391736 508.710154 
L 327.466116 508.946213 
L 330.540496 509.172668 
L 333.614876 509.389957 
L 336.689256 509.598502 
L 339.763636 509.798704 
L 342.838017 509.990953 
L 345.912397 510.17562 
L 348.986777 510.353062 
L 352.061157 510.523619 
L 355.135537 510.687621 
L 358.209917 510.845381 
L 361.284298 510.997199 
L 364.358678 511.143362 
L 367.433058 511.284146 
L 370.507438 511.419815 
L 373.581818 511.550619 
" clip-path="url(#pc10632954c)" style="fill: none; stroke: #2ca02c; stroke-width: 1.5; stroke-linecap: square"/>
   </g>
   <g id="line2d_40">
    <path d="M 69.218182 347.937638 
L 72.292562 348.048641 
L 75.366942 348.159874 
L 78.441322 348.271337 
L 81.515702 348.383028 
L 84.590083 348.494947 
L 87.664463 348.607092 
L 90.738843 348.719463 
L 93.813223 348.832058 
L 96.887603 348.944875 
L 99.961983 349.057915 
L 103.036364 349.171175 
L 106.110744 349.284655 
L 109.185124 349.398354 
L 112.259504 349.512269 
L 115.333884 349.626401 
L 118.408264 349.740747 
L 121.482645 349.855307 
L 124.557025 349.97008 
L 127.631405 350.085063 
L 130.705785 350.200257 
L 133.780165 350.315659 
L 136.854545 350.431269 
L 139.928926 350.547085 
L 143.003306 350.663106 
L 146.077686 350.779331 
L 149.152066 350.895758 
L 152.226446 351.012386 
L 155.300826 351.129214 
L 158.375207 351.246241 
L 161.449587 351.363465 
L 164.523967 351.480884 
L 167.598347 351.598499 
L 170.672727 351.716306 
L 173.747107 351.834306 
L 176.821488 351.952495 
L 179.895868 352.070875 
L 182.970248 352.189441 
L 186.044628 352.308195 
L 189.119008 352.427133 
L 192.193388 352.546255 
L 195.267769 352.66556 
L 198.342149 352.785045 
L 201.416529 352.90471 
L 204.490909 353.024553 
L 207.565289 353.144573 
L 210.639669 353.264768 
L 213.71405 353.385137 
L 216.78843 353.505678 
L 219.86281 353.626391 
L 222.93719 353.747272 
L 226.01157 353.868322 
L 229.08595 353.989539 
L 232.160331 354.110921 
L 235.234711 354.232466 
L 238.309091 354.354174 
L 241.383471 354.476043 
L 244.457851 354.598071 
L 247.532231 354.720257 
L 250.606612 354.842599 
L 253.680992 354.965096 
L 256.755372 355.087747 
L 259.829752 355.210549 
L 262.904132 355.333502 
L 265.978512 355.456604 
L 269.052893 355.579853 
L 272.127273 355.703249 
L 275.201653 355.826788 
L 278.276033 355.950471 
L 281.350413 356.074295 
L 284.424793 356.198258 
L 287.499174 356.32236 
L 290.573554 356.446599 
L 293.647934 356.570974 
L 296.722314 356.695482 
L 299.796694 356.820122 
L 302.871074 356.944893 
L 305.945455 357.069793 
L 309.019835 357.194821 
L 312.094215 357.319975 
L 315.168595 357.445254 
L 318.242975 357.570656 
L 321.317355 357.696179 
L 324.391736 357.821822 
L 327.466116 357.947584 
L 330.540496 358.073463 
L 333.614876 358.199457 
L 336.689256 358.325565 
L 339.763636 358.451786 
L 342.838017 358.578117 
L 345.912397 358.704558 
L 348.986777 358.831106 
L 352.061157 358.957761 
L 355.135537 359.08452 
L 358.209917 359.211382 
L 361.284298 359.338346 
L 364.358678 359.465411 
L 367.433058 359.592574 
L 370.507438 359.719834 
L 373.581818 359.847189 
" clip-path="url(#pc10632954c)" style="fill: none; stroke: #d62728; stroke-width: 1.5; stroke-linecap: square"/>
   </g>
   <g id="line2d_41">
    <path d="M 69.218182 347.378824 
L 72.292562 347.388195 
L 75.366942 347.397574 
L 78.441322 347.406961 
L 81.515702 347.416355 
L 84.590083 347.425757 
L 87.664463 347.435167 
L 90.738843 347.444584 
L 93.813223 347.454009 
L 96.887603 347.463442 
L 99.961983 347.472883 
L 103.036364 347.482331 
L 106.110744 347.491787 
L 109.185124 347.50125 
L 112.259504 347.510722 
L 115.333884 347.520201 
L 118.408264 347.529687 
L 121.482645 347.539182 
L 124.557025 347.548684 
L 127.631405 347.558194 
L 130.705785 347.567712 
L 133.780165 347.577237 
L 136.854545 347.586771 
L 139.928926 347.596312 
L 143.003306 347.60586 
L 146.077686 347.615417 
L 149.152066 347.624981 
L 152.226446 347.634553 
L 155.300826 347.644133 
L 158.375207 347.653721 
L 161.449587 347.663317 
L 164.523967 347.67292 
L 167.598347 347.682531 
L 170.672727 347.69215 
L 173.747107 347.701777 
L 176.821488 347.711412 
L 179.895868 347.721054 
L 182.970248 347.730704 
L 186.044628 347.740363 
L 189.119008 347.750029 
L 192.193388 347.759702 
L 195.267769 347.769384 
L 198.342149 347.779074 
L 201.416529 347.788771 
L 204.490909 347.798477 
L 207.565289 347.80819 
L 210.639669 347.817911 
L 213.71405 347.82764 
L 216.78843 347.837377 
L 219.86281 347.847122 
L 222.93719 347.856875 
L 226.01157 347.866636 
L 229.08595 347.876404 
L 232.160331 347.886181 
L 235.234711 347.895965 
L 238.309091 347.905758 
L 241.383471 347.915558 
L 244.457851 347.925366 
L 247.532231 347.935183 
L 250.606612 347.945007 
L 253.680992 347.954839 
L 256.755372 347.96468 
L 259.829752 347.974528 
L 262.904132 347.984384 
L 265.978512 347.994248 
L 269.052893 348.00412 
L 272.127273 348.014001 
L 275.201653 348.023889 
L 278.276033 348.033785 
L 281.350413 348.043689 
L 284.424793 348.053602 
L 287.499174 348.063522 
L 290.573554 348.07345 
L 293.647934 348.083387 
L 296.722314 348.093331 
L 299.796694 348.103284 
L 302.871074 348.113244 
L 305.945455 348.123213 
L 309.019835 348.133189 
L 312.094215 348.143174 
L 315.168595 348.153167 
L 318.242975 348.163168 
L 321.317355 348.173177 
L 324.391736 348.183194 
L 327.466116 348.193219 
L 330.540496 348.203253 
L 333.614876 348.213294 
L 336.689256 348.223344 
L 339.763636 348.233401 
L 342.838017 348.243467 
L 345.912397 348.253541 
L 348.986777 348.263623 
L 352.061157 348.273714 
L 355.135537 348.283812 
L 358.209917 348.293919 
L 361.284298 348.304033 
L 364.358678 348.314156 
L 367.433058 348.324287 
L 370.507438 348.334427 
L 373.581818 348.344574 
" clip-path="url(#pc10632954c)" style="fill: none; stroke: #9467bd; stroke-width: 1.5; stroke-linecap: square"/>
   </g>
   <g id="patch_9">
    <path d="M 54 534.155294 
L 54 338.484706 
" style="fill: none; stroke: #000000; stroke-width: 0.8; stroke-linejoin: miter; stroke-linecap: square"/>
   </g>
   <g id="patch_10">
    <path d="M 388.8 534.155294 
L 388.8 338.484706 
" style="fill: none; stroke: #000000; stroke-width: 0.8; stroke-linejoin: miter; stroke-linecap: square"/>
   </g>
   <g id="patch_11">
    <path d="M 54 534.155294 
L 388.8 534.155294 
" style="fill: none; stroke: #000000; stroke-width: 0.8; stroke-linejoin: miter; stroke-linecap: square"/>
   </g>
   <g id="patch_12">
    <path d="M 54 338.484706 
L 388.8 338.484706 
" style="fill: none; stroke: #000000; stroke-width: 0.8; stroke-linejoin: miter; stroke-linecap: square"/>
   </g>
  </g>
  <g id="axes_3">
   <g id="patch_13">
    <path d="M 54 768.96 
L 388.8 768.96 
L 388.8 573.289412 
L 54 573.289412 
z
" style="fill: #ffffff"/>
   </g>
   <g id="matplotlib.axis_5">
    <g id="xtick_13">
     <g id="line2d_42">
      <g>
       <use xlink:href="#m0b7687de36" x="69.218182" y="768.96" style="stroke: #000000; stroke-width: 0.8"/>
      </g>
     </g>
     <g id="text_34">
      <!-- 0 -->
      <g transform="translate(66.036932 783.558437)scale(0.1 -0.1)">
       <use xlink:href="#DejaVuSans-30"/>
      </g>
     </g>
    </g>
    <g id="xtick_14">
     <g id="line2d_43">
      <g>
       <use xlink:href="#m0b7687de36" x="130.705785" y="768.96" style="stroke: #000000; stroke-width: 0.8"/>
      </g>
     </g>
     <g id="text_35">
      <!-- 20 -->
      <g transform="translate(124.343285 783.558437)scale(0.1 -0.1)">
       <use xlink:href="#DejaVuSans-32"/>
       <use xlink:href="#DejaVuSans-30" x="63.623047"/>
      </g>
     </g>
    </g>
    <g id="xtick_15">
     <g id="line2d_44">
      <g>
       <use xlink:href="#m0b7687de36" x="192.193388" y="768.96" style="stroke: #000000; stroke-width: 0.8"/>
      </g>
     </g>
     <g id="text_36">
      <!-- 40 -->
      <g transform="translate(185.830888 783.558437)scale(0.1 -0.1)">
       <use xlink:href="#DejaVuSans-34"/>
       <use xlink:href="#DejaVuSans-30" x="63.623047"/>
      </g>
     </g>
    </g>
    <g id="xtick_16">
     <g id="line2d_45">
      <g>
       <use xlink:href="#m0b7687de36" x="253.680992" y="768.96" style="stroke: #000000; stroke-width: 0.8"/>
      </g>
     </g>
     <g id="text_37">
      <!-- 60 -->
      <g transform="translate(247.318492 783.558437)scale(0.1 -0.1)">
       <use xlink:href="#DejaVuSans-36"/>
       <use xlink:href="#DejaVuSans-30" x="63.623047"/>
      </g>
     </g>
    </g>
    <g id="xtick_17">
     <g id="line2d_46">
      <g>
       <use xlink:href="#m0b7687de36" x="315.168595" y="768.96" style="stroke: #000000; stroke-width: 0.8"/>
      </g>
     </g>
     <g id="text_38">
      <!-- 80 -->
      <g transform="translate(308.806095 783.558437)scale(0.1 -0.1)">
       <use xlink:href="#DejaVuSans-38"/>
       <use xlink:href="#DejaVuSans-30" x="63.623047"/>
      </g>
     </g>
    </g>
    <g id="xtick_18">
     <g id="line2d_47">
      <g>
       <use xlink:href="#m0b7687de36" x="376.656198" y="768.96" style="stroke: #000000; stroke-width: 0.8"/>
      </g>
     </g>
     <g id="text_39">
      <!-- 100 -->
      <g transform="translate(367.112448 783.558437)scale(0.1 -0.1)">
       <use xlink:href="#DejaVuSans-31"/>
       <use xlink:href="#DejaVuSans-30" x="63.623047"/>
       <use xlink:href="#DejaVuSans-30" x="127.246094"/>
      </g>
     </g>
    </g>
    <g id="text_40">
     <!-- Iterations -->
     <g transform="translate(197.586719 797.236562)scale(0.1 -0.1)">
      <defs>
       <path id="DejaVuSans-49" d="M 628 4666 
L 1259 4666 
L 1259 0 
L 628 0 
L 628 4666 
z
" transform="scale(0.015625)"/>
       <path id="DejaVuSans-74" d="M 1172 4494 
L 1172 3500 
L 2356 3500 
L 2356 3053 
L 1172 3053 
L 1172 1153 
Q 1172 725 1289 603 
Q 1406 481 1766 481 
L 2356 481 
L 2356 0 
L 1766 0 
Q 1100 0 847 248 
Q 594 497 594 1153 
L 594 3053 
L 172 3053 
L 172 3500 
L 594 3500 
L 594 4494 
L 1172 4494 
z
" transform="scale(0.015625)"/>
       <path id="DejaVuSans-61" d="M 2194 1759 
Q 1497 1759 1228 1600 
Q 959 1441 959 1056 
Q 959 750 1161 570 
Q 1363 391 1709 391 
Q 2188 391 2477 730 
Q 2766 1069 2766 1631 
L 2766 1759 
L 2194 1759 
z
M 3341 1997 
L 3341 0 
L 2766 0 
L 2766 531 
Q 2569 213 2275 61 
Q 1981 -91 1556 -91 
Q 1019 -91 701 211 
Q 384 513 384 1019 
Q 384 1609 779 1909 
Q 1175 2209 1959 2209 
L 2766 2209 
L 2766 2266 
Q 2766 2663 2505 2880 
Q 2244 3097 1772 3097 
Q 1472 3097 1187 3025 
Q 903 2953 641 2809 
L 641 3341 
Q 956 3463 1253 3523 
Q 1550 3584 1831 3584 
Q 2591 3584 2966 3190 
Q 3341 2797 3341 1997 
z
" transform="scale(0.015625)"/>
       <path id="DejaVuSans-69" d="M 603 3500 
L 1178 3500 
L 1178 0 
L 603 0 
L 603 3500 
z
M 603 4863 
L 1178 4863 
L 1178 4134 
L 603 4134 
L 603 4863 
z
" transform="scale(0.015625)"/>
       <path id="DejaVuSans-6f" d="M 1959 3097 
Q 1497 3097 1228 2736 
Q 959 2375 959 1747 
Q 959 1119 1226 758 
Q 1494 397 1959 397 
Q 2419 397 2687 759 
Q 2956 1122 2956 1747 
Q 2956 2369 2687 2733 
Q 2419 3097 1959 3097 
z
M 1959 3584 
Q 2709 3584 3137 3096 
Q 3566 2609 3566 1747 
Q 3566 888 3137 398 
Q 2709 -91 1959 -91 
Q 1206 -91 779 398 
Q 353 888 353 1747 
Q 353 2609 779 3096 
Q 1206 3584 1959 3584 
z
" transform="scale(0.015625)"/>
       <path id="DejaVuSans-73" d="M 2834 3397 
L 2834 2853 
Q 2591 2978 2328 3040 
Q 2066 3103 1784 3103 
Q 1356 3103 1142 2972 
Q 928 2841 928 2578 
Q 928 2378 1081 2264 
Q 1234 2150 1697 2047 
L 1894 2003 
Q 2506 1872 2764 1633 
Q 3022 1394 3022 966 
Q 3022 478 2636 193 
Q 2250 -91 1575 -91 
Q 1294 -91 989 -36 
Q 684 19 347 128 
L 347 722 
Q 666 556 975 473 
Q 1284 391 1588 391 
Q 1994 391 2212 530 
Q 2431 669 2431 922 
Q 2431 1156 2273 1281 
Q 2116 1406 1581 1522 
L 1381 1569 
Q 847 1681 609 1914 
Q 372 2147 372 2553 
Q 372 3047 722 3315 
Q 1072 3584 1716 3584 
Q 2034 3584 2315 3537 
Q 2597 3491 2834 3397 
z
" transform="scale(0.015625)"/>
      </defs>
      <use xlink:href="#DejaVuSans-49"/>
      <use xlink:href="#DejaVuSans-74" x="29.492188"/>
      <use xlink:href="#DejaVuSans-65" x="68.701172"/>
      <use xlink:href="#DejaVuSans-72" x="130.224609"/>
      <use xlink:href="#DejaVuSans-61" x="171.337891"/>
      <use xlink:href="#DejaVuSans-74" x="232.617188"/>
      <use xlink:href="#DejaVuSans-69" x="271.826172"/>
      <use xlink:href="#DejaVuSans-6f" x="299.609375"/>
      <use xlink:href="#DejaVuSans-6e" x="360.791016"/>
      <use xlink:href="#DejaVuSans-73" x="424.169922"/>
     </g>
    </g>
   </g>
   <g id="matplotlib.axis_6">
    <g id="ytick_15">
     <g id="line2d_48">
      <g>
       <use xlink:href="#mfd994bc35f" x="54" y="762.959177" style="stroke: #000000; stroke-width: 0.8"/>
      </g>
     </g>
     <g id="text_41">
      <!-- 0 -->
      <g transform="translate(40.6375 766.758396)scale(0.1 -0.1)">
       <use xlink:href="#DejaVuSans-30"/>
      </g>
     </g>
    </g>
    <g id="ytick_16">
     <g id="line2d_49">
      <g>
       <use xlink:href="#mfd994bc35f" x="54" y="734.43776" style="stroke: #000000; stroke-width: 0.8"/>
      </g>
     </g>
     <g id="text_42">
      <!-- 1 -->
      <g transform="translate(40.6375 738.236979)scale(0.1 -0.1)">
       <use xlink:href="#DejaVuSans-31"/>
      </g>
     </g>
    </g>
    <g id="ytick_17">
     <g id="line2d_50">
      <g>
       <use xlink:href="#mfd994bc35f" x="54" y="705.916344" style="stroke: #000000; stroke-width: 0.8"/>
      </g>
     </g>
     <g id="text_43">
      <!-- 2 -->
      <g transform="translate(40.6375 709.715562)scale(0.1 -0.1)">
       <use xlink:href="#DejaVuSans-32"/>
      </g>
     </g>
    </g>
    <g id="ytick_18">
     <g id="line2d_51">
      <g>
       <use xlink:href="#mfd994bc35f" x="54" y="677.394927" style="stroke: #000000; stroke-width: 0.8"/>
      </g>
     </g>
     <g id="text_44">
      <!-- 3 -->
      <g transform="translate(40.6375 681.194146)scale(0.1 -0.1)">
       <defs>
        <path id="DejaVuSans-33" d="M 2597 2516 
Q 3050 2419 3304 2112 
Q 3559 1806 3559 1356 
Q 3559 666 3084 287 
Q 2609 -91 1734 -91 
Q 1441 -91 1130 -33 
Q 819 25 488 141 
L 488 750 
Q 750 597 1062 519 
Q 1375 441 1716 441 
Q 2309 441 2620 675 
Q 2931 909 2931 1356 
Q 2931 1769 2642 2001 
Q 2353 2234 1838 2234 
L 1294 2234 
L 1294 2753 
L 1863 2753 
Q 2328 2753 2575 2939 
Q 2822 3125 2822 3475 
Q 2822 3834 2567 4026 
Q 2313 4219 1838 4219 
Q 1578 4219 1281 4162 
Q 984 4106 628 3988 
L 628 4550 
Q 988 4650 1302 4700 
Q 1616 4750 1894 4750 
Q 2613 4750 3031 4423 
Q 3450 4097 3450 3541 
Q 3450 3153 3228 2886 
Q 3006 2619 2597 2516 
z
" transform="scale(0.015625)"/>
       </defs>
       <use xlink:href="#DejaVuSans-33"/>
      </g>
     </g>
    </g>
    <g id="ytick_19">
     <g id="line2d_52">
      <g>
       <use xlink:href="#mfd994bc35f" x="54" y="648.87351" style="stroke: #000000; stroke-width: 0.8"/>
      </g>
     </g>
     <g id="text_45">
      <!-- 4 -->
      <g transform="translate(40.6375 652.672729)scale(0.1 -0.1)">
       <use xlink:href="#DejaVuSans-34"/>
      </g>
     </g>
    </g>
    <g id="ytick_20">
     <g id="line2d_53">
      <g>
       <use xlink:href="#mfd994bc35f" x="54" y="620.352093" style="stroke: #000000; stroke-width: 0.8"/>
      </g>
     </g>
     <g id="text_46">
      <!-- 5 -->
      <g transform="translate(40.6375 624.151312)scale(0.1 -0.1)">
       <defs>
        <path id="DejaVuSans-35" d="M 691 4666 
L 3169 4666 
L 3169 4134 
L 1269 4134 
L 1269 2991 
Q 1406 3038 1543 3061 
Q 1681 3084 1819 3084 
Q 2600 3084 3056 2656 
Q 3513 2228 3513 1497 
Q 3513 744 3044 326 
Q 2575 -91 1722 -91 
Q 1428 -91 1123 -41 
Q 819 9 494 109 
L 494 744 
Q 775 591 1075 516 
Q 1375 441 1709 441 
Q 2250 441 2565 725 
Q 2881 1009 2881 1497 
Q 2881 1984 2565 2268 
Q 2250 2553 1709 2553 
Q 1456 2553 1204 2497 
Q 953 2441 691 2322 
L 691 4666 
z
" transform="scale(0.015625)"/>
       </defs>
       <use xlink:href="#DejaVuSans-35"/>
      </g>
     </g>
    </g>
    <g id="ytick_21">
     <g id="line2d_54">
      <g>
       <use xlink:href="#mfd994bc35f" x="54" y="591.830677" style="stroke: #000000; stroke-width: 0.8"/>
      </g>
     </g>
     <g id="text_47">
      <!-- 6 -->
      <g transform="translate(40.6375 595.629895)scale(0.1 -0.1)">
       <use xlink:href="#DejaVuSans-36"/>
      </g>
     </g>
    </g>
    <g id="text_48">
     <!-- $\Vert \nabla_\theta E \Vert$ -->
     <g transform="translate(34.2375 684.974706)rotate(-90)scale(0.1 -0.1)">
      <defs>
       <path id="DejaVuSans-2016" d="M 1344 4891 
L 1344 -1509 
L 813 -1509 
L 813 4891 
L 1344 4891 
z
M 2376 4891 
L 2376 -1509 
L 1845 -1509 
L 1845 4891 
L 2376 4891 
z
" transform="scale(0.015625)"/>
       <path id="DejaVuSans-2207" d="M 2138 659 
L 3444 4047 
L 831 4047 
L 2138 659 
z
M 1791 0 
L -19 4603 
L 4300 4603 
L 2491 0 
L 1791 0 
z
" transform="scale(0.015625)"/>
       <path id="DejaVuSans-Oblique-3b8" d="M 2913 2219 
L 925 2219 
Q 791 1284 928 888 
Q 1100 400 1566 400 
Q 2034 400 2391 891 
Q 2703 1322 2913 2219 
z
M 3009 2750 
Q 3094 3638 2984 3950 
Q 2813 4444 2353 4444 
Q 1875 4444 1525 3956 
Q 1250 3563 1034 2750 
L 3009 2750 
z
M 2444 4913 
Q 3194 4913 3494 4250 
Q 3794 3591 3566 2422 
Q 3341 1256 2781 594 
Q 2225 -72 1475 -72 
Q 722 -72 425 594 
Q 128 1256 353 2422 
Q 581 3591 1134 4250 
Q 1691 4913 2444 4913 
z
" transform="scale(0.015625)"/>
      </defs>
      <use xlink:href="#DejaVuSans-2016" transform="translate(0 0.578125)"/>
      <use xlink:href="#DejaVuSans-2207" transform="translate(50 0.578125)"/>
      <use xlink:href="#DejaVuSans-Oblique-3b8" transform="translate(117.851562 -15.828125)scale(0.7)"/>
      <use xlink:href="#DejaVuSans-Oblique-45" transform="translate(163.413086 0.578125)"/>
      <use xlink:href="#DejaVuSans-2016" transform="translate(226.59668 0.578125)"/>
     </g>
    </g>
   </g>
   <g id="line2d_55">
    <path d="M 69.218182 708.595373 
L 72.292562 647.841558 
L 75.366942 694.166674 
L 78.441322 677.731757 
L 81.515702 675.608073 
L 84.590083 674.43887 
L 87.664463 683.989896 
L 90.738843 696.411649 
L 93.813223 665.608383 
L 96.887603 695.427339 
L 99.961983 677.406854 
L 103.036364 672.777156 
L 106.110744 683.354761 
L 109.185124 694.064328 
L 112.259504 674.044018 
L 115.333884 693.751393 
L 118.408264 695.688553 
L 121.482645 675.64055 
L 124.557025 669.54598 
L 127.631405 684.595634 
L 130.705785 672.616276 
L 133.780165 680.982099 
L 136.854545 668.948065 
L 139.928926 673.772285 
L 143.003306 647.18858 
L 146.077686 671.051945 
L 149.152066 693.506839 
L 152.226446 675.909644 
L 155.300826 673.669091 
L 158.375207 677.207865 
L 161.449587 670.549125 
L 164.523967 634.646591 
L 167.598347 661.738955 
L 170.672727 699.423991 
L 173.747107 707.675561 
L 176.821488 699.951717 
L 179.895868 639.880251 
L 182.970248 700.07058 
L 186.044628 714.347281 
L 189.119008 723.178657 
L 192.193388 706.670529 
L 195.267769 692.194525 
L 198.342149 680.072298 
L 201.416529 718.054091 
L 204.490909 699.258973 
L 207.565289 685.297163 
L 210.639669 731.189505 
L 213.71405 718.327585 
L 216.78843 716.864843 
L 219.86281 720.633164 
L 222.93719 729.61524 
L 226.01157 729.721999 
L 229.08595 728.273635 
L 232.160331 728.359083 
L 235.234711 729.399745 
L 238.309091 729.643432 
L 241.383471 727.997708 
L 244.457851 724.429092 
L 247.532231 719.388417 
L 250.606612 716.405172 
L 253.680992 714.869168 
L 256.755372 715.627467 
L 259.829752 718.275362 
L 262.904132 717.356983 
L 265.978512 719.176156 
L 269.052893 720.967348 
L 272.127273 721.844769 
L 275.201653 722.38142 
L 278.276033 721.301788 
L 281.350413 721.555837 
L 284.424793 719.964875 
L 287.499174 720.273255 
L 290.573554 718.873422 
L 293.647934 718.219253 
L 296.722314 717.639292 
L 299.796694 716.963412 
L 302.871074 717.415619 
L 305.945455 717.612967 
L 309.019835 719.023574 
L 312.094215 718.789193 
L 315.168595 717.988824 
L 318.242975 715.882049 
L 321.317355 712.625402 
L 324.391736 714.137089 
L 327.466116 717.584383 
L 330.540496 720.360264 
L 333.614876 721.217985 
L 336.689256 720.124897 
L 339.763636 718.85512 
L 342.838017 717.984272 
L 345.912397 718.700209 
L 348.986777 718.536322 
L 352.061157 718.600091 
L 355.135537 716.687639 
L 358.209917 713.069469 
L 361.284298 712.398797 
L 364.358678 713.880722 
L 367.433058 718.658072 
L 370.507438 722.428439 
L 373.581818 722.019439 
" clip-path="url(#p238a2c6c40)" style="fill: none; stroke: #1f77b4; stroke-width: 1.5; stroke-linecap: square"/>
   </g>
   <g id="line2d_56">
    <path d="M 69.218182 671.610284 
L 72.292562 658.058428 
L 75.366942 651.045702 
L 78.441322 653.645166 
L 81.515702 663.934805 
L 84.590083 676.178841 
L 87.664463 686.66472 
L 90.738843 695.315742 
L 93.813223 702.910545 
L 96.887603 709.664075 
L 99.961983 715.412026 
L 103.036364 719.939056 
L 106.110744 723.121935 
L 109.185124 724.99237 
L 112.259504 725.764807 
L 115.333884 725.81125 
L 118.408264 725.584657 
L 121.482645 725.520949 
L 124.557025 725.945353 
L 127.631405 727.003264 
L 130.705785 728.641847 
L 133.780165 730.657696 
L 136.854545 732.789919 
L 139.928926 734.810992 
L 143.003306 736.577406 
L 146.077686 738.03428 
L 149.152066 739.191828 
L 152.226446 740.095414 
L 155.300826 740.802399 
L 158.375207 741.369115 
L 161.449587 741.84559 
L 164.523967 742.274284 
L 167.598347 742.689988 
L 170.672727 743.1195 
L 173.747107 743.580826 
L 176.821488 744.082308 
L 179.895868 744.622309 
L 182.970248 745.189918 
L 186.044628 745.766869 
L 189.119008 746.330459 
L 192.193388 746.856951 
L 195.267769 747.324854 
L 198.342149 747.717464 
L 201.416529 748.024314 
L 204.490909 748.241424 
L 207.565289 748.370529 
L 210.639669 748.417676 
L 213.71405 748.391606 
L 216.78843 748.30229 
L 219.86281 748.15983 
L 222.93719 747.973785 
L 226.01157 747.752909 
L 229.08595 747.505176 
L 232.160331 747.238031 
L 235.234711 746.95874 
L 238.309091 746.674792 
L 241.383471 746.39426 
L 244.457851 746.12608 
L 247.532231 745.880192 
L 250.606612 745.667491 
L 253.680992 745.499578 
L 256.755372 745.388278 
L 259.829752 745.344968 
L 262.904132 745.379748 
L 265.978512 745.500567 
L 269.052893 745.712405 
L 272.127273 746.01664 
L 275.201653 746.410722 
L 278.276033 746.888218 
L 281.350413 747.439239 
L 284.424793 748.051208 
L 287.499174 748.709842 
L 290.573554 749.400212 
L 293.647934 750.107746 
L 296.722314 750.81905 
L 299.796694 751.522487 
L 302.871074 752.208495 
L 305.945455 752.869676 
L 309.019835 753.500694 
L 312.094215 754.098051 
L 315.168595 754.659807 
L 318.242975 755.185267 
L 321.317355 755.674694 
L 324.391736 756.129047 
L 327.466116 756.549766 
L 330.540496 756.9386 
L 333.614876 757.297468 
L 336.689256 757.628369 
L 339.763636 757.933303 
L 342.838017 758.214227 
L 345.912397 758.473025 
L 348.986777 758.711481 
L 352.061157 758.931277 
L 355.135537 759.133986 
L 358.209917 759.321066 
L 361.284298 759.493872 
L 364.358678 759.653652 
L 367.433058 759.801557 
L 370.507438 759.938644 
L 373.581818 760.065882 
" clip-path="url(#p238a2c6c40)" style="fill: none; stroke: #ff7f0e; stroke-width: 1.5; stroke-linecap: square"/>
   </g>
   <g id="line2d_57">
    <path d="M 69.218182 619.901045 
L 72.292562 614.61347 
L 75.366942 609.439037 
L 78.441322 604.459231 
L 81.515702 599.76309 
L 84.590083 595.444345 
L 87.664463 591.597559 
L 90.738843 588.313378 
L 93.813223 585.673231 
L 96.887603 583.743922 
L 99.961983 582.572718 
L 103.036364 582.183529 
L 106.110744 582.574727 
L 109.185124 583.718929 
L 112.259504 585.564821 
L 115.333884 588.040808 
L 118.408264 591.060007 
L 121.482645 594.525968 
L 124.557025 598.338489 
L 127.631405 602.398927 
L 130.705785 606.614612 
L 133.780165 610.902134 
L 136.854545 615.189445 
L 139.928926 619.416878 
L 143.003306 623.537238 
L 146.077686 627.515209 
L 149.152066 631.326264 
L 152.226446 634.955306 
L 155.300826 638.395166 
L 158.375207 641.645115 
L 161.449587 644.709444 
L 164.523967 647.596184 
L 167.598347 650.315992 
L 170.672727 652.881202 
L 173.747107 655.305056 
L 176.821488 657.601087 
L 179.895868 659.782649 
L 182.970248 661.862564 
L 186.044628 663.852877 
L 189.119008 665.764702 
L 192.193388 667.608122 
L 195.267769 669.39216 
L 198.342149 671.124774 
L 201.416529 672.812897 
L 204.490909 674.462485 
L 207.565289 676.078586 
L 210.639669 677.665419 
L 213.71405 679.226448 
L 216.78843 680.76447 
L 219.86281 682.281687 
L 222.93719 683.779788 
L 226.01157 685.260015 
L 229.08595 686.723235 
L 232.160331 688.169996 
L 235.234711 689.600584 
L 238.309091 691.015073 
L 241.383471 692.413367 
L 244.457851 693.79524 
L 247.532231 695.160368 
L 250.606612 696.508358 
L 253.680992 697.838773 
L 256.755372 699.151152 
L 259.829752 700.445023 
L 262.904132 701.719924 
L 265.978512 702.975407 
L 269.052893 704.21105 
L 272.127273 705.426461 
L 275.201653 706.621285 
L 278.276033 707.795205 
L 281.350413 708.947943 
L 284.424793 710.079262 
L 287.499174 711.188967 
L 290.573554 712.276901 
L 293.647934 713.342946 
L 296.722314 714.387021 
L 299.796694 715.409078 
L 302.871074 716.409104 
L 305.945455 717.387113 
L 309.019835 718.343151 
L 312.094215 719.277286 
L 315.168595 720.189611 
L 318.242975 721.080242 
L 321.317355 721.949313 
L 324.391736 722.796975 
L 327.466116 723.623395 
L 330.540496 724.428756 
L 333.614876 725.213253 
L 336.689256 725.97709 
L 339.763636 726.720484 
L 342.838017 727.443659 
L 345.912397 728.146849 
L 348.986777 728.830293 
L 352.061157 729.494236 
L 355.135537 730.138931 
L 358.209917 730.764632 
L 361.284298 731.371602 
L 364.358678 731.960104 
L 367.433058 732.530405 
L 370.507438 733.082776 
L 373.581818 733.617491 
" clip-path="url(#p238a2c6c40)" style="fill: none; stroke: #2ca02c; stroke-width: 1.5; stroke-linecap: square"/>
   </g>
   <g id="line2d_58">
    <path d="M 69.218182 676.340647 
L 72.292562 676.250516 
L 75.366942 676.160896 
L 78.441322 676.071789 
L 81.515702 675.983197 
L 84.590083 675.895123 
L 87.664463 675.807569 
L 90.738843 675.720537 
L 93.813223 675.634029 
L 96.887603 675.548047 
L 99.961983 675.462593 
L 103.036364 675.377669 
L 106.110744 675.293278 
L 109.185124 675.209421 
L 112.259504 675.1261 
L 115.333884 675.043317 
L 118.408264 674.961073 
L 121.482645 674.879372 
L 124.557025 674.798215 
L 127.631405 674.717602 
L 130.705785 674.637537 
L 133.780165 674.558021 
L 136.854545 674.479056 
L 139.928926 674.400643 
L 143.003306 674.322783 
L 146.077686 674.24548 
L 149.152066 674.168733 
L 152.226446 674.092545 
L 155.300826 674.016917 
L 158.375207 673.941851 
L 161.449587 673.867348 
L 164.523967 673.79341 
L 167.598347 673.720037 
L 170.672727 673.647231 
L 173.747107 673.574994 
L 176.821488 673.503327 
L 179.895868 673.432231 
L 182.970248 673.361706 
L 186.044628 673.291756 
L 189.119008 673.222379 
L 192.193388 673.153578 
L 195.267769 673.085354 
L 198.342149 673.017707 
L 201.416529 672.950639 
L 204.490909 672.884151 
L 207.565289 672.818242 
L 210.639669 672.752915 
L 213.71405 672.68817 
L 216.78843 672.624008 
L 219.86281 672.560429 
L 222.93719 672.497435 
L 226.01157 672.435026 
L 229.08595 672.373202 
L 232.160331 672.311964 
L 235.234711 672.251312 
L 238.309091 672.191248 
L 241.383471 672.131772 
L 244.457851 672.072883 
L 247.532231 672.014583 
L 250.606612 671.956872 
L 253.680992 671.899749 
L 256.755372 671.843216 
L 259.829752 671.787272 
L 262.904132 671.731917 
L 265.978512 671.677152 
L 269.052893 671.622977 
L 272.127273 671.569392 
L 275.201653 671.516396 
L 278.276033 671.46399 
L 281.350413 671.412174 
L 284.424793 671.360947 
L 287.499174 671.310309 
L 290.573554 671.26026 
L 293.647934 671.2108 
L 296.722314 671.161928 
L 299.796694 671.113645 
L 302.871074 671.065948 
L 305.945455 671.018839 
L 309.019835 670.972316 
L 312.094215 670.926379 
L 315.168595 670.881028 
L 318.242975 670.836261 
L 321.317355 670.792078 
L 324.391736 670.748479 
L 327.466116 670.705462 
L 330.540496 670.663026 
L 333.614876 670.621171 
L 336.689256 670.579897 
L 339.763636 670.5392 
L 342.838017 670.499082 
L 345.912397 670.45954 
L 348.986777 670.420574 
L 352.061157 670.382182 
L 355.135537 670.344363 
L 358.209917 670.307116 
L 361.284298 670.27044 
L 364.358678 670.234332 
L 367.433058 670.198793 
L 370.507438 670.16382 
L 373.581818 670.129411 
" clip-path="url(#p238a2c6c40)" style="fill: none; stroke: #d62728; stroke-width: 1.5; stroke-linecap: square"/>
   </g>
   <g id="line2d_59">
    <path d="M 69.218182 683.358618 
L 72.292562 683.326131 
L 75.366942 683.293634 
L 78.441322 683.261127 
L 81.515702 683.228611 
L 84.590083 683.196084 
L 87.664463 683.163547 
L 90.738843 683.131 
L 93.813223 683.098443 
L 96.887603 683.065876 
L 99.961983 683.033299 
L 103.036364 683.000712 
L 106.110744 682.968115 
L 109.185124 682.935508 
L 112.259504 682.902891 
L 115.333884 682.870264 
L 118.408264 682.837627 
L 121.482645 682.80498 
L 124.557025 682.772324 
L 127.631405 682.739657 
L 130.705785 682.70698 
L 133.780165 682.674294 
L 136.854545 682.641597 
L 139.928926 682.608891 
L 143.003306 682.576174 
L 146.077686 682.543448 
L 149.152066 682.510712 
L 152.226446 682.477966 
L 155.300826 682.44521 
L 158.375207 682.412444 
L 161.449587 682.379669 
L 164.523967 682.346883 
L 167.598347 682.314088 
L 170.672727 682.281283 
L 173.747107 682.248468 
L 176.821488 682.215643 
L 179.895868 682.182808 
L 182.970248 682.149964 
L 186.044628 682.117109 
L 189.119008 682.084245 
L 192.193388 682.051371 
L 195.267769 682.018488 
L 198.342149 681.985594 
L 201.416529 681.952691 
L 204.490909 681.919778 
L 207.565289 681.886855 
L 210.639669 681.853922 
L 213.71405 681.82098 
L 216.78843 681.788028 
L 219.86281 681.755066 
L 222.93719 681.722095 
L 226.01157 681.689114 
L 229.08595 681.656123 
L 232.160331 681.623122 
L 235.234711 681.590112 
L 238.309091 681.557092 
L 241.383471 681.524062 
L 244.457851 681.491023 
L 247.532231 681.457974 
L 250.606612 681.424915 
L 253.680992 681.391847 
L 256.755372 681.358769 
L 259.829752 681.325682 
L 262.904132 681.292584 
L 265.978512 681.259478 
L 269.052893 681.226361 
L 272.127273 681.193235 
L 275.201653 681.1601 
L 278.276033 681.126955 
L 281.350413 681.0938 
L 284.424793 681.060635 
L 287.499174 681.027462 
L 290.573554 680.994278 
L 293.647934 680.961085 
L 296.722314 680.927883 
L 299.796694 680.894671 
L 302.871074 680.861449 
L 305.945455 680.828218 
L 309.019835 680.794977 
L 312.094215 680.761727 
L 315.168595 680.728468 
L 318.242975 680.695199 
L 321.317355 680.66192 
L 324.391736 680.628632 
L 327.466116 680.595335 
L 330.540496 680.562028 
L 333.614876 680.528711 
L 336.689256 680.495386 
L 339.763636 680.462051 
L 342.838017 680.428706 
L 345.912397 680.395352 
L 348.986777 680.361988 
L 352.061157 680.328616 
L 355.135537 680.295233 
L 358.209917 680.261842 
L 361.284298 680.228441 
L 364.358678 680.195031 
L 367.433058 680.161611 
L 370.507438 680.128182 
L 373.581818 680.094744 
" clip-path="url(#p238a2c6c40)" style="fill: none; stroke: #9467bd; stroke-width: 1.5; stroke-linecap: square"/>
   </g>
   <g id="patch_14">
    <path d="M 54 768.96 
L 54 573.289412 
" style="fill: none; stroke: #000000; stroke-width: 0.8; stroke-linejoin: miter; stroke-linecap: square"/>
   </g>
   <g id="patch_15">
    <path d="M 388.8 768.96 
L 388.8 573.289412 
" style="fill: none; stroke: #000000; stroke-width: 0.8; stroke-linejoin: miter; stroke-linecap: square"/>
   </g>
   <g id="patch_16">
    <path d="M 54 768.96 
L 388.8 768.96 
" style="fill: none; stroke: #000000; stroke-width: 0.8; stroke-linejoin: miter; stroke-linecap: square"/>
   </g>
   <g id="patch_17">
    <path d="M 54 573.289412 
L 388.8 573.289412 
" style="fill: none; stroke: #000000; stroke-width: 0.8; stroke-linejoin: miter; stroke-linecap: square"/>
   </g>
  </g>
 </g>
 <defs>
  <clipPath id="p2e2161686c">
   <rect x="54" y="103.68" width="334.8" height="195.670588"/>
  </clipPath>
  <clipPath id="pc10632954c">
   <rect x="54" y="338.484706" width="334.8" height="195.670588"/>
  </clipPath>
  <clipPath id="p238a2c6c40">
   <rect x="54" y="573.289412" width="334.8" height="195.670588"/>
  </clipPath>
 </defs>
</svg>
