<?xml version="1.0" encoding="utf-8" standalone="no"?>
<!DOCTYPE svg PUBLIC "-//W3C//DTD SVG 1.1//EN"
  "http://www.w3.org/Graphics/SVG/1.1/DTD/svg11.dtd">
<svg height="864pt" version="1.1" viewBox="0 0 432 864" width="432pt" xmlns="http://www.w3.org/2000/svg" xmlns:xlink="http://www.w3.org/1999/xlink">
 <metadata>
  <rdf:RDF xmlns:cc="http://creativecommons.org/ns#" xmlns:dc="http://purl.org/dc/elements/1.1/" xmlns:rdf="http://www.w3.org/1999/02/22-rdf-syntax-ns#">
   <cc:Work>
    <dc:type rdf:resource="http://purl.org/dc/dcmitype/StillImage"/>
    <dc:date>2023-01-14T08:36:43.189832</dc:date>
    <dc:format>image/svg+xml</dc:format>
    <dc:creator>
     <cc:Agent>
      <dc:title>Matplotlib v3.4.3, https://matplotlib.org/</dc:title>
     </cc:Agent>
    </dc:creator>
   </cc:Work>
  </rdf:RDF>
 </metadata>
 <defs>
  <style type="text/css">*{stroke-linecap:butt;stroke-linejoin:round;}</style>
 </defs>
 <g id="figure_1">
  <g id="patch_1">
   <path d="M 0 864 
L 432 864 
L 432 0 
L 0 0 
z
" style="fill:#ffffff;"/>
  </g>
  <g id="axes_1">
   <g id="patch_2">
    <path d="M 54 299.350588 
L 388.8 299.350588 
L 388.8 103.68 
L 54 103.68 
z
" style="fill:#ffffff;"/>
   </g>
   <g id="matplotlib.axis_1">
    <g id="xtick_1">
     <g id="line2d_1">
      <defs>
       <path d="M 0 0 
L 0 3.5 
" id="m52db903ee0" style="stroke:#000000;stroke-width:0.8;"/>
      </defs>
      <g>
       <use style="stroke:#000000;stroke-width:0.8;" x="69.218182" xlink:href="#m52db903ee0" y="299.350588"/>
      </g>
     </g>
     <g id="text_1">
      <!-- 0 -->
      <g transform="translate(66.036932 313.949026)scale(0.1 -0.1)">
       <defs>
        <path d="M 2034 4250 
Q 1547 4250 1301 3770 
Q 1056 3291 1056 2328 
Q 1056 1369 1301 889 
Q 1547 409 2034 409 
Q 2525 409 2770 889 
Q 3016 1369 3016 2328 
Q 3016 3291 2770 3770 
Q 2525 4250 2034 4250 
z
M 2034 4750 
Q 2819 4750 3233 4129 
Q 3647 3509 3647 2328 
Q 3647 1150 3233 529 
Q 2819 -91 2034 -91 
Q 1250 -91 836 529 
Q 422 1150 422 2328 
Q 422 3509 836 4129 
Q 1250 4750 2034 4750 
z
" id="DejaVuSans-30" transform="scale(0.015625)"/>
       </defs>
       <use xlink:href="#DejaVuSans-30"/>
      </g>
     </g>
    </g>
    <g id="xtick_2">
     <g id="line2d_2">
      <g>
       <use style="stroke:#000000;stroke-width:0.8;" x="130.705785" xlink:href="#m52db903ee0" y="299.350588"/>
      </g>
     </g>
     <g id="text_2">
      <!-- 20 -->
      <g transform="translate(124.343285 313.949026)scale(0.1 -0.1)">
       <defs>
        <path d="M 1228 531 
L 3431 531 
L 3431 0 
L 469 0 
L 469 531 
Q 828 903 1448 1529 
Q 2069 2156 2228 2338 
Q 2531 2678 2651 2914 
Q 2772 3150 2772 3378 
Q 2772 3750 2511 3984 
Q 2250 4219 1831 4219 
Q 1534 4219 1204 4116 
Q 875 4013 500 3803 
L 500 4441 
Q 881 4594 1212 4672 
Q 1544 4750 1819 4750 
Q 2544 4750 2975 4387 
Q 3406 4025 3406 3419 
Q 3406 3131 3298 2873 
Q 3191 2616 2906 2266 
Q 2828 2175 2409 1742 
Q 1991 1309 1228 531 
z
" id="DejaVuSans-32" transform="scale(0.015625)"/>
       </defs>
       <use xlink:href="#DejaVuSans-32"/>
       <use x="63.623047" xlink:href="#DejaVuSans-30"/>
      </g>
     </g>
    </g>
    <g id="xtick_3">
     <g id="line2d_3">
      <g>
       <use style="stroke:#000000;stroke-width:0.8;" x="192.193388" xlink:href="#m52db903ee0" y="299.350588"/>
      </g>
     </g>
     <g id="text_3">
      <!-- 40 -->
      <g transform="translate(185.830888 313.949026)scale(0.1 -0.1)">
       <defs>
        <path d="M 2419 4116 
L 825 1625 
L 2419 1625 
L 2419 4116 
z
M 2253 4666 
L 3047 4666 
L 3047 1625 
L 3713 1625 
L 3713 1100 
L 3047 1100 
L 3047 0 
L 2419 0 
L 2419 1100 
L 313 1100 
L 313 1709 
L 2253 4666 
z
" id="DejaVuSans-34" transform="scale(0.015625)"/>
       </defs>
       <use xlink:href="#DejaVuSans-34"/>
       <use x="63.623047" xlink:href="#DejaVuSans-30"/>
      </g>
     </g>
    </g>
    <g id="xtick_4">
     <g id="line2d_4">
      <g>
       <use style="stroke:#000000;stroke-width:0.8;" x="253.680992" xlink:href="#m52db903ee0" y="299.350588"/>
      </g>
     </g>
     <g id="text_4">
      <!-- 60 -->
      <g transform="translate(247.318492 313.949026)scale(0.1 -0.1)">
       <defs>
        <path d="M 2113 2584 
Q 1688 2584 1439 2293 
Q 1191 2003 1191 1497 
Q 1191 994 1439 701 
Q 1688 409 2113 409 
Q 2538 409 2786 701 
Q 3034 994 3034 1497 
Q 3034 2003 2786 2293 
Q 2538 2584 2113 2584 
z
M 3366 4563 
L 3366 3988 
Q 3128 4100 2886 4159 
Q 2644 4219 2406 4219 
Q 1781 4219 1451 3797 
Q 1122 3375 1075 2522 
Q 1259 2794 1537 2939 
Q 1816 3084 2150 3084 
Q 2853 3084 3261 2657 
Q 3669 2231 3669 1497 
Q 3669 778 3244 343 
Q 2819 -91 2113 -91 
Q 1303 -91 875 529 
Q 447 1150 447 2328 
Q 447 3434 972 4092 
Q 1497 4750 2381 4750 
Q 2619 4750 2861 4703 
Q 3103 4656 3366 4563 
z
" id="DejaVuSans-36" transform="scale(0.015625)"/>
       </defs>
       <use xlink:href="#DejaVuSans-36"/>
       <use x="63.623047" xlink:href="#DejaVuSans-30"/>
      </g>
     </g>
    </g>
    <g id="xtick_5">
     <g id="line2d_5">
      <g>
       <use style="stroke:#000000;stroke-width:0.8;" x="315.168595" xlink:href="#m52db903ee0" y="299.350588"/>
      </g>
     </g>
     <g id="text_5">
      <!-- 80 -->
      <g transform="translate(308.806095 313.949026)scale(0.1 -0.1)">
       <defs>
        <path d="M 2034 2216 
Q 1584 2216 1326 1975 
Q 1069 1734 1069 1313 
Q 1069 891 1326 650 
Q 1584 409 2034 409 
Q 2484 409 2743 651 
Q 3003 894 3003 1313 
Q 3003 1734 2745 1975 
Q 2488 2216 2034 2216 
z
M 1403 2484 
Q 997 2584 770 2862 
Q 544 3141 544 3541 
Q 544 4100 942 4425 
Q 1341 4750 2034 4750 
Q 2731 4750 3128 4425 
Q 3525 4100 3525 3541 
Q 3525 3141 3298 2862 
Q 3072 2584 2669 2484 
Q 3125 2378 3379 2068 
Q 3634 1759 3634 1313 
Q 3634 634 3220 271 
Q 2806 -91 2034 -91 
Q 1263 -91 848 271 
Q 434 634 434 1313 
Q 434 1759 690 2068 
Q 947 2378 1403 2484 
z
M 1172 3481 
Q 1172 3119 1398 2916 
Q 1625 2713 2034 2713 
Q 2441 2713 2670 2916 
Q 2900 3119 2900 3481 
Q 2900 3844 2670 4047 
Q 2441 4250 2034 4250 
Q 1625 4250 1398 4047 
Q 1172 3844 1172 3481 
z
" id="DejaVuSans-38" transform="scale(0.015625)"/>
       </defs>
       <use xlink:href="#DejaVuSans-38"/>
       <use x="63.623047" xlink:href="#DejaVuSans-30"/>
      </g>
     </g>
    </g>
    <g id="xtick_6">
     <g id="line2d_6">
      <g>
       <use style="stroke:#000000;stroke-width:0.8;" x="376.656198" xlink:href="#m52db903ee0" y="299.350588"/>
      </g>
     </g>
     <g id="text_6">
      <!-- 100 -->
      <g transform="translate(367.112448 313.949026)scale(0.1 -0.1)">
       <defs>
        <path d="M 794 531 
L 1825 531 
L 1825 4091 
L 703 3866 
L 703 4441 
L 1819 4666 
L 2450 4666 
L 2450 531 
L 3481 531 
L 3481 0 
L 794 0 
L 794 531 
z
" id="DejaVuSans-31" transform="scale(0.015625)"/>
       </defs>
       <use xlink:href="#DejaVuSans-31"/>
       <use x="63.623047" xlink:href="#DejaVuSans-30"/>
       <use x="127.246094" xlink:href="#DejaVuSans-30"/>
      </g>
     </g>
    </g>
   </g>
   <g id="matplotlib.axis_2">
    <g id="ytick_1">
     <g id="line2d_7">
      <defs>
       <path d="M 0 0 
L -3.5 0 
" id="m1c1f44dfc3" style="stroke:#000000;stroke-width:0.8;"/>
      </defs>
      <g>
       <use style="stroke:#000000;stroke-width:0.8;" x="54" xlink:href="#m1c1f44dfc3" y="299.350588"/>
      </g>
     </g>
     <g id="text_7">
      <!-- 0.0 -->
      <g transform="translate(31.096875 303.149807)scale(0.1 -0.1)">
       <defs>
        <path d="M 684 794 
L 1344 794 
L 1344 0 
L 684 0 
L 684 794 
z
" id="DejaVuSans-2e" transform="scale(0.015625)"/>
       </defs>
       <use xlink:href="#DejaVuSans-30"/>
       <use x="63.623047" xlink:href="#DejaVuSans-2e"/>
       <use x="95.410156" xlink:href="#DejaVuSans-30"/>
      </g>
     </g>
    </g>
    <g id="ytick_2">
     <g id="line2d_8">
      <g>
       <use style="stroke:#000000;stroke-width:0.8;" x="54" xlink:href="#m1c1f44dfc3" y="260.216471"/>
      </g>
     </g>
     <g id="text_8">
      <!-- 0.2 -->
      <g transform="translate(31.096875 264.015689)scale(0.1 -0.1)">
       <use xlink:href="#DejaVuSans-30"/>
       <use x="63.623047" xlink:href="#DejaVuSans-2e"/>
       <use x="95.410156" xlink:href="#DejaVuSans-32"/>
      </g>
     </g>
    </g>
    <g id="ytick_3">
     <g id="line2d_9">
      <g>
       <use style="stroke:#000000;stroke-width:0.8;" x="54" xlink:href="#m1c1f44dfc3" y="221.082353"/>
      </g>
     </g>
     <g id="text_9">
      <!-- 0.4 -->
      <g transform="translate(31.096875 224.881572)scale(0.1 -0.1)">
       <use xlink:href="#DejaVuSans-30"/>
       <use x="63.623047" xlink:href="#DejaVuSans-2e"/>
       <use x="95.410156" xlink:href="#DejaVuSans-34"/>
      </g>
     </g>
    </g>
    <g id="ytick_4">
     <g id="line2d_10">
      <g>
       <use style="stroke:#000000;stroke-width:0.8;" x="54" xlink:href="#m1c1f44dfc3" y="181.948235"/>
      </g>
     </g>
     <g id="text_10">
      <!-- 0.6 -->
      <g transform="translate(31.096875 185.747454)scale(0.1 -0.1)">
       <use xlink:href="#DejaVuSans-30"/>
       <use x="63.623047" xlink:href="#DejaVuSans-2e"/>
       <use x="95.410156" xlink:href="#DejaVuSans-36"/>
      </g>
     </g>
    </g>
    <g id="ytick_5">
     <g id="line2d_11">
      <g>
       <use style="stroke:#000000;stroke-width:0.8;" x="54" xlink:href="#m1c1f44dfc3" y="142.814118"/>
      </g>
     </g>
     <g id="text_11">
      <!-- 0.8 -->
      <g transform="translate(31.096875 146.613336)scale(0.1 -0.1)">
       <use xlink:href="#DejaVuSans-30"/>
       <use x="63.623047" xlink:href="#DejaVuSans-2e"/>
       <use x="95.410156" xlink:href="#DejaVuSans-38"/>
      </g>
     </g>
    </g>
    <g id="ytick_6">
     <g id="line2d_12">
      <g>
       <use style="stroke:#000000;stroke-width:0.8;" x="54" xlink:href="#m1c1f44dfc3" y="103.68"/>
      </g>
     </g>
     <g id="text_12">
      <!-- 1.0 -->
      <g transform="translate(31.096875 107.479219)scale(0.1 -0.1)">
       <use xlink:href="#DejaVuSans-31"/>
       <use x="63.623047" xlink:href="#DejaVuSans-2e"/>
       <use x="95.410156" xlink:href="#DejaVuSans-30"/>
      </g>
     </g>
    </g>
    <g id="text_13">
     <!-- $S_2 / S_{page}$ -->
     <g transform="translate(23.996875 220.815294)rotate(-90)scale(0.1 -0.1)">
      <defs>
       <path d="M 3859 4513 
L 3738 3897 
Q 3422 4066 3111 4152 
Q 2800 4238 2509 4238 
Q 1944 4238 1609 3991 
Q 1275 3744 1275 3334 
Q 1275 3109 1398 2989 
Q 1522 2869 2034 2731 
L 2413 2638 
Q 3053 2472 3303 2217 
Q 3553 1963 3553 1503 
Q 3553 797 2998 353 
Q 2444 -91 1538 -91 
Q 1166 -91 791 -17 
Q 416 56 38 206 
L 166 856 
Q 513 641 861 531 
Q 1209 422 1556 422 
Q 2147 422 2503 684 
Q 2859 947 2859 1369 
Q 2859 1650 2717 1795 
Q 2575 1941 2106 2059 
L 1728 2156 
Q 1081 2325 845 2545 
Q 609 2766 609 3163 
Q 609 3859 1145 4304 
Q 1681 4750 2541 4750 
Q 2875 4750 3203 4690 
Q 3531 4631 3859 4513 
z
" id="DejaVuSans-Oblique-53" transform="scale(0.015625)"/>
       <path d="M 1625 4666 
L 2156 4666 
L 531 -594 
L 0 -594 
L 1625 4666 
z
" id="DejaVuSans-2f" transform="scale(0.015625)"/>
       <path d="M 3175 2156 
Q 3175 2616 2975 2859 
Q 2775 3103 2400 3103 
Q 2144 3103 1911 2972 
Q 1678 2841 1497 2591 
Q 1319 2344 1212 1994 
Q 1106 1644 1106 1300 
Q 1106 863 1306 627 
Q 1506 391 1875 391 
Q 2147 391 2380 519 
Q 2613 647 2778 891 
Q 2956 1147 3065 1494 
Q 3175 1841 3175 2156 
z
M 1394 2969 
Q 1625 3272 1939 3428 
Q 2253 3584 2638 3584 
Q 3175 3584 3472 3232 
Q 3769 2881 3769 2247 
Q 3769 1728 3584 1258 
Q 3400 788 3053 416 
Q 2822 169 2531 39 
Q 2241 -91 1919 -91 
Q 1547 -91 1294 64 
Q 1041 219 916 525 
L 556 -1331 
L -19 -1331 
L 922 3500 
L 1497 3500 
L 1394 2969 
z
" id="DejaVuSans-Oblique-70" transform="scale(0.015625)"/>
       <path d="M 3438 1997 
L 3047 0 
L 2472 0 
L 2578 531 
Q 2325 219 2001 64 
Q 1678 -91 1281 -91 
Q 834 -91 548 182 
Q 263 456 263 884 
Q 263 1497 752 1853 
Q 1241 2209 2100 2209 
L 2900 2209 
L 2931 2363 
Q 2938 2388 2941 2417 
Q 2944 2447 2944 2509 
Q 2944 2788 2717 2942 
Q 2491 3097 2081 3097 
Q 1800 3097 1504 3025 
Q 1209 2953 897 2809 
L 997 3341 
Q 1322 3463 1633 3523 
Q 1944 3584 2234 3584 
Q 2853 3584 3176 3315 
Q 3500 3047 3500 2534 
Q 3500 2431 3484 2292 
Q 3469 2153 3438 1997 
z
M 2816 1759 
L 2241 1759 
Q 1534 1759 1195 1570 
Q 856 1381 856 984 
Q 856 709 1029 553 
Q 1203 397 1509 397 
Q 1978 397 2328 733 
Q 2678 1069 2791 1631 
L 2816 1759 
z
" id="DejaVuSans-Oblique-61" transform="scale(0.015625)"/>
       <path d="M 3816 3500 
L 3219 434 
Q 3047 -456 2561 -893 
Q 2075 -1331 1253 -1331 
Q 950 -1331 690 -1286 
Q 431 -1241 206 -1147 
L 313 -588 
Q 525 -725 762 -790 
Q 1000 -856 1269 -856 
Q 1816 -856 2167 -557 
Q 2519 -259 2631 300 
L 2681 563 
Q 2441 288 2122 144 
Q 1803 0 1434 0 
Q 903 0 598 351 
Q 294 703 294 1319 
Q 294 1803 478 2267 
Q 663 2731 997 3091 
Q 1219 3328 1514 3456 
Q 1809 3584 2131 3584 
Q 2484 3584 2746 3420 
Q 3009 3256 3138 2956 
L 3238 3500 
L 3816 3500 
z
M 2950 2216 
Q 2950 2641 2750 2872 
Q 2550 3103 2181 3103 
Q 1953 3103 1747 3012 
Q 1541 2922 1394 2759 
Q 1156 2491 1023 2127 
Q 891 1763 891 1375 
Q 891 944 1092 712 
Q 1294 481 1672 481 
Q 2219 481 2584 976 
Q 2950 1472 2950 2216 
z
" id="DejaVuSans-Oblique-67" transform="scale(0.015625)"/>
       <path d="M 3078 2063 
Q 3088 2113 3092 2166 
Q 3097 2219 3097 2272 
Q 3097 2653 2873 2875 
Q 2650 3097 2266 3097 
Q 1838 3097 1509 2826 
Q 1181 2556 1013 2059 
L 3078 2063 
z
M 3578 1613 
L 903 1613 
Q 884 1494 878 1425 
Q 872 1356 872 1306 
Q 872 872 1139 634 
Q 1406 397 1894 397 
Q 2269 397 2603 481 
Q 2938 566 3225 728 
L 3116 159 
Q 2806 34 2476 -28 
Q 2147 -91 1806 -91 
Q 1078 -91 686 257 
Q 294 606 294 1247 
Q 294 1794 489 2264 
Q 684 2734 1063 3103 
Q 1306 3334 1642 3459 
Q 1978 3584 2356 3584 
Q 2950 3584 3301 3228 
Q 3653 2872 3653 2272 
Q 3653 2128 3634 1964 
Q 3616 1800 3578 1613 
z
" id="DejaVuSans-Oblique-65" transform="scale(0.015625)"/>
      </defs>
      <use transform="translate(0 0.78125)" xlink:href="#DejaVuSans-Oblique-53"/>
      <use transform="translate(63.476562 -15.625)scale(0.7)" xlink:href="#DejaVuSans-32"/>
      <use transform="translate(110.74707 0.78125)" xlink:href="#DejaVuSans-2f"/>
      <use transform="translate(144.438477 0.78125)" xlink:href="#DejaVuSans-Oblique-53"/>
      <use transform="translate(207.915039 -15.625)scale(0.7)" xlink:href="#DejaVuSans-Oblique-70"/>
      <use transform="translate(252.348633 -15.625)scale(0.7)" xlink:href="#DejaVuSans-Oblique-61"/>
      <use transform="translate(295.244141 -15.625)scale(0.7)" xlink:href="#DejaVuSans-Oblique-67"/>
      <use transform="translate(339.677734 -15.625)scale(0.7)" xlink:href="#DejaVuSans-Oblique-65"/>
     </g>
    </g>
   </g>
   <g id="line2d_13">
    <path clip-path="url(#p1d3f607e03)" d="M 69.218182 86.312337 
L 72.292562 87.036644 
L 75.366942 87.446578 
L 78.441322 87.012718 
L 81.515702 85.113997 
L 84.590083 88.433844 
L 87.664463 85.973383 
L 90.738843 85.870145 
L 93.813223 87.135202 
L 96.887603 86.482344 
L 99.961983 85.72151 
L 103.036364 86.950306 
L 106.110744 85.77013 
L 109.185124 88.471785 
L 112.259504 86.326089 
L 115.333884 87.23046 
L 118.408264 85.875413 
L 121.482645 86.414793 
L 124.557025 87.595303 
L 127.631405 85.621976 
L 130.705785 85.567675 
L 133.780165 86.095378 
L 136.854545 86.725374 
L 139.928926 86.330635 
L 143.003306 86.019073 
L 146.077686 87.072766 
L 149.152066 85.208253 
L 152.226446 86.033445 
L 155.300826 86.211261 
L 158.375207 86.389759 
L 161.449587 86.199653 
L 164.523967 86.03295 
L 167.598347 86.816613 
L 170.672727 87.599259 
L 173.747107 86.78833 
L 176.821488 85.049053 
L 179.895868 87.104127 
L 182.970248 87.697813 
L 186.044628 86.252967 
L 189.119008 85.508231 
L 192.193388 86.143251 
L 195.267769 85.617223 
L 198.342149 86.16003 
L 201.416529 87.227739 
L 204.490909 86.814792 
L 207.565289 85.772685 
L 210.639669 85.874458 
L 213.71405 86.853699 
L 216.78843 86.345858 
L 219.86281 85.597979 
L 222.93719 86.440812 
L 226.01157 86.041293 
L 229.08595 86.319256 
L 232.160331 85.800477 
L 235.234711 86.006859 
L 238.309091 86.578186 
L 241.383471 86.836946 
L 244.457851 87.255283 
L 247.532231 86.156159 
L 250.606612 88.275679 
L 253.680992 86.402428 
L 256.755372 86.289986 
L 259.829752 85.995858 
L 262.904132 87.11259 
L 265.978512 86.574737 
L 269.052893 85.997135 
L 272.127273 84.939254 
L 275.201653 86.524129 
L 278.276033 86.791929 
L 281.350413 86.242812 
L 284.424793 86.015226 
L 287.499174 88.209768 
L 290.573554 87.663248 
L 293.647934 85.942767 
L 296.722314 86.886608 
L 299.796694 86.33419 
L 302.871074 86.967087 
L 305.945455 86.062278 
L 309.019835 85.656438 
L 312.094215 86.273991 
L 315.168595 86.455327 
L 318.242975 87.219015 
L 321.317355 86.748437 
L 324.391736 86.380387 
L 327.466116 87.103893 
L 330.540496 86.794734 
L 333.614876 85.294292 
L 336.689256 88.114985 
L 339.763636 86.831723 
L 342.838017 87.244839 
L 345.912397 85.443124 
L 348.986777 86.244833 
L 352.061157 86.702037 
L 355.135537 86.922304 
L 358.209917 86.126336 
L 361.284298 86.274016 
L 364.358678 86.094032 
L 367.433058 86.881083 
L 370.507438 86.565745 
L 373.581818 86.573726 
" style="fill:none;stroke:#1f77b4;stroke-linecap:square;stroke-width:1.5;"/>
   </g>
   <g id="line2d_14">
    <path clip-path="url(#p1d3f607e03)" d="M 69.218182 168.472403 
L 72.292562 167.019109 
L 75.366942 177.866568 
L 78.441322 170.641051 
L 81.515702 149.736398 
L 84.590083 137.759337 
L 87.664463 138.076874 
L 90.738843 142.15213 
L 93.813223 143.248354 
L 96.887603 136.625746 
L 99.961983 148.162528 
L 103.036364 195.345459 
L 106.110744 205.058313 
L 109.185124 205.845078 
L 112.259504 157.170741 
L 115.333884 175.631467 
L 118.408264 137.525014 
L 121.482645 176.550847 
L 124.557025 159.450253 
L 127.631405 137.737812 
L 130.705785 200.113354 
L 133.780165 183.609975 
L 136.854545 178.524973 
L 139.928926 157.1989 
L 143.003306 202.434056 
L 146.077686 181.257728 
L 149.152066 176.718724 
L 152.226446 142.639355 
L 155.300826 141.952263 
L 158.375207 167.961499 
L 161.449587 192.498323 
L 164.523967 154.408782 
L 167.598347 192.329585 
L 170.672727 178.272907 
L 173.747107 196.172565 
L 176.821488 149.436926 
L 179.895868 158.662197 
L 182.970248 174.497721 
L 186.044628 171.389799 
L 189.119008 153.369432 
L 192.193388 159.82037 
L 195.267769 134.862782 
L 198.342149 131.863503 
L 201.416529 138.64403 
L 204.490909 131.898337 
L 207.565289 123.635162 
L 210.639669 167.74637 
L 213.71405 169.287286 
L 216.78843 140.764009 
L 219.86281 156.438329 
L 222.93719 174.051048 
L 226.01157 162.975102 
L 229.08595 167.92812 
L 232.160331 151.980929 
L 235.234711 185.884311 
L 238.309091 179.910141 
L 241.383471 153.277223 
L 244.457851 175.636644 
L 247.532231 167.201535 
L 250.606612 199.031141 
L 253.680992 171.353436 
L 256.755372 175.410276 
L 259.829752 172.756165 
L 262.904132 174.618676 
L 265.978512 160.645869 
L 269.052893 164.487152 
L 272.127273 187.386512 
L 275.201653 162.177674 
L 278.276033 177.809423 
L 281.350413 148.892234 
L 284.424793 187.964889 
L 287.499174 162.254224 
L 290.573554 210.815199 
L 293.647934 164.6534 
L 296.722314 191.260041 
L 299.796694 110.075244 
L 302.871074 186.034427 
L 305.945455 171.971895 
L 309.019835 196.65603 
L 312.094215 158.14434 
L 315.168595 169.843902 
L 318.242975 132.235307 
L 321.317355 135.832247 
L 324.391736 143.793144 
L 327.466116 160.843942 
L 330.540496 159.754771 
L 333.614876 190.72129 
L 336.689256 180.099677 
L 339.763636 208.878081 
L 342.838017 224.095307 
L 345.912397 187.539984 
L 348.986777 205.545118 
L 352.061157 227.186267 
L 355.135537 165.477611 
L 358.209917 180.096545 
L 361.284298 166.731605 
L 364.358678 152.319602 
L 367.433058 164.314099 
L 370.507438 208.153775 
L 373.581818 195.283733 
" style="fill:none;stroke:#ff7f0e;stroke-linecap:square;stroke-width:1.5;"/>
   </g>
   <g id="line2d_15">
    <path clip-path="url(#p1d3f607e03)" d="M 69.218182 235.467934 
L 72.292562 242.095294 
L 75.366942 253.630287 
L 78.441322 263.477191 
L 81.515702 271.266941 
L 84.590083 276.490173 
L 87.664463 279.435836 
L 90.738843 280.748939 
L 93.813223 281.110639 
L 96.887603 281.018892 
L 99.961983 280.743414 
L 103.036364 280.398302 
L 106.110744 280.022125 
L 109.185124 279.624652 
L 112.259504 279.207018 
L 115.333884 278.768959 
L 118.408264 278.311038 
L 121.482645 277.835089 
L 124.557025 277.343987 
L 127.631405 276.84112 
L 130.705785 276.329769 
L 133.780165 275.812531 
L 136.854545 275.290893 
L 139.928926 274.764996 
L 143.003306 274.233624 
L 146.077686 273.694386 
L 149.152066 273.144081 
L 152.226446 272.579168 
L 155.300826 271.996319 
L 158.375207 271.392945 
L 161.449587 270.767638 
L 164.523967 270.120456 
L 167.598347 269.453014 
L 170.672727 268.768348 
L 173.747107 268.070611 
L 176.821488 267.364638 
L 179.895868 266.655464 
L 182.970248 265.947872 
L 186.044628 265.246028 
L 189.119008 264.553246 
L 192.193388 263.871878 
L 195.267769 263.203327 
L 198.342149 262.548143 
L 201.416529 261.906178 
L 204.490909 261.276761 
L 207.565289 260.658868 
L 210.639669 260.051279 
L 213.71405 259.452692 
L 216.78843 258.861822 
L 219.86281 258.27745 
L 222.93719 257.698467 
L 226.01157 257.123879 
L 229.08595 256.552817 
L 232.160331 255.984524 
L 235.234711 255.418345 
L 238.309091 254.853713 
L 241.383471 254.29014 
L 244.457851 253.727202 
L 247.532231 253.164533 
L 250.606612 252.60182 
L 253.680992 252.038795 
L 256.755372 251.475238 
L 259.829752 250.910974 
L 262.904132 250.345875 
L 265.978512 249.779862 
L 269.052893 249.212906 
L 272.127273 248.645033 
L 275.201653 248.076325 
L 278.276033 247.506923 
L 281.350413 246.937025 
L 284.424793 246.366895 
L 287.499174 245.796854 
L 290.573554 245.227286 
L 293.647934 244.658633 
L 296.722314 244.091391 
L 299.796694 243.52611 
L 302.871074 242.963385 
L 305.945455 242.40385 
L 309.019835 241.848174 
L 312.094215 241.29705 
L 315.168595 240.751187 
L 318.242975 240.211302 
L 321.317355 239.678111 
L 324.391736 239.152316 
L 327.466116 238.634603 
L 330.540496 238.125625 
L 333.614876 237.626002 
L 336.689256 237.136306 
L 339.763636 236.657063 
L 342.838017 236.188741 
L 345.912397 235.73175 
L 348.986777 235.286437 
L 352.061157 234.853087 
L 355.135537 234.43192 
L 358.209917 234.023092 
L 361.284298 233.626699 
L 364.358678 233.242776 
L 367.433058 232.871302 
L 370.507438 232.512204 
L 373.581818 232.165361 
" style="fill:none;stroke:#2ca02c;stroke-linecap:square;stroke-width:1.5;"/>
   </g>
   <g id="line2d_16">
    <path clip-path="url(#p1d3f607e03)" d="M 69.218182 271.292093 
L 72.292562 269.709458 
L 75.366942 268.24075 
L 78.441322 266.925777 
L 81.515702 265.794622 
L 84.590083 264.864862 
L 87.664463 264.140796 
L 90.738843 263.614619 
L 93.813223 263.268978 
L 96.887603 263.080187 
L 99.961983 263.021398 
L 103.036364 263.065281 
L 106.110744 263.185998 
L 109.185124 263.360448 
L 112.259504 263.568908 
L 115.333884 263.795208 
L 118.408264 264.026594 
L 121.482645 264.253413 
L 124.557025 264.468694 
L 127.631405 264.667716 
L 130.705785 264.847577 
L 133.780165 265.006805 
L 136.854545 265.14501 
L 139.928926 265.262591 
L 143.003306 265.36049 
L 146.077686 265.439989 
L 149.152066 265.502554 
L 152.226446 265.549712 
L 155.300826 265.582962 
L 158.375207 265.603706 
L 161.449587 265.613215 
L 164.523967 265.6126 
L 167.598347 265.602804 
L 170.672727 265.584611 
L 173.747107 265.55865 
L 176.821488 265.525414 
L 179.895868 265.485284 
L 182.970248 265.438553 
L 186.044628 265.385446 
L 189.119008 265.326145 
L 192.193388 265.260815 
L 195.267769 265.189618 
L 198.342149 265.112737 
L 201.416529 265.030386 
L 204.490909 264.942824 
L 207.565289 264.850364 
L 210.639669 264.753376 
L 213.71405 264.652293 
L 216.78843 264.547611 
L 219.86281 264.439883 
L 222.93719 264.32972 
L 226.01157 264.217782 
L 229.08595 264.104768 
L 232.160331 263.991412 
L 235.234711 263.878472 
L 238.309091 263.766717 
L 241.383471 263.656917 
L 244.457851 263.549837 
L 247.532231 263.44622 
L 250.606612 263.346782 
L 253.680992 263.252201 
L 256.755372 263.163108 
L 259.829752 263.08008 
L 262.904132 263.003635 
L 265.978512 262.934224 
L 269.052893 262.872231 
L 272.127273 262.817967 
L 275.201653 262.771669 
L 278.276033 262.733502 
L 281.350413 262.703559 
L 284.424793 262.681862 
L 287.499174 262.668365 
L 290.573554 262.662961 
L 293.647934 262.665484 
L 296.722314 262.675712 
L 299.796694 262.693378 
L 302.871074 262.718172 
L 305.945455 262.749748 
L 309.019835 262.787731 
L 312.094215 262.831721 
L 315.168595 262.8813 
L 318.242975 262.936038 
L 321.317355 262.995497 
L 324.391736 263.059237 
L 327.466116 263.126818 
L 330.540496 263.197809 
L 333.614876 263.271785 
L 336.689256 263.348332 
L 339.763636 263.427055 
L 342.838017 263.507571 
L 345.912397 263.589516 
L 348.986777 263.672548 
L 352.061157 263.756342 
L 355.135537 263.840596 
L 358.209917 263.925028 
L 361.284298 264.009376 
L 364.358678 264.093401 
L 367.433058 264.176884 
L 370.507438 264.259624 
L 373.581818 264.341443 
" style="fill:none;stroke:#d62728;stroke-linecap:square;stroke-width:1.5;"/>
   </g>
   <g id="line2d_17">
    <path clip-path="url(#p1d3f607e03)" d="M 69.218182 252.853253 
L 72.292562 252.452294 
L 75.366942 252.047957 
L 78.441322 251.640255 
L 81.515702 251.229205 
L 84.590083 250.814826 
L 87.664463 250.397137 
L 90.738843 249.976161 
L 93.813223 249.551922 
L 96.887603 249.124445 
L 99.961983 248.69376 
L 103.036364 248.259895 
L 106.110744 247.822884 
L 109.185124 247.38276 
L 112.259504 246.93956 
L 115.333884 246.493323 
L 118.408264 246.04409 
L 121.482645 245.591902 
L 124.557025 245.136806 
L 127.631405 244.678848 
L 130.705785 244.218077 
L 133.780165 243.754545 
L 136.854545 243.288305 
L 139.928926 242.819413 
L 143.003306 242.347927 
L 146.077686 241.873905 
L 149.152066 241.397411 
L 152.226446 240.918508 
L 155.300826 240.437261 
L 158.375207 239.95374 
L 161.449587 239.468012 
L 164.523967 238.980151 
L 167.598347 238.49023 
L 170.672727 237.998324 
L 173.747107 237.504511 
L 176.821488 237.008869 
L 179.895868 236.511479 
L 182.970248 236.012423 
L 186.044628 235.511786 
L 189.119008 235.009653 
L 192.193388 234.506111 
L 195.267769 234.001248 
L 198.342149 233.495153 
L 201.416529 232.987919 
L 204.490909 232.479636 
L 207.565289 231.970399 
L 210.639669 231.460301 
L 213.71405 230.949438 
L 216.78843 230.437907 
L 219.86281 229.925805 
L 222.93719 229.413229 
L 226.01157 228.900278 
L 229.08595 228.387052 
L 232.160331 227.87365 
L 235.234711 227.360172 
L 238.309091 226.846719 
L 241.383471 226.333392 
L 244.457851 225.820292 
L 247.532231 225.30752 
L 250.606612 224.795177 
L 253.680992 224.283364 
L 256.755372 223.772182 
L 259.829752 223.261732 
L 262.904132 222.752114 
L 265.978512 222.243428 
L 269.052893 221.735773 
L 272.127273 221.229249 
L 275.201653 220.723954 
L 278.276033 220.219985 
L 281.350413 219.717438 
L 284.424793 219.21641 
L 287.499174 218.716996 
L 290.573554 218.219288 
L 293.647934 217.72338 
L 296.722314 217.229362 
L 299.796694 216.737325 
L 302.871074 216.247358 
L 305.945455 215.759548 
L 309.019835 215.27398 
L 312.094215 214.790739 
L 315.168595 214.309908 
L 318.242975 213.831566 
L 321.317355 213.355794 
L 324.391736 212.882668 
L 327.466116 212.412265 
L 330.540496 211.944657 
L 333.614876 211.479916 
L 336.689256 211.018112 
L 339.763636 210.559312 
L 342.838017 210.103582 
L 345.912397 209.650985 
L 348.986777 209.201582 
L 352.061157 208.755432 
L 355.135537 208.312592 
L 358.209917 207.873116 
L 361.284298 207.437056 
L 364.358678 207.004462 
L 367.433058 206.575382 
L 370.507438 206.149861 
L 373.581818 205.727941 
" style="fill:none;stroke:#9467bd;stroke-linecap:square;stroke-width:1.5;"/>
   </g>
   <g id="patch_3">
    <path d="M 54 299.350588 
L 54 103.68 
" style="fill:none;stroke:#000000;stroke-linecap:square;stroke-linejoin:miter;stroke-width:0.8;"/>
   </g>
   <g id="patch_4">
    <path d="M 388.8 299.350588 
L 388.8 103.68 
" style="fill:none;stroke:#000000;stroke-linecap:square;stroke-linejoin:miter;stroke-width:0.8;"/>
   </g>
   <g id="patch_5">
    <path d="M 54 299.350588 
L 388.8 299.350588 
" style="fill:none;stroke:#000000;stroke-linecap:square;stroke-linejoin:miter;stroke-width:0.8;"/>
   </g>
   <g id="patch_6">
    <path d="M 54 103.68 
L 388.8 103.68 
" style="fill:none;stroke:#000000;stroke-linecap:square;stroke-linejoin:miter;stroke-width:0.8;"/>
   </g>
   <g id="legend_1">
    <g id="patch_7">
     <path d="M 296.1 185.172187 
L 381.8 185.172187 
Q 383.8 185.172187 383.8 183.172187 
L 383.8 110.68 
Q 383.8 108.68 381.8 108.68 
L 296.1 108.68 
Q 294.1 108.68 294.1 110.68 
L 294.1 183.172187 
Q 294.1 185.172187 296.1 185.172187 
z
" style="fill:#ffffff;opacity:0.8;stroke:#cccccc;stroke-linejoin:miter;"/>
    </g>
    <g id="line2d_18">
     <path d="M 298.1 116.778437 
L 318.1 116.778437 
" style="fill:none;stroke:#1f77b4;stroke-linecap:square;stroke-width:1.5;"/>
    </g>
    <g id="line2d_19"/>
    <g id="text_14">
     <!-- $\eta=$1 -->
     <g transform="translate(326.1 120.278437)scale(0.1 -0.1)">
      <defs>
       <path d="M 3703 2113 
L 3034 -1331 
L 2459 -1331 
L 3125 2094 
Q 3222 2591 3075 2838 
Q 2931 3084 2544 3084 
Q 2078 3084 1750 2788 
Q 1425 2491 1325 1978 
L 941 0 
L 363 0 
L 1044 3500 
L 1622 3500 
L 1516 2956 
Q 1781 3272 2094 3428 
Q 2403 3584 2769 3584 
Q 3372 3584 3609 3213 
Q 3844 2838 3703 2113 
z
" id="DejaVuSans-Oblique-3b7" transform="scale(0.015625)"/>
       <path d="M 678 2906 
L 4684 2906 
L 4684 2381 
L 678 2381 
L 678 2906 
z
M 678 1631 
L 4684 1631 
L 4684 1100 
L 678 1100 
L 678 1631 
z
" id="DejaVuSans-3d" transform="scale(0.015625)"/>
      </defs>
      <use transform="translate(0 0.09375)" xlink:href="#DejaVuSans-Oblique-3b7"/>
      <use transform="translate(82.861328 0.09375)" xlink:href="#DejaVuSans-3d"/>
      <use transform="translate(186.132812 0.09375)" xlink:href="#DejaVuSans-31"/>
     </g>
    </g>
    <g id="line2d_20">
     <path d="M 298.1 131.476875 
L 318.1 131.476875 
" style="fill:none;stroke:#ff7f0e;stroke-linecap:square;stroke-width:1.5;"/>
    </g>
    <g id="line2d_21"/>
    <g id="text_15">
     <!-- $\eta=$0.1 -->
     <g transform="translate(326.1 134.976875)scale(0.1 -0.1)">
      <use transform="translate(0 0.78125)" xlink:href="#DejaVuSans-Oblique-3b7"/>
      <use transform="translate(82.861328 0.78125)" xlink:href="#DejaVuSans-3d"/>
      <use transform="translate(186.132812 0.78125)" xlink:href="#DejaVuSans-30"/>
      <use transform="translate(249.755859 0.78125)" xlink:href="#DejaVuSans-2e"/>
      <use transform="translate(281.542969 0.78125)" xlink:href="#DejaVuSans-31"/>
     </g>
    </g>
    <g id="line2d_22">
     <path d="M 298.1 146.175313 
L 318.1 146.175313 
" style="fill:none;stroke:#2ca02c;stroke-linecap:square;stroke-width:1.5;"/>
    </g>
    <g id="line2d_23"/>
    <g id="text_16">
     <!-- $\eta=$0.01 -->
     <g transform="translate(326.1 149.675313)scale(0.1 -0.1)">
      <use transform="translate(0 0.78125)" xlink:href="#DejaVuSans-Oblique-3b7"/>
      <use transform="translate(82.861328 0.78125)" xlink:href="#DejaVuSans-3d"/>
      <use transform="translate(186.132812 0.78125)" xlink:href="#DejaVuSans-30"/>
      <use transform="translate(249.755859 0.78125)" xlink:href="#DejaVuSans-2e"/>
      <use transform="translate(281.542969 0.78125)" xlink:href="#DejaVuSans-30"/>
      <use transform="translate(345.166016 0.78125)" xlink:href="#DejaVuSans-31"/>
     </g>
    </g>
    <g id="line2d_24">
     <path d="M 298.1 160.87375 
L 318.1 160.87375 
" style="fill:none;stroke:#d62728;stroke-linecap:square;stroke-width:1.5;"/>
    </g>
    <g id="line2d_25"/>
    <g id="text_17">
     <!-- $\eta=$0.001 -->
     <g transform="translate(326.1 164.37375)scale(0.1 -0.1)">
      <use transform="translate(0 0.78125)" xlink:href="#DejaVuSans-Oblique-3b7"/>
      <use transform="translate(82.861328 0.78125)" xlink:href="#DejaVuSans-3d"/>
      <use transform="translate(186.132812 0.78125)" xlink:href="#DejaVuSans-30"/>
      <use transform="translate(249.755859 0.78125)" xlink:href="#DejaVuSans-2e"/>
      <use transform="translate(281.542969 0.78125)" xlink:href="#DejaVuSans-30"/>
      <use transform="translate(345.166016 0.78125)" xlink:href="#DejaVuSans-30"/>
      <use transform="translate(408.789062 0.78125)" xlink:href="#DejaVuSans-31"/>
     </g>
    </g>
    <g id="line2d_26">
     <path d="M 298.1 175.572188 
L 318.1 175.572188 
" style="fill:none;stroke:#9467bd;stroke-linecap:square;stroke-width:1.5;"/>
    </g>
    <g id="line2d_27"/>
    <g id="text_18">
     <!-- $\eta=$0.0001 -->
     <g transform="translate(326.1 179.072188)scale(0.1 -0.1)">
      <use transform="translate(0 0.78125)" xlink:href="#DejaVuSans-Oblique-3b7"/>
      <use transform="translate(82.861328 0.78125)" xlink:href="#DejaVuSans-3d"/>
      <use transform="translate(186.132812 0.78125)" xlink:href="#DejaVuSans-30"/>
      <use transform="translate(249.755859 0.78125)" xlink:href="#DejaVuSans-2e"/>
      <use transform="translate(281.542969 0.78125)" xlink:href="#DejaVuSans-30"/>
      <use transform="translate(345.166016 0.78125)" xlink:href="#DejaVuSans-30"/>
      <use transform="translate(408.789062 0.78125)" xlink:href="#DejaVuSans-30"/>
      <use transform="translate(472.412109 0.78125)" xlink:href="#DejaVuSans-31"/>
     </g>
    </g>
   </g>
  </g>
  <g id="axes_2">
   <g id="patch_8">
    <path d="M 54 534.155294 
L 388.8 534.155294 
L 388.8 338.484706 
L 54 338.484706 
z
" style="fill:#ffffff;"/>
   </g>
   <g id="matplotlib.axis_3">
    <g id="xtick_7">
     <g id="line2d_28">
      <g>
       <use style="stroke:#000000;stroke-width:0.8;" x="69.218182" xlink:href="#m52db903ee0" y="534.155294"/>
      </g>
     </g>
     <g id="text_19">
      <!-- 0 -->
      <g transform="translate(66.036932 548.753732)scale(0.1 -0.1)">
       <use xlink:href="#DejaVuSans-30"/>
      </g>
     </g>
    </g>
    <g id="xtick_8">
     <g id="line2d_29">
      <g>
       <use style="stroke:#000000;stroke-width:0.8;" x="130.705785" xlink:href="#m52db903ee0" y="534.155294"/>
      </g>
     </g>
     <g id="text_20">
      <!-- 20 -->
      <g transform="translate(124.343285 548.753732)scale(0.1 -0.1)">
       <use xlink:href="#DejaVuSans-32"/>
       <use x="63.623047" xlink:href="#DejaVuSans-30"/>
      </g>
     </g>
    </g>
    <g id="xtick_9">
     <g id="line2d_30">
      <g>
       <use style="stroke:#000000;stroke-width:0.8;" x="192.193388" xlink:href="#m52db903ee0" y="534.155294"/>
      </g>
     </g>
     <g id="text_21">
      <!-- 40 -->
      <g transform="translate(185.830888 548.753732)scale(0.1 -0.1)">
       <use xlink:href="#DejaVuSans-34"/>
       <use x="63.623047" xlink:href="#DejaVuSans-30"/>
      </g>
     </g>
    </g>
    <g id="xtick_10">
     <g id="line2d_31">
      <g>
       <use style="stroke:#000000;stroke-width:0.8;" x="253.680992" xlink:href="#m52db903ee0" y="534.155294"/>
      </g>
     </g>
     <g id="text_22">
      <!-- 60 -->
      <g transform="translate(247.318492 548.753732)scale(0.1 -0.1)">
       <use xlink:href="#DejaVuSans-36"/>
       <use x="63.623047" xlink:href="#DejaVuSans-30"/>
      </g>
     </g>
    </g>
    <g id="xtick_11">
     <g id="line2d_32">
      <g>
       <use style="stroke:#000000;stroke-width:0.8;" x="315.168595" xlink:href="#m52db903ee0" y="534.155294"/>
      </g>
     </g>
     <g id="text_23">
      <!-- 80 -->
      <g transform="translate(308.806095 548.753732)scale(0.1 -0.1)">
       <use xlink:href="#DejaVuSans-38"/>
       <use x="63.623047" xlink:href="#DejaVuSans-30"/>
      </g>
     </g>
    </g>
    <g id="xtick_12">
     <g id="line2d_33">
      <g>
       <use style="stroke:#000000;stroke-width:0.8;" x="376.656198" xlink:href="#m52db903ee0" y="534.155294"/>
      </g>
     </g>
     <g id="text_24">
      <!-- 100 -->
      <g transform="translate(367.112448 548.753732)scale(0.1 -0.1)">
       <use xlink:href="#DejaVuSans-31"/>
       <use x="63.623047" xlink:href="#DejaVuSans-30"/>
       <use x="127.246094" xlink:href="#DejaVuSans-30"/>
      </g>
     </g>
    </g>
   </g>
   <g id="matplotlib.axis_4">
    <g id="ytick_7">
     <g id="line2d_34">
      <g>
       <use style="stroke:#000000;stroke-width:0.8;" x="54" xlink:href="#m1c1f44dfc3" y="527.659307"/>
      </g>
     </g>
     <g id="text_25">
      <!-- −15 -->
      <g transform="translate(25.895312 531.458526)scale(0.1 -0.1)">
       <defs>
        <path d="M 678 2272 
L 4684 2272 
L 4684 1741 
L 678 1741 
L 678 2272 
z
" id="DejaVuSans-2212" transform="scale(0.015625)"/>
        <path d="M 691 4666 
L 3169 4666 
L 3169 4134 
L 1269 4134 
L 1269 2991 
Q 1406 3038 1543 3061 
Q 1681 3084 1819 3084 
Q 2600 3084 3056 2656 
Q 3513 2228 3513 1497 
Q 3513 744 3044 326 
Q 2575 -91 1722 -91 
Q 1428 -91 1123 -41 
Q 819 9 494 109 
L 494 744 
Q 775 591 1075 516 
Q 1375 441 1709 441 
Q 2250 441 2565 725 
Q 2881 1009 2881 1497 
Q 2881 1984 2565 2268 
Q 2250 2553 1709 2553 
Q 1456 2553 1204 2497 
Q 953 2441 691 2322 
L 691 4666 
z
" id="DejaVuSans-35" transform="scale(0.015625)"/>
       </defs>
       <use xlink:href="#DejaVuSans-2212"/>
       <use x="83.789062" xlink:href="#DejaVuSans-31"/>
       <use x="147.412109" xlink:href="#DejaVuSans-35"/>
      </g>
     </g>
    </g>
    <g id="ytick_8">
     <g id="line2d_35">
      <g>
       <use style="stroke:#000000;stroke-width:0.8;" x="54" xlink:href="#m1c1f44dfc3" y="492.256854"/>
      </g>
     </g>
     <g id="text_26">
      <!-- −10 -->
      <g transform="translate(25.895312 496.056073)scale(0.1 -0.1)">
       <use xlink:href="#DejaVuSans-2212"/>
       <use x="83.789062" xlink:href="#DejaVuSans-31"/>
       <use x="147.412109" xlink:href="#DejaVuSans-30"/>
      </g>
     </g>
    </g>
    <g id="ytick_9">
     <g id="line2d_36">
      <g>
       <use style="stroke:#000000;stroke-width:0.8;" x="54" xlink:href="#m1c1f44dfc3" y="456.854401"/>
      </g>
     </g>
     <g id="text_27">
      <!-- −5 -->
      <g transform="translate(32.257812 460.65362)scale(0.1 -0.1)">
       <use xlink:href="#DejaVuSans-2212"/>
       <use x="83.789062" xlink:href="#DejaVuSans-35"/>
      </g>
     </g>
    </g>
    <g id="ytick_10">
     <g id="line2d_37">
      <g>
       <use style="stroke:#000000;stroke-width:0.8;" x="54" xlink:href="#m1c1f44dfc3" y="421.451948"/>
      </g>
     </g>
     <g id="text_28">
      <!-- 0 -->
      <g transform="translate(40.6375 425.251167)scale(0.1 -0.1)">
       <use xlink:href="#DejaVuSans-30"/>
      </g>
     </g>
    </g>
    <g id="ytick_11">
     <g id="line2d_38">
      <g>
       <use style="stroke:#000000;stroke-width:0.8;" x="54" xlink:href="#m1c1f44dfc3" y="386.049495"/>
      </g>
     </g>
     <g id="text_29">
      <!-- 5 -->
      <g transform="translate(40.6375 389.848714)scale(0.1 -0.1)">
       <use xlink:href="#DejaVuSans-35"/>
      </g>
     </g>
    </g>
    <g id="ytick_12">
     <g id="line2d_39">
      <g>
       <use style="stroke:#000000;stroke-width:0.8;" x="54" xlink:href="#m1c1f44dfc3" y="350.647042"/>
      </g>
     </g>
     <g id="text_30">
      <!-- 10 -->
      <g transform="translate(34.275 354.446261)scale(0.1 -0.1)">
       <use xlink:href="#DejaVuSans-31"/>
       <use x="63.623047" xlink:href="#DejaVuSans-30"/>
      </g>
     </g>
    </g>
    <g id="text_31">
     <!-- Energy $E$ -->
     <g transform="translate(19.795312 458.67)rotate(-90)scale(0.1 -0.1)">
      <defs>
       <path d="M 628 4666 
L 3578 4666 
L 3578 4134 
L 1259 4134 
L 1259 2753 
L 3481 2753 
L 3481 2222 
L 1259 2222 
L 1259 531 
L 3634 531 
L 3634 0 
L 628 0 
L 628 4666 
z
" id="DejaVuSans-45" transform="scale(0.015625)"/>
       <path d="M 3513 2113 
L 3513 0 
L 2938 0 
L 2938 2094 
Q 2938 2591 2744 2837 
Q 2550 3084 2163 3084 
Q 1697 3084 1428 2787 
Q 1159 2491 1159 1978 
L 1159 0 
L 581 0 
L 581 3500 
L 1159 3500 
L 1159 2956 
Q 1366 3272 1645 3428 
Q 1925 3584 2291 3584 
Q 2894 3584 3203 3211 
Q 3513 2838 3513 2113 
z
" id="DejaVuSans-6e" transform="scale(0.015625)"/>
       <path d="M 3597 1894 
L 3597 1613 
L 953 1613 
Q 991 1019 1311 708 
Q 1631 397 2203 397 
Q 2534 397 2845 478 
Q 3156 559 3463 722 
L 3463 178 
Q 3153 47 2828 -22 
Q 2503 -91 2169 -91 
Q 1331 -91 842 396 
Q 353 884 353 1716 
Q 353 2575 817 3079 
Q 1281 3584 2069 3584 
Q 2775 3584 3186 3129 
Q 3597 2675 3597 1894 
z
M 3022 2063 
Q 3016 2534 2758 2815 
Q 2500 3097 2075 3097 
Q 1594 3097 1305 2825 
Q 1016 2553 972 2059 
L 3022 2063 
z
" id="DejaVuSans-65" transform="scale(0.015625)"/>
       <path d="M 2631 2963 
Q 2534 3019 2420 3045 
Q 2306 3072 2169 3072 
Q 1681 3072 1420 2755 
Q 1159 2438 1159 1844 
L 1159 0 
L 581 0 
L 581 3500 
L 1159 3500 
L 1159 2956 
Q 1341 3275 1631 3429 
Q 1922 3584 2338 3584 
Q 2397 3584 2469 3576 
Q 2541 3569 2628 3553 
L 2631 2963 
z
" id="DejaVuSans-72" transform="scale(0.015625)"/>
       <path d="M 2906 1791 
Q 2906 2416 2648 2759 
Q 2391 3103 1925 3103 
Q 1463 3103 1205 2759 
Q 947 2416 947 1791 
Q 947 1169 1205 825 
Q 1463 481 1925 481 
Q 2391 481 2648 825 
Q 2906 1169 2906 1791 
z
M 3481 434 
Q 3481 -459 3084 -895 
Q 2688 -1331 1869 -1331 
Q 1566 -1331 1297 -1286 
Q 1028 -1241 775 -1147 
L 775 -588 
Q 1028 -725 1275 -790 
Q 1522 -856 1778 -856 
Q 2344 -856 2625 -561 
Q 2906 -266 2906 331 
L 2906 616 
Q 2728 306 2450 153 
Q 2172 0 1784 0 
Q 1141 0 747 490 
Q 353 981 353 1791 
Q 353 2603 747 3093 
Q 1141 3584 1784 3584 
Q 2172 3584 2450 3431 
Q 2728 3278 2906 2969 
L 2906 3500 
L 3481 3500 
L 3481 434 
z
" id="DejaVuSans-67" transform="scale(0.015625)"/>
       <path d="M 2059 -325 
Q 1816 -950 1584 -1140 
Q 1353 -1331 966 -1331 
L 506 -1331 
L 506 -850 
L 844 -850 
Q 1081 -850 1212 -737 
Q 1344 -625 1503 -206 
L 1606 56 
L 191 3500 
L 800 3500 
L 1894 763 
L 2988 3500 
L 3597 3500 
L 2059 -325 
z
" id="DejaVuSans-79" transform="scale(0.015625)"/>
       <path id="DejaVuSans-20" transform="scale(0.015625)"/>
       <path d="M 1081 4666 
L 4031 4666 
L 3928 4134 
L 1606 4134 
L 1338 2753 
L 3566 2753 
L 3463 2222 
L 1234 2222 
L 909 531 
L 3284 531 
L 3181 0 
L 172 0 
L 1081 4666 
z
" id="DejaVuSans-Oblique-45" transform="scale(0.015625)"/>
      </defs>
      <use transform="translate(0 0.09375)" xlink:href="#DejaVuSans-45"/>
      <use transform="translate(63.183594 0.09375)" xlink:href="#DejaVuSans-6e"/>
      <use transform="translate(126.5625 0.09375)" xlink:href="#DejaVuSans-65"/>
      <use transform="translate(188.085938 0.09375)" xlink:href="#DejaVuSans-72"/>
      <use transform="translate(229.199219 0.09375)" xlink:href="#DejaVuSans-67"/>
      <use transform="translate(292.675781 0.09375)" xlink:href="#DejaVuSans-79"/>
      <use transform="translate(351.855469 0.09375)" xlink:href="#DejaVuSans-20"/>
      <use transform="translate(383.642578 0.09375)" xlink:href="#DejaVuSans-Oblique-45"/>
     </g>
    </g>
   </g>
   <g id="line2d_40">
    <path clip-path="url(#pc4cce95a74)" d="M 69.218182 419.556482 
L 72.292562 418.484319 
L 75.366942 420.955353 
L 78.441322 422.294645 
L 81.515702 420.287494 
L 84.590083 420.781899 
L 87.664463 420.58772 
L 90.738843 421.223013 
L 93.813223 419.520001 
L 96.887603 419.967326 
L 99.961983 420.977068 
L 103.036364 421.243732 
L 106.110744 420.580494 
L 109.185124 423.398062 
L 112.259504 419.542632 
L 115.333884 420.52895 
L 118.408264 422.423109 
L 121.482645 422.684887 
L 124.557025 421.273046 
L 127.631405 418.40102 
L 130.705785 421.331457 
L 133.780165 420.788359 
L 136.854545 422.835705 
L 139.928926 419.714038 
L 143.003306 421.092682 
L 146.077686 421.382429 
L 149.152066 421.263557 
L 152.226446 420.480598 
L 155.300826 420.889264 
L 158.375207 421.979798 
L 161.449587 421.785202 
L 164.523967 421.101994 
L 167.598347 424.142785 
L 170.672727 417.778843 
L 173.747107 421.922352 
L 176.821488 420.537414 
L 179.895868 422.417877 
L 182.970248 421.800514 
L 186.044628 420.273501 
L 189.119008 421.018879 
L 192.193388 422.998628 
L 195.267769 421.698869 
L 198.342149 422.162976 
L 201.416529 422.355335 
L 204.490909 420.531405 
L 207.565289 422.303231 
L 210.639669 420.041244 
L 213.71405 421.31141 
L 216.78843 421.194115 
L 219.86281 420.252441 
L 222.93719 423.44843 
L 226.01157 419.014953 
L 229.08595 422.87876 
L 232.160331 420.919608 
L 235.234711 422.242428 
L 238.309091 421.08352 
L 241.383471 424.658743 
L 244.457851 423.022613 
L 247.532231 422.689228 
L 250.606612 421.264052 
L 253.680992 422.38703 
L 256.755372 420.960624 
L 259.829752 423.326768 
L 262.904132 422.53561 
L 265.978512 418.890319 
L 269.052893 421.442177 
L 272.127273 420.961692 
L 275.201653 421.250162 
L 278.276033 421.875224 
L 281.350413 421.823594 
L 284.424793 418.786414 
L 287.499174 421.189347 
L 290.573554 419.514661 
L 293.647934 420.668876 
L 296.722314 421.848453 
L 299.796694 421.074916 
L 302.871074 421.739813 
L 305.945455 423.327297 
L 309.019835 418.212225 
L 312.094215 420.351867 
L 315.168595 422.839801 
L 318.242975 418.872732 
L 321.317355 421.175201 
L 324.391736 421.064287 
L 327.466116 421.31154 
L 330.540496 421.09087 
L 333.614876 420.776659 
L 336.689256 424.429784 
L 339.763636 422.80823 
L 342.838017 422.859004 
L 345.912397 422.9197 
L 348.986777 420.431044 
L 352.061157 420.281591 
L 355.135537 422.606428 
L 358.209917 418.921801 
L 361.284298 421.526418 
L 364.358678 418.432746 
L 367.433058 420.570297 
L 370.507438 421.613446 
L 373.581818 421.46478 
" style="fill:none;stroke:#1f77b4;stroke-linecap:square;stroke-width:1.5;"/>
   </g>
   <g id="line2d_41">
    <path clip-path="url(#pc4cce95a74)" d="M 69.218182 423.858454 
L 72.292562 428.520757 
L 75.366942 443.113693 
L 78.441322 425.066101 
L 81.515702 414.469779 
L 84.590083 435.57271 
L 87.664463 459.724279 
L 90.738843 435.652269 
L 93.813223 447.484347 
L 96.887603 432.581932 
L 99.961983 446.904067 
L 103.036364 452.370185 
L 106.110744 450.209759 
L 109.185124 416.562131 
L 112.259504 435.116632 
L 115.333884 444.689343 
L 118.408264 443.826674 
L 121.482645 449.86976 
L 124.557025 436.203412 
L 127.631405 444.968278 
L 130.705785 437.703599 
L 133.780165 433.195232 
L 136.854545 443.172368 
L 139.928926 446.292038 
L 143.003306 442.197779 
L 146.077686 442.247119 
L 149.152066 436.225096 
L 152.226446 418.596201 
L 155.300826 447.735509 
L 158.375207 442.383867 
L 161.449587 430.574885 
L 164.523967 438.614091 
L 167.598347 446.027923 
L 170.672727 455.91236 
L 173.747107 438.202441 
L 176.821488 453.267988 
L 179.895868 419.451968 
L 182.970248 442.401237 
L 186.044628 438.831753 
L 189.119008 438.971807 
L 192.193388 437.819607 
L 195.267769 429.190742 
L 198.342149 421.315035 
L 201.416529 449.719419 
L 204.490909 428.60405 
L 207.565289 444.373947 
L 210.639669 448.594579 
L 213.71405 433.006573 
L 216.78843 428.217778 
L 219.86281 434.688904 
L 222.93719 446.74757 
L 226.01157 443.91495 
L 229.08595 447.584146 
L 232.160331 451.179856 
L 235.234711 454.53038 
L 238.309091 433.447239 
L 241.383471 451.081969 
L 244.457851 430.524743 
L 247.532231 439.009803 
L 250.606612 455.045079 
L 253.680992 433.711565 
L 256.755372 449.4415 
L 259.829752 459.325975 
L 262.904132 444.856599 
L 265.978512 443.590542 
L 269.052893 419.898567 
L 272.127273 436.968291 
L 275.201653 434.819904 
L 278.276033 448.19239 
L 281.350413 449.892201 
L 284.424793 436.264251 
L 287.499174 436.354742 
L 290.573554 449.28015 
L 293.647934 446.976358 
L 296.722314 425.090063 
L 299.796694 433.347746 
L 302.871074 437.467558 
L 305.945455 446.051686 
L 309.019835 431.6058 
L 312.094215 436.508689 
L 315.168595 460.155969 
L 318.242975 431.605679 
L 321.317355 442.626089 
L 324.391736 429.455167 
L 327.466116 436.565344 
L 330.540496 450.79113 
L 333.614876 442.201732 
L 336.689256 454.132113 
L 339.763636 436.584321 
L 342.838017 444.756327 
L 345.912397 444.612037 
L 348.986777 443.453948 
L 352.061157 453.692702 
L 355.135537 448.197771 
L 358.209917 438.341537 
L 361.284298 419.035538 
L 364.358678 443.937266 
L 367.433058 451.555359 
L 370.507438 439.081765 
L 373.581818 434.983845 
" style="fill:none;stroke:#ff7f0e;stroke-linecap:square;stroke-width:1.5;"/>
   </g>
   <g id="line2d_42">
    <path clip-path="url(#pc4cce95a74)" d="M 69.218182 403.106406 
L 72.292562 443.731704 
L 75.366942 463.706051 
L 78.441322 472.847373 
L 81.515702 478.747004 
L 84.590083 483.285381 
L 87.664463 486.861296 
L 90.738843 489.582575 
L 93.813223 491.615737 
L 96.887603 493.1743 
L 99.961983 494.437302 
L 103.036364 495.520912 
L 106.110744 496.491524 
L 109.185124 497.385816 
L 112.259504 498.224737 
L 115.333884 499.02127 
L 118.408264 499.784357 
L 121.482645 500.520799 
L 124.557025 501.236109 
L 127.631405 501.934856 
L 130.705785 502.62077 
L 133.780165 503.296752 
L 136.854545 503.964887 
L 139.928926 504.626479 
L 143.003306 505.282125 
L 146.077686 505.931828 
L 149.152066 506.575109 
L 152.226446 507.211122 
L 155.300826 507.838739 
L 158.375207 508.456623 
L 161.449587 509.063277 
L 164.523967 509.657091 
L 167.598347 510.236394 
L 170.672727 510.799516 
L 173.747107 511.344865 
L 176.821488 511.870998 
L 179.895868 512.376706 
L 182.970248 512.861075 
L 186.044628 513.323536 
L 189.119008 513.763889 
L 192.193388 514.182303 
L 195.267769 514.579291 
L 198.342149 514.955665 
L 201.416529 515.31248 
L 204.490909 515.65097 
L 207.565289 515.972476 
L 210.639669 516.278396 
L 213.71405 516.570124 
L 216.78843 516.849016 
L 219.86281 517.116357 
L 222.93719 517.373341 
L 226.01157 517.621063 
L 229.08595 517.860514 
L 232.160331 518.092584 
L 235.234711 518.318065 
L 238.309091 518.53766 
L 241.383471 518.751989 
L 244.457851 518.961599 
L 247.532231 519.166969 
L 250.606612 519.368519 
L 253.680992 519.566613 
L 256.755372 519.761566 
L 259.829752 519.953646 
L 262.904132 520.14308 
L 265.978512 520.330052 
L 269.052893 520.514714 
L 272.127273 520.697177 
L 275.201653 520.877523 
L 278.276033 521.055801 
L 281.350413 521.232033 
L 284.424793 521.406213 
L 287.499174 521.578311 
L 290.573554 521.748275 
L 293.647934 521.916038 
L 296.722314 522.081512 
L 299.796694 522.244603 
L 302.871074 522.405204 
L 305.945455 522.563204 
L 309.019835 522.718492 
L 312.094215 522.870955 
L 315.168595 523.020489 
L 318.242975 523.166994 
L 321.317355 523.310383 
L 324.391736 523.450582 
L 327.466116 523.587529 
L 330.540496 523.721182 
L 333.614876 523.851512 
L 336.689256 523.978512 
L 339.763636 524.102189 
L 342.838017 524.22257 
L 345.912397 524.339698 
L 348.986777 524.453632 
L 352.061157 524.564444 
L 355.135537 524.67222 
L 358.209917 524.777059 
L 361.284298 524.879068 
L 364.358678 524.97836 
L 367.433058 525.075058 
L 370.507438 525.169288 
L 373.581818 525.261176 
" style="fill:none;stroke:#2ca02c;stroke-linecap:square;stroke-width:1.5;"/>
   </g>
   <g id="line2d_43">
    <path clip-path="url(#pc4cce95a74)" d="M 69.218182 357.456008 
L 72.292562 361.966252 
L 75.366942 366.511423 
L 78.441322 371.03918 
L 81.515702 375.503045 
L 84.590083 379.865058 
L 87.664463 384.096852 
L 90.738843 388.179314 
L 93.813223 392.101289 
L 96.887603 395.857865 
L 99.961983 399.448649 
L 103.036364 402.876319 
L 106.110744 406.145519 
L 109.185124 409.262106 
L 112.259504 412.23266 
L 115.333884 415.064187 
L 118.408264 417.76393 
L 121.482645 420.33925 
L 124.557025 422.797534 
L 127.631405 425.146117 
L 130.705785 427.392222 
L 133.780165 429.542895 
L 136.854545 431.604952 
L 139.928926 433.584943 
L 143.003306 435.489112 
L 146.077686 437.323376 
L 149.152066 439.093312 
L 152.226446 440.804144 
L 155.300826 442.460746 
L 158.375207 444.067642 
L 161.449587 445.629008 
L 164.523967 447.148685 
L 167.598347 448.630183 
L 170.672727 450.07669 
L 173.747107 451.491084 
L 176.821488 452.875944 
L 179.895868 454.233554 
L 182.970248 455.565925 
L 186.044628 456.874795 
L 189.119008 458.161651 
L 192.193388 459.427741 
L 195.267769 460.674087 
L 198.342149 461.901505 
L 201.416529 463.110621 
L 204.490909 464.301892 
L 207.565289 465.475623 
L 210.639669 466.631989 
L 213.71405 467.771056 
L 216.78843 468.892798 
L 219.86281 469.997114 
L 222.93719 471.083852 
L 226.01157 472.152818 
L 229.08595 473.20379 
L 232.160331 474.236534 
L 235.234711 475.250809 
L 238.309091 476.24638 
L 241.383471 477.223017 
L 244.457851 478.180509 
L 247.532231 479.118658 
L 250.606612 480.037291 
L 253.680992 480.936256 
L 256.755372 481.815426 
L 259.829752 482.6747 
L 262.904132 483.514006 
L 265.978512 484.3333 
L 269.052893 485.132569 
L 272.127273 485.911831 
L 275.201653 486.671138 
L 278.276033 487.410575 
L 281.350413 488.130259 
L 284.424793 488.830345 
L 287.499174 489.51102 
L 290.573554 490.172505 
L 293.647934 490.815052 
L 296.722314 491.438948 
L 299.796694 492.044506 
L 302.871074 492.632068 
L 305.945455 493.201999 
L 309.019835 493.754689 
L 312.094215 494.290544 
L 315.168595 494.809989 
L 318.242975 495.31346 
L 321.317355 495.801404 
L 324.391736 496.274276 
L 327.466116 496.732535 
L 330.540496 497.176643 
L 333.614876 497.607061 
L 336.689256 498.024246 
L 339.763636 498.428652 
L 342.838017 498.820728 
L 345.912397 499.200913 
L 348.986777 499.569637 
L 352.061157 499.927322 
L 355.135537 500.274375 
L 358.209917 500.611196 
L 361.284298 500.938169 
L 364.358678 501.255667 
L 367.433058 501.564048 
L 370.507438 501.863661 
L 373.581818 502.154838 
" style="fill:none;stroke:#d62728;stroke-linecap:square;stroke-width:1.5;"/>
   </g>
   <g id="line2d_44">
    <path clip-path="url(#pc4cce95a74)" d="M 69.218182 347.378824 
L 72.292562 347.909842 
L 75.366942 348.443571 
L 78.441322 348.979921 
L 81.515702 349.518802 
L 84.590083 350.060122 
L 87.664463 350.603786 
L 90.738843 351.149701 
L 93.813223 351.697772 
L 96.887603 352.247901 
L 99.961983 352.79999 
L 103.036364 353.353942 
L 106.110744 353.909658 
L 109.185124 354.467037 
L 112.259504 355.025981 
L 115.333884 355.586389 
L 118.408264 356.14816 
L 121.482645 356.711194 
L 124.557025 357.275391 
L 127.631405 357.840651 
L 130.705785 358.406873 
L 133.780165 358.973959 
L 136.854545 359.541808 
L 139.928926 360.110324 
L 143.003306 360.679407 
L 146.077686 361.248961 
L 149.152066 361.818891 
L 152.226446 362.3891 
L 155.300826 362.959496 
L 158.375207 363.529985 
L 161.449587 364.100476 
L 164.523967 364.670879 
L 167.598347 365.241104 
L 170.672727 365.811065 
L 173.747107 366.380675 
L 176.821488 366.949851 
L 179.895868 367.518509 
L 182.970248 368.086568 
L 186.044628 368.653949 
L 189.119008 369.220575 
L 192.193388 369.78637 
L 195.267769 370.35126 
L 198.342149 370.915172 
L 201.416529 371.478037 
L 204.490909 372.039786 
L 207.565289 372.600352 
L 210.639669 373.159672 
L 213.71405 373.717682 
L 216.78843 374.274322 
L 219.86281 374.829533 
L 222.93719 375.383257 
L 226.01157 375.935441 
L 229.08595 376.48603 
L 232.160331 377.034975 
L 235.234711 377.582224 
L 238.309091 378.127731 
L 241.383471 378.671451 
L 244.457851 379.213338 
L 247.532231 379.753352 
L 250.606612 380.291451 
L 253.680992 380.827598 
L 256.755372 381.361755 
L 259.829752 381.893886 
L 262.904132 382.423959 
L 265.978512 382.951941 
L 269.052893 383.477801 
L 272.127273 384.001511 
L 275.201653 384.523043 
L 278.276033 385.042371 
L 281.350413 385.559471 
L 284.424793 386.074318 
L 287.499174 386.586892 
L 290.573554 387.097171 
L 293.647934 387.605136 
L 296.722314 388.110769 
L 299.796694 388.614052 
L 302.871074 389.114971 
L 305.945455 389.613509 
L 309.019835 390.109654 
L 312.094215 390.603393 
L 315.168595 391.094713 
L 318.242975 391.583605 
L 321.317355 392.070058 
L 324.391736 392.554063 
L 327.466116 393.035613 
L 330.540496 393.5147 
L 333.614876 393.991317 
L 336.689256 394.465459 
L 339.763636 394.937121 
L 342.838017 395.406298 
L 345.912397 395.872987 
L 348.986777 396.337185 
L 352.061157 396.798889 
L 355.135537 397.258097 
L 358.209917 397.714808 
L 361.284298 398.169021 
L 364.358678 398.620737 
L 367.433058 399.069954 
L 370.507438 399.516675 
L 373.581818 399.960899 
" style="fill:none;stroke:#9467bd;stroke-linecap:square;stroke-width:1.5;"/>
   </g>
   <g id="patch_9">
    <path d="M 54 534.155294 
L 54 338.484706 
" style="fill:none;stroke:#000000;stroke-linecap:square;stroke-linejoin:miter;stroke-width:0.8;"/>
   </g>
   <g id="patch_10">
    <path d="M 388.8 534.155294 
L 388.8 338.484706 
" style="fill:none;stroke:#000000;stroke-linecap:square;stroke-linejoin:miter;stroke-width:0.8;"/>
   </g>
   <g id="patch_11">
    <path d="M 54 534.155294 
L 388.8 534.155294 
" style="fill:none;stroke:#000000;stroke-linecap:square;stroke-linejoin:miter;stroke-width:0.8;"/>
   </g>
   <g id="patch_12">
    <path d="M 54 338.484706 
L 388.8 338.484706 
" style="fill:none;stroke:#000000;stroke-linecap:square;stroke-linejoin:miter;stroke-width:0.8;"/>
   </g>
  </g>
  <g id="axes_3">
   <g id="patch_13">
    <path d="M 54 768.96 
L 388.8 768.96 
L 388.8 573.289412 
L 54 573.289412 
z
" style="fill:#ffffff;"/>
   </g>
   <g id="matplotlib.axis_5">
    <g id="xtick_13">
     <g id="line2d_45">
      <g>
       <use style="stroke:#000000;stroke-width:0.8;" x="69.218182" xlink:href="#m52db903ee0" y="768.96"/>
      </g>
     </g>
     <g id="text_32">
      <!-- 0 -->
      <g transform="translate(66.036932 783.558437)scale(0.1 -0.1)">
       <use xlink:href="#DejaVuSans-30"/>
      </g>
     </g>
    </g>
    <g id="xtick_14">
     <g id="line2d_46">
      <g>
       <use style="stroke:#000000;stroke-width:0.8;" x="130.705785" xlink:href="#m52db903ee0" y="768.96"/>
      </g>
     </g>
     <g id="text_33">
      <!-- 20 -->
      <g transform="translate(124.343285 783.558437)scale(0.1 -0.1)">
       <use xlink:href="#DejaVuSans-32"/>
       <use x="63.623047" xlink:href="#DejaVuSans-30"/>
      </g>
     </g>
    </g>
    <g id="xtick_15">
     <g id="line2d_47">
      <g>
       <use style="stroke:#000000;stroke-width:0.8;" x="192.193388" xlink:href="#m52db903ee0" y="768.96"/>
      </g>
     </g>
     <g id="text_34">
      <!-- 40 -->
      <g transform="translate(185.830888 783.558437)scale(0.1 -0.1)">
       <use xlink:href="#DejaVuSans-34"/>
       <use x="63.623047" xlink:href="#DejaVuSans-30"/>
      </g>
     </g>
    </g>
    <g id="xtick_16">
     <g id="line2d_48">
      <g>
       <use style="stroke:#000000;stroke-width:0.8;" x="253.680992" xlink:href="#m52db903ee0" y="768.96"/>
      </g>
     </g>
     <g id="text_35">
      <!-- 60 -->
      <g transform="translate(247.318492 783.558437)scale(0.1 -0.1)">
       <use xlink:href="#DejaVuSans-36"/>
       <use x="63.623047" xlink:href="#DejaVuSans-30"/>
      </g>
     </g>
    </g>
    <g id="xtick_17">
     <g id="line2d_49">
      <g>
       <use style="stroke:#000000;stroke-width:0.8;" x="315.168595" xlink:href="#m52db903ee0" y="768.96"/>
      </g>
     </g>
     <g id="text_36">
      <!-- 80 -->
      <g transform="translate(308.806095 783.558437)scale(0.1 -0.1)">
       <use xlink:href="#DejaVuSans-38"/>
       <use x="63.623047" xlink:href="#DejaVuSans-30"/>
      </g>
     </g>
    </g>
    <g id="xtick_18">
     <g id="line2d_50">
      <g>
       <use style="stroke:#000000;stroke-width:0.8;" x="376.656198" xlink:href="#m52db903ee0" y="768.96"/>
      </g>
     </g>
     <g id="text_37">
      <!-- 100 -->
      <g transform="translate(367.112448 783.558437)scale(0.1 -0.1)">
       <use xlink:href="#DejaVuSans-31"/>
       <use x="63.623047" xlink:href="#DejaVuSans-30"/>
       <use x="127.246094" xlink:href="#DejaVuSans-30"/>
      </g>
     </g>
    </g>
    <g id="text_38">
     <!-- Iterations -->
     <g transform="translate(197.586719 797.236562)scale(0.1 -0.1)">
      <defs>
       <path d="M 628 4666 
L 1259 4666 
L 1259 0 
L 628 0 
L 628 4666 
z
" id="DejaVuSans-49" transform="scale(0.015625)"/>
       <path d="M 1172 4494 
L 1172 3500 
L 2356 3500 
L 2356 3053 
L 1172 3053 
L 1172 1153 
Q 1172 725 1289 603 
Q 1406 481 1766 481 
L 2356 481 
L 2356 0 
L 1766 0 
Q 1100 0 847 248 
Q 594 497 594 1153 
L 594 3053 
L 172 3053 
L 172 3500 
L 594 3500 
L 594 4494 
L 1172 4494 
z
" id="DejaVuSans-74" transform="scale(0.015625)"/>
       <path d="M 2194 1759 
Q 1497 1759 1228 1600 
Q 959 1441 959 1056 
Q 959 750 1161 570 
Q 1363 391 1709 391 
Q 2188 391 2477 730 
Q 2766 1069 2766 1631 
L 2766 1759 
L 2194 1759 
z
M 3341 1997 
L 3341 0 
L 2766 0 
L 2766 531 
Q 2569 213 2275 61 
Q 1981 -91 1556 -91 
Q 1019 -91 701 211 
Q 384 513 384 1019 
Q 384 1609 779 1909 
Q 1175 2209 1959 2209 
L 2766 2209 
L 2766 2266 
Q 2766 2663 2505 2880 
Q 2244 3097 1772 3097 
Q 1472 3097 1187 3025 
Q 903 2953 641 2809 
L 641 3341 
Q 956 3463 1253 3523 
Q 1550 3584 1831 3584 
Q 2591 3584 2966 3190 
Q 3341 2797 3341 1997 
z
" id="DejaVuSans-61" transform="scale(0.015625)"/>
       <path d="M 603 3500 
L 1178 3500 
L 1178 0 
L 603 0 
L 603 3500 
z
M 603 4863 
L 1178 4863 
L 1178 4134 
L 603 4134 
L 603 4863 
z
" id="DejaVuSans-69" transform="scale(0.015625)"/>
       <path d="M 1959 3097 
Q 1497 3097 1228 2736 
Q 959 2375 959 1747 
Q 959 1119 1226 758 
Q 1494 397 1959 397 
Q 2419 397 2687 759 
Q 2956 1122 2956 1747 
Q 2956 2369 2687 2733 
Q 2419 3097 1959 3097 
z
M 1959 3584 
Q 2709 3584 3137 3096 
Q 3566 2609 3566 1747 
Q 3566 888 3137 398 
Q 2709 -91 1959 -91 
Q 1206 -91 779 398 
Q 353 888 353 1747 
Q 353 2609 779 3096 
Q 1206 3584 1959 3584 
z
" id="DejaVuSans-6f" transform="scale(0.015625)"/>
       <path d="M 2834 3397 
L 2834 2853 
Q 2591 2978 2328 3040 
Q 2066 3103 1784 3103 
Q 1356 3103 1142 2972 
Q 928 2841 928 2578 
Q 928 2378 1081 2264 
Q 1234 2150 1697 2047 
L 1894 2003 
Q 2506 1872 2764 1633 
Q 3022 1394 3022 966 
Q 3022 478 2636 193 
Q 2250 -91 1575 -91 
Q 1294 -91 989 -36 
Q 684 19 347 128 
L 347 722 
Q 666 556 975 473 
Q 1284 391 1588 391 
Q 1994 391 2212 530 
Q 2431 669 2431 922 
Q 2431 1156 2273 1281 
Q 2116 1406 1581 1522 
L 1381 1569 
Q 847 1681 609 1914 
Q 372 2147 372 2553 
Q 372 3047 722 3315 
Q 1072 3584 1716 3584 
Q 2034 3584 2315 3537 
Q 2597 3491 2834 3397 
z
" id="DejaVuSans-73" transform="scale(0.015625)"/>
      </defs>
      <use xlink:href="#DejaVuSans-49"/>
      <use x="29.492188" xlink:href="#DejaVuSans-74"/>
      <use x="68.701172" xlink:href="#DejaVuSans-65"/>
      <use x="130.224609" xlink:href="#DejaVuSans-72"/>
      <use x="171.337891" xlink:href="#DejaVuSans-61"/>
      <use x="232.617188" xlink:href="#DejaVuSans-74"/>
      <use x="271.826172" xlink:href="#DejaVuSans-69"/>
      <use x="299.609375" xlink:href="#DejaVuSans-6f"/>
      <use x="360.791016" xlink:href="#DejaVuSans-6e"/>
      <use x="424.169922" xlink:href="#DejaVuSans-73"/>
     </g>
    </g>
   </g>
   <g id="matplotlib.axis_6">
    <g id="ytick_13">
     <g id="line2d_51">
      <g>
       <use style="stroke:#000000;stroke-width:0.8;" x="54" xlink:href="#m1c1f44dfc3" y="767.432541"/>
      </g>
     </g>
     <g id="text_39">
      <!-- 0 -->
      <g transform="translate(40.6375 771.231759)scale(0.1 -0.1)">
       <use xlink:href="#DejaVuSans-30"/>
      </g>
     </g>
    </g>
    <g id="ytick_14">
     <g id="line2d_52">
      <g>
       <use style="stroke:#000000;stroke-width:0.8;" x="54" xlink:href="#m1c1f44dfc3" y="734.801717"/>
      </g>
     </g>
     <g id="text_40">
      <!-- 5 -->
      <g transform="translate(40.6375 738.600936)scale(0.1 -0.1)">
       <use xlink:href="#DejaVuSans-35"/>
      </g>
     </g>
    </g>
    <g id="ytick_15">
     <g id="line2d_53">
      <g>
       <use style="stroke:#000000;stroke-width:0.8;" x="54" xlink:href="#m1c1f44dfc3" y="702.170893"/>
      </g>
     </g>
     <g id="text_41">
      <!-- 10 -->
      <g transform="translate(34.275 705.970112)scale(0.1 -0.1)">
       <use xlink:href="#DejaVuSans-31"/>
       <use x="63.623047" xlink:href="#DejaVuSans-30"/>
      </g>
     </g>
    </g>
    <g id="ytick_16">
     <g id="line2d_54">
      <g>
       <use style="stroke:#000000;stroke-width:0.8;" x="54" xlink:href="#m1c1f44dfc3" y="669.540069"/>
      </g>
     </g>
     <g id="text_42">
      <!-- 15 -->
      <g transform="translate(34.275 673.339288)scale(0.1 -0.1)">
       <use xlink:href="#DejaVuSans-31"/>
       <use x="63.623047" xlink:href="#DejaVuSans-35"/>
      </g>
     </g>
    </g>
    <g id="ytick_17">
     <g id="line2d_55">
      <g>
       <use style="stroke:#000000;stroke-width:0.8;" x="54" xlink:href="#m1c1f44dfc3" y="636.909246"/>
      </g>
     </g>
     <g id="text_43">
      <!-- 20 -->
      <g transform="translate(34.275 640.708464)scale(0.1 -0.1)">
       <use xlink:href="#DejaVuSans-32"/>
       <use x="63.623047" xlink:href="#DejaVuSans-30"/>
      </g>
     </g>
    </g>
    <g id="ytick_18">
     <g id="line2d_56">
      <g>
       <use style="stroke:#000000;stroke-width:0.8;" x="54" xlink:href="#m1c1f44dfc3" y="604.278422"/>
      </g>
     </g>
     <g id="text_44">
      <!-- 25 -->
      <g transform="translate(34.275 608.077641)scale(0.1 -0.1)">
       <use xlink:href="#DejaVuSans-32"/>
       <use x="63.623047" xlink:href="#DejaVuSans-35"/>
      </g>
     </g>
    </g>
    <g id="text_45">
     <!-- $\Vert \nabla_\theta E \Vert$ -->
     <g transform="translate(27.875 684.974706)rotate(-90)scale(0.1 -0.1)">
      <defs>
       <path d="M 1344 4891 
L 1344 -1509 
L 813 -1509 
L 813 4891 
L 1344 4891 
z
M 2376 4891 
L 2376 -1509 
L 1845 -1509 
L 1845 4891 
L 2376 4891 
z
" id="DejaVuSans-2016" transform="scale(0.015625)"/>
       <path d="M 2138 659 
L 3444 4047 
L 831 4047 
L 2138 659 
z
M 1791 0 
L -19 4603 
L 4300 4603 
L 2491 0 
L 1791 0 
z
" id="DejaVuSans-2207" transform="scale(0.015625)"/>
       <path d="M 2913 2219 
L 925 2219 
Q 791 1284 928 888 
Q 1100 400 1566 400 
Q 2034 400 2391 891 
Q 2703 1322 2913 2219 
z
M 3009 2750 
Q 3094 3638 2984 3950 
Q 2813 4444 2353 4444 
Q 1875 4444 1525 3956 
Q 1250 3563 1034 2750 
L 3009 2750 
z
M 2444 4913 
Q 3194 4913 3494 4250 
Q 3794 3591 3566 2422 
Q 3341 1256 2781 594 
Q 2225 -72 1475 -72 
Q 722 -72 425 594 
Q 128 1256 353 2422 
Q 581 3591 1134 4250 
Q 1691 4913 2444 4913 
z
" id="DejaVuSans-Oblique-3b8" transform="scale(0.015625)"/>
      </defs>
      <use transform="translate(0 0.578125)" xlink:href="#DejaVuSans-2016"/>
      <use transform="translate(50 0.578125)" xlink:href="#DejaVuSans-2207"/>
      <use transform="translate(117.851562 -15.828125)scale(0.7)" xlink:href="#DejaVuSans-Oblique-3b8"/>
      <use transform="translate(163.413086 0.578125)" xlink:href="#DejaVuSans-Oblique-45"/>
      <use transform="translate(226.59668 0.578125)" xlink:href="#DejaVuSans-2016"/>
     </g>
    </g>
   </g>
   <g id="line2d_57">
    <path clip-path="url(#p4246215ad4)" d="M 69.218182 739.387316 
L 72.292562 739.519007 
L 75.366942 740.879291 
L 78.441322 740.863078 
L 81.515702 740.354843 
L 84.590083 741.096207 
L 87.664463 741.531507 
L 90.738843 740.518322 
L 93.813223 739.465245 
L 96.887603 741.506055 
L 99.961983 740.352822 
L 103.036364 738.16005 
L 106.110744 739.164567 
L 109.185124 738.941615 
L 112.259504 740.711881 
L 115.333884 741.660873 
L 118.408264 740.291922 
L 121.482645 741.167325 
L 124.557025 740.368313 
L 127.631405 739.53504 
L 130.705785 740.253305 
L 133.780165 740.842918 
L 136.854545 738.958668 
L 139.928926 738.558546 
L 143.003306 739.163181 
L 146.077686 741.126778 
L 149.152066 740.816201 
L 152.226446 740.303867 
L 155.300826 739.916051 
L 158.375207 741.021165 
L 161.449587 741.176094 
L 164.523967 739.893306 
L 167.598347 741.229558 
L 170.672727 739.624324 
L 173.747107 738.798229 
L 176.821488 738.026455 
L 179.895868 742.065435 
L 182.970248 739.419476 
L 186.044628 739.490639 
L 189.119008 740.601975 
L 192.193388 739.365258 
L 195.267769 737.088122 
L 198.342149 741.016362 
L 201.416529 740.312236 
L 204.490909 739.670068 
L 207.565289 739.145136 
L 210.639669 741.416861 
L 213.71405 739.727097 
L 216.78843 741.515901 
L 219.86281 738.952867 
L 222.93719 740.056386 
L 226.01157 739.451947 
L 229.08595 740.627538 
L 232.160331 739.880676 
L 235.234711 741.886412 
L 238.309091 738.492494 
L 241.383471 742.170021 
L 244.457851 739.063636 
L 247.532231 739.90391 
L 250.606612 740.664959 
L 253.680992 739.955218 
L 256.755372 740.289429 
L 259.829752 738.487879 
L 262.904132 739.969809 
L 265.978512 738.306754 
L 269.052893 738.114268 
L 272.127273 739.292236 
L 275.201653 739.939048 
L 278.276033 742.412649 
L 281.350413 738.551032 
L 284.424793 736.844153 
L 287.499174 738.040683 
L 290.573554 740.94442 
L 293.647934 740.284823 
L 296.722314 739.930138 
L 299.796694 741.794894 
L 302.871074 740.24458 
L 305.945455 740.195603 
L 309.019835 741.860856 
L 312.094215 741.0223 
L 315.168595 740.929184 
L 318.242975 740.158996 
L 321.317355 740.657751 
L 324.391736 738.890016 
L 327.466116 738.729004 
L 330.540496 742.255368 
L 333.614876 741.043383 
L 336.689256 741.314723 
L 339.763636 740.038473 
L 342.838017 741.558996 
L 345.912397 739.625413 
L 348.986777 738.657664 
L 352.061157 738.65787 
L 355.135537 738.289798 
L 358.209917 739.85425 
L 361.284298 739.786981 
L 364.358678 740.404241 
L 367.433058 740.768954 
L 370.507438 738.651609 
L 373.581818 740.250786 
" style="fill:none;stroke:#1f77b4;stroke-linecap:square;stroke-width:1.5;"/>
   </g>
   <g id="line2d_58">
    <path clip-path="url(#p4246215ad4)" d="M 69.218182 706.676658 
L 72.292562 707.962953 
L 75.366942 692.173375 
L 78.441322 661.566203 
L 81.515702 686.077117 
L 84.590083 709.944443 
L 87.664463 688.87944 
L 90.738843 675.043924 
L 93.813223 665.765542 
L 96.887603 690.122752 
L 99.961983 683.410053 
L 103.036364 678.85884 
L 106.110744 642.684852 
L 109.185124 672.232601 
L 112.259504 676.156181 
L 115.333884 695.53044 
L 118.408264 703.904671 
L 121.482645 669.932517 
L 124.557025 690.22855 
L 127.631405 665.312821 
L 130.705785 666.98716 
L 133.780165 693.384186 
L 136.854545 680.339137 
L 139.928926 687.691725 
L 143.003306 682.344695 
L 146.077686 657.650437 
L 149.152066 668.041906 
L 152.226446 698.387991 
L 155.300826 685.359342 
L 158.375207 653.365946 
L 161.449587 674.952789 
L 164.523967 685.978132 
L 167.598347 682.907626 
L 170.672727 669.064606 
L 173.747107 696.760953 
L 176.821488 671.055113 
L 179.895868 687.874776 
L 182.970248 673.820204 
L 186.044628 659.92075 
L 189.119008 681.995724 
L 192.193388 635.740255 
L 195.267769 682.608059 
L 198.342149 701.392819 
L 201.416529 687.699573 
L 204.490909 694.797155 
L 207.565289 693.961633 
L 210.639669 685.3349 
L 213.71405 666.361388 
L 216.78843 674.780755 
L 219.86281 697.475988 
L 222.93719 698.200602 
L 226.01157 688.97064 
L 229.08595 693.654511 
L 232.160331 699.686661 
L 235.234711 670.941377 
L 238.309091 701.36709 
L 241.383471 673.23533 
L 244.457851 682.519768 
L 247.532231 688.830338 
L 250.606612 675.262713 
L 253.680992 694.271446 
L 256.755372 686.152991 
L 259.829752 660.89585 
L 262.904132 693.919309 
L 265.978512 641.718368 
L 269.052893 678.241644 
L 272.127273 700.473097 
L 275.201653 679.74512 
L 278.276033 696.094283 
L 281.350413 658.092324 
L 284.424793 676.877285 
L 287.499174 685.186831 
L 290.573554 685.417856 
L 293.647934 684.290176 
L 296.722314 676.778689 
L 299.796694 681.226096 
L 302.871074 677.119628 
L 305.945455 664.286703 
L 309.019835 689.848021 
L 312.094215 697.59206 
L 315.168595 657.649412 
L 318.242975 694.343244 
L 321.317355 682.269394 
L 324.391736 678.386852 
L 327.466116 705.733965 
L 330.540496 692.968515 
L 333.614876 677.249614 
L 336.689256 675.870011 
L 339.763636 671.680408 
L 342.838017 679.388615 
L 345.912397 672.506525 
L 348.986777 681.088031 
L 352.061157 677.238118 
L 355.135537 662.695026 
L 358.209917 646.834094 
L 361.284298 696.930782 
L 364.358678 699.069206 
L 367.433058 680.922048 
L 370.507438 669.836058 
L 373.581818 692.23373 
" style="fill:none;stroke:#ff7f0e;stroke-linecap:square;stroke-width:1.5;"/>
   </g>
   <g id="line2d_59">
    <path clip-path="url(#p4246215ad4)" d="M 69.218182 599.383628 
L 72.292562 644.927179 
L 75.366942 687.871927 
L 78.441322 705.458708 
L 81.515702 713.615062 
L 84.590083 719.528054 
L 87.664463 725.477281 
L 90.738843 731.197562 
L 93.813223 735.889893 
L 96.887603 739.24791 
L 99.961983 741.488735 
L 103.036364 742.983712 
L 106.110744 744.028639 
L 109.185124 744.804986 
L 112.259504 745.411781 
L 115.333884 745.900433 
L 118.408264 746.297703 
L 121.482645 746.618883 
L 124.557025 746.874905 
L 127.631405 747.075879 
L 130.705785 747.232466 
L 133.780165 747.35597 
L 136.854545 747.457768 
L 139.928926 747.548549 
L 143.003306 747.63769 
L 146.077686 747.732936 
L 149.152066 747.840437 
L 152.226446 747.965005 
L 155.300826 748.110483 
L 158.375207 748.280034 
L 161.449587 748.476277 
L 164.523967 748.701257 
L 167.598347 748.956277 
L 170.672727 749.241686 
L 173.747107 749.55669 
L 176.821488 749.899246 
L 179.895868 750.26606 
L 182.970248 750.652713 
L 186.044628 751.05388 
L 189.119008 751.463644 
L 192.193388 751.875855 
L 195.267769 752.28449 
L 198.342149 752.683991 
L 201.416529 753.069537 
L 204.490909 753.437225 
L 207.565289 753.784161 
L 210.639669 754.108461 
L 213.71405 754.40917 
L 216.78843 754.686141 
L 219.86281 754.93987 
L 222.93719 755.171332 
L 226.01157 755.381828 
L 229.08595 755.572848 
L 232.160331 755.745972 
L 235.234711 755.902786 
L 238.309091 756.044835 
L 241.383471 756.173595 
L 244.457851 756.29046 
L 247.532231 756.39674 
L 250.606612 756.493666 
L 253.680992 756.582403 
L 256.755372 756.664058 
L 259.829752 756.739686 
L 262.904132 756.810305 
L 265.978512 756.876896 
L 269.052893 756.940402 
L 272.127273 757.001737 
L 275.201653 757.061776 
L 278.276033 757.121353 
L 281.350413 757.181256 
L 284.424793 757.242219 
L 287.499174 757.304917 
L 290.573554 757.369957 
L 293.647934 757.43787 
L 296.722314 757.509105 
L 299.796694 757.584026 
L 302.871074 757.662906 
L 305.945455 757.745921 
L 309.019835 757.833153 
L 312.094215 757.924591 
L 315.168595 758.02013 
L 318.242975 758.119577 
L 321.317355 758.222656 
L 324.391736 758.32902 
L 327.466116 758.438253 
L 330.540496 758.549887 
L 333.614876 758.663408 
L 336.689256 758.77827 
L 339.763636 758.893908 
L 342.838017 759.009746 
L 345.912397 759.125212 
L 348.986777 759.239745 
L 352.061157 759.352809 
L 355.135537 759.463895 
L 358.209917 759.572537 
L 361.284298 759.678307 
L 364.358678 759.780829 
L 367.433058 759.879773 
L 370.507438 759.974866 
L 373.581818 760.065882 
" style="fill:none;stroke:#2ca02c;stroke-linecap:square;stroke-width:1.5;"/>
   </g>
   <g id="line2d_60">
    <path clip-path="url(#p4246215ad4)" d="M 69.218182 602.976464 
L 72.292562 602.092874 
L 75.366942 602.183268 
L 78.441322 603.157269 
L 81.515702 604.881422 
L 84.590083 607.200911 
L 87.664463 609.960617 
L 90.738843 613.021094 
L 93.813223 616.267487 
L 96.887603 619.611766 
L 99.961983 622.990209 
L 103.036364 626.358445 
L 106.110744 629.686007 
L 109.185124 632.951595 
L 112.259504 636.139578 
L 115.333884 639.237731 
L 118.408264 642.235987 
L 121.482645 645.125873 
L 124.557025 647.900333 
L 127.631405 650.553734 
L 130.705785 653.081916 
L 133.780165 655.482197 
L 136.854545 657.753338 
L 139.928926 659.89545 
L 143.003306 661.909863 
L 146.077686 663.798982 
L 149.152066 665.566143 
L 152.226446 667.215472 
L 155.300826 668.75177 
L 158.375207 670.180408 
L 161.449587 671.507243 
L 164.523967 672.738542 
L 167.598347 673.880921 
L 170.672727 674.941281 
L 173.747107 675.926751 
L 176.821488 676.844618 
L 179.895868 677.702262 
L 182.970248 678.507082 
L 186.044628 679.266411 
L 189.119008 679.987438 
L 192.193388 680.677118 
L 195.267769 681.342091 
L 198.342149 681.988608 
L 201.416529 682.622453 
L 204.490909 683.248896 
L 207.565289 683.872647 
L 210.639669 684.497828 
L 213.71405 685.127974 
L 216.78843 685.766036 
L 219.86281 686.414411 
L 222.93719 687.074981 
L 226.01157 687.749162 
L 229.08595 688.43796 
L 232.160331 689.142034 
L 235.234711 689.861748 
L 238.309091 690.597232 
L 241.383471 691.348422 
L 244.457851 692.115104 
L 247.532231 692.896944 
L 250.606612 693.693505 
L 253.680992 694.504264 
L 256.755372 695.328613 
L 259.829752 696.165865 
L 262.904132 697.01525 
L 265.978512 697.875908 
L 269.052893 698.746891 
L 272.127273 699.627158 
L 275.201653 700.515575 
L 278.276033 701.410924 
L 281.350413 702.311903 
L 284.424793 703.217145 
L 287.499174 704.125225 
L 290.573554 705.03468 
L 293.647934 705.944023 
L 296.722314 706.851767 
L 299.796694 707.756437 
L 302.871074 708.65659 
L 305.945455 709.550833 
L 309.019835 710.437835 
L 312.094215 711.316344 
L 315.168595 712.185193 
L 318.242975 713.043309 
L 321.317355 713.889722 
L 324.391736 714.723564 
L 327.466116 715.544076 
L 330.540496 716.350602 
L 333.614876 717.142592 
L 336.689256 717.919594 
L 339.763636 718.681256 
L 342.838017 719.427312 
L 345.912397 720.157585 
L 348.986777 720.871975 
L 352.061157 721.570453 
L 355.135537 722.253057 
L 358.209917 722.919881 
L 361.284298 723.571072 
L 364.358678 724.206823 
L 367.433058 724.827364 
L 370.507438 725.432962 
L 373.581818 726.023909 
" style="fill:none;stroke:#d62728;stroke-linecap:square;stroke-width:1.5;"/>
   </g>
   <g id="line2d_61">
    <path clip-path="url(#p4246215ad4)" d="M 69.218182 588.824625 
L 72.292562 588.36514 
L 75.366942 587.92167 
L 78.441322 587.494363 
L 81.515702 587.08335 
L 84.590083 586.688748 
L 87.664463 586.310658 
L 90.738843 585.949167 
L 93.813223 585.604347 
L 96.887603 585.276253 
L 99.961983 584.964926 
L 103.036364 584.670391 
L 106.110744 584.39266 
L 109.185124 584.131727 
L 112.259504 583.887573 
L 115.333884 583.660166 
L 118.408264 583.449456 
L 121.482645 583.255381 
L 124.557025 583.077865 
L 127.631405 582.916818 
L 130.705785 582.772138 
L 133.780165 582.643709 
L 136.854545 582.531402 
L 139.928926 582.435079 
L 143.003306 582.354586 
L 146.077686 582.289762 
L 149.152066 582.240433 
L 152.226446 582.206415 
L 155.300826 582.187514 
L 158.375207 582.183529 
L 161.449587 582.194249 
L 164.523967 582.219453 
L 167.598347 582.258916 
L 170.672727 582.312402 
L 173.747107 582.379672 
L 176.821488 582.46048 
L 179.895868 582.554572 
L 182.970248 582.661694 
L 186.044628 582.781582 
L 189.119008 582.913973 
L 192.193388 583.058597 
L 195.267769 583.215185 
L 198.342149 583.383461 
L 201.416529 583.563151 
L 204.490909 583.753978 
L 207.565289 583.955665 
L 210.639669 584.167933 
L 213.71405 584.390504 
L 216.78843 584.623101 
L 219.86281 584.865447 
L 222.93719 585.117266 
L 226.01157 585.378284 
L 229.08595 585.64823 
L 232.160331 585.926832 
L 235.234711 586.213825 
L 238.309091 586.508943 
L 241.383471 586.811925 
L 244.457851 587.122514 
L 247.532231 587.440456 
L 250.606612 587.7655 
L 253.680992 588.097399 
L 256.755372 588.435913 
L 259.829752 588.780804 
L 262.904132 589.131838 
L 265.978512 589.488788 
L 269.052893 589.85143 
L 272.127273 590.219547 
L 275.201653 590.592925 
L 278.276033 590.971355 
L 281.350413 591.354635 
L 284.424793 591.742567 
L 287.499174 592.134959 
L 290.573554 592.531624 
L 293.647934 592.932379 
L 296.722314 593.337047 
L 299.796694 593.745458 
L 302.871074 594.157446 
L 305.945455 594.572848 
L 309.019835 594.99151 
L 312.094215 595.41328 
L 315.168595 595.838014 
L 318.242975 596.265569 
L 321.317355 596.69581 
L 324.391736 597.128606 
L 327.466116 597.563831 
L 330.540496 598.001363 
L 333.614876 598.441084 
L 336.689256 598.882881 
L 339.763636 599.326647 
L 342.838017 599.772276 
L 345.912397 600.219669 
L 348.986777 600.668729 
L 352.061157 601.119363 
L 355.135537 601.571484 
L 358.209917 602.025005 
L 361.284298 602.479846 
L 364.358678 602.935929 
L 367.433058 603.393178 
L 370.507438 603.851521 
L 373.581818 604.310891 
" style="fill:none;stroke:#9467bd;stroke-linecap:square;stroke-width:1.5;"/>
   </g>
   <g id="patch_14">
    <path d="M 54 768.96 
L 54 573.289412 
" style="fill:none;stroke:#000000;stroke-linecap:square;stroke-linejoin:miter;stroke-width:0.8;"/>
   </g>
   <g id="patch_15">
    <path d="M 388.8 768.96 
L 388.8 573.289412 
" style="fill:none;stroke:#000000;stroke-linecap:square;stroke-linejoin:miter;stroke-width:0.8;"/>
   </g>
   <g id="patch_16">
    <path d="M 54 768.96 
L 388.8 768.96 
" style="fill:none;stroke:#000000;stroke-linecap:square;stroke-linejoin:miter;stroke-width:0.8;"/>
   </g>
   <g id="patch_17">
    <path d="M 54 573.289412 
L 388.8 573.289412 
" style="fill:none;stroke:#000000;stroke-linecap:square;stroke-linejoin:miter;stroke-width:0.8;"/>
   </g>
  </g>
 </g>
 <defs>
  <clipPath id="p1d3f607e03">
   <rect height="195.670588" width="334.8" x="54" y="103.68"/>
  </clipPath>
  <clipPath id="pc4cce95a74">
   <rect height="195.670588" width="334.8" x="54" y="338.484706"/>
  </clipPath>
  <clipPath id="p4246215ad4">
   <rect height="195.670588" width="334.8" x="54" y="573.289412"/>
  </clipPath>
 </defs>
</svg>
