<?xml version="1.0" encoding="utf-8" standalone="no"?>
<!DOCTYPE svg PUBLIC "-//W3C//DTD SVG 1.1//EN"
  "http://www.w3.org/Graphics/SVG/1.1/DTD/svg11.dtd">
<svg height="864pt" version="1.1" viewBox="0 0 432 864" width="432pt" xmlns="http://www.w3.org/2000/svg" xmlns:xlink="http://www.w3.org/1999/xlink">
 <metadata>
  <rdf:RDF xmlns:cc="http://creativecommons.org/ns#" xmlns:dc="http://purl.org/dc/elements/1.1/" xmlns:rdf="http://www.w3.org/1999/02/22-rdf-syntax-ns#">
   <cc:Work>
    <dc:type rdf:resource="http://purl.org/dc/dcmitype/StillImage"/>
    <dc:date>2023-01-14T08:44:54.509190</dc:date>
    <dc:format>image/svg+xml</dc:format>
    <dc:creator>
     <cc:Agent>
      <dc:title>Matplotlib v3.4.3, https://matplotlib.org/</dc:title>
     </cc:Agent>
    </dc:creator>
   </cc:Work>
  </rdf:RDF>
 </metadata>
 <defs>
  <style type="text/css">*{stroke-linecap:butt;stroke-linejoin:round;}</style>
 </defs>
 <g id="figure_1">
  <g id="patch_1">
   <path d="M 0 864 
L 432 864 
L 432 0 
L 0 0 
z
" style="fill:#ffffff;"/>
  </g>
  <g id="axes_1">
   <g id="patch_2">
    <path d="M 54 299.350588 
L 388.8 299.350588 
L 388.8 103.68 
L 54 103.68 
z
" style="fill:#ffffff;"/>
   </g>
   <g id="matplotlib.axis_1">
    <g id="xtick_1">
     <g id="line2d_1">
      <defs>
       <path d="M 0 0 
L 0 3.5 
" id="md4455fc55f" style="stroke:#000000;stroke-width:0.8;"/>
      </defs>
      <g>
       <use style="stroke:#000000;stroke-width:0.8;" x="69.218182" xlink:href="#md4455fc55f" y="299.350588"/>
      </g>
     </g>
     <g id="text_1">
      <!-- 0 -->
      <g transform="translate(66.036932 313.949026)scale(0.1 -0.1)">
       <defs>
        <path d="M 2034 4250 
Q 1547 4250 1301 3770 
Q 1056 3291 1056 2328 
Q 1056 1369 1301 889 
Q 1547 409 2034 409 
Q 2525 409 2770 889 
Q 3016 1369 3016 2328 
Q 3016 3291 2770 3770 
Q 2525 4250 2034 4250 
z
M 2034 4750 
Q 2819 4750 3233 4129 
Q 3647 3509 3647 2328 
Q 3647 1150 3233 529 
Q 2819 -91 2034 -91 
Q 1250 -91 836 529 
Q 422 1150 422 2328 
Q 422 3509 836 4129 
Q 1250 4750 2034 4750 
z
" id="DejaVuSans-30" transform="scale(0.015625)"/>
       </defs>
       <use xlink:href="#DejaVuSans-30"/>
      </g>
     </g>
    </g>
    <g id="xtick_2">
     <g id="line2d_2">
      <g>
       <use style="stroke:#000000;stroke-width:0.8;" x="130.705785" xlink:href="#md4455fc55f" y="299.350588"/>
      </g>
     </g>
     <g id="text_2">
      <!-- 20 -->
      <g transform="translate(124.343285 313.949026)scale(0.1 -0.1)">
       <defs>
        <path d="M 1228 531 
L 3431 531 
L 3431 0 
L 469 0 
L 469 531 
Q 828 903 1448 1529 
Q 2069 2156 2228 2338 
Q 2531 2678 2651 2914 
Q 2772 3150 2772 3378 
Q 2772 3750 2511 3984 
Q 2250 4219 1831 4219 
Q 1534 4219 1204 4116 
Q 875 4013 500 3803 
L 500 4441 
Q 881 4594 1212 4672 
Q 1544 4750 1819 4750 
Q 2544 4750 2975 4387 
Q 3406 4025 3406 3419 
Q 3406 3131 3298 2873 
Q 3191 2616 2906 2266 
Q 2828 2175 2409 1742 
Q 1991 1309 1228 531 
z
" id="DejaVuSans-32" transform="scale(0.015625)"/>
       </defs>
       <use xlink:href="#DejaVuSans-32"/>
       <use x="63.623047" xlink:href="#DejaVuSans-30"/>
      </g>
     </g>
    </g>
    <g id="xtick_3">
     <g id="line2d_3">
      <g>
       <use style="stroke:#000000;stroke-width:0.8;" x="192.193388" xlink:href="#md4455fc55f" y="299.350588"/>
      </g>
     </g>
     <g id="text_3">
      <!-- 40 -->
      <g transform="translate(185.830888 313.949026)scale(0.1 -0.1)">
       <defs>
        <path d="M 2419 4116 
L 825 1625 
L 2419 1625 
L 2419 4116 
z
M 2253 4666 
L 3047 4666 
L 3047 1625 
L 3713 1625 
L 3713 1100 
L 3047 1100 
L 3047 0 
L 2419 0 
L 2419 1100 
L 313 1100 
L 313 1709 
L 2253 4666 
z
" id="DejaVuSans-34" transform="scale(0.015625)"/>
       </defs>
       <use xlink:href="#DejaVuSans-34"/>
       <use x="63.623047" xlink:href="#DejaVuSans-30"/>
      </g>
     </g>
    </g>
    <g id="xtick_4">
     <g id="line2d_4">
      <g>
       <use style="stroke:#000000;stroke-width:0.8;" x="253.680992" xlink:href="#md4455fc55f" y="299.350588"/>
      </g>
     </g>
     <g id="text_4">
      <!-- 60 -->
      <g transform="translate(247.318492 313.949026)scale(0.1 -0.1)">
       <defs>
        <path d="M 2113 2584 
Q 1688 2584 1439 2293 
Q 1191 2003 1191 1497 
Q 1191 994 1439 701 
Q 1688 409 2113 409 
Q 2538 409 2786 701 
Q 3034 994 3034 1497 
Q 3034 2003 2786 2293 
Q 2538 2584 2113 2584 
z
M 3366 4563 
L 3366 3988 
Q 3128 4100 2886 4159 
Q 2644 4219 2406 4219 
Q 1781 4219 1451 3797 
Q 1122 3375 1075 2522 
Q 1259 2794 1537 2939 
Q 1816 3084 2150 3084 
Q 2853 3084 3261 2657 
Q 3669 2231 3669 1497 
Q 3669 778 3244 343 
Q 2819 -91 2113 -91 
Q 1303 -91 875 529 
Q 447 1150 447 2328 
Q 447 3434 972 4092 
Q 1497 4750 2381 4750 
Q 2619 4750 2861 4703 
Q 3103 4656 3366 4563 
z
" id="DejaVuSans-36" transform="scale(0.015625)"/>
       </defs>
       <use xlink:href="#DejaVuSans-36"/>
       <use x="63.623047" xlink:href="#DejaVuSans-30"/>
      </g>
     </g>
    </g>
    <g id="xtick_5">
     <g id="line2d_5">
      <g>
       <use style="stroke:#000000;stroke-width:0.8;" x="315.168595" xlink:href="#md4455fc55f" y="299.350588"/>
      </g>
     </g>
     <g id="text_5">
      <!-- 80 -->
      <g transform="translate(308.806095 313.949026)scale(0.1 -0.1)">
       <defs>
        <path d="M 2034 2216 
Q 1584 2216 1326 1975 
Q 1069 1734 1069 1313 
Q 1069 891 1326 650 
Q 1584 409 2034 409 
Q 2484 409 2743 651 
Q 3003 894 3003 1313 
Q 3003 1734 2745 1975 
Q 2488 2216 2034 2216 
z
M 1403 2484 
Q 997 2584 770 2862 
Q 544 3141 544 3541 
Q 544 4100 942 4425 
Q 1341 4750 2034 4750 
Q 2731 4750 3128 4425 
Q 3525 4100 3525 3541 
Q 3525 3141 3298 2862 
Q 3072 2584 2669 2484 
Q 3125 2378 3379 2068 
Q 3634 1759 3634 1313 
Q 3634 634 3220 271 
Q 2806 -91 2034 -91 
Q 1263 -91 848 271 
Q 434 634 434 1313 
Q 434 1759 690 2068 
Q 947 2378 1403 2484 
z
M 1172 3481 
Q 1172 3119 1398 2916 
Q 1625 2713 2034 2713 
Q 2441 2713 2670 2916 
Q 2900 3119 2900 3481 
Q 2900 3844 2670 4047 
Q 2441 4250 2034 4250 
Q 1625 4250 1398 4047 
Q 1172 3844 1172 3481 
z
" id="DejaVuSans-38" transform="scale(0.015625)"/>
       </defs>
       <use xlink:href="#DejaVuSans-38"/>
       <use x="63.623047" xlink:href="#DejaVuSans-30"/>
      </g>
     </g>
    </g>
    <g id="xtick_6">
     <g id="line2d_6">
      <g>
       <use style="stroke:#000000;stroke-width:0.8;" x="376.656198" xlink:href="#md4455fc55f" y="299.350588"/>
      </g>
     </g>
     <g id="text_6">
      <!-- 100 -->
      <g transform="translate(367.112448 313.949026)scale(0.1 -0.1)">
       <defs>
        <path d="M 794 531 
L 1825 531 
L 1825 4091 
L 703 3866 
L 703 4441 
L 1819 4666 
L 2450 4666 
L 2450 531 
L 3481 531 
L 3481 0 
L 794 0 
L 794 531 
z
" id="DejaVuSans-31" transform="scale(0.015625)"/>
       </defs>
       <use xlink:href="#DejaVuSans-31"/>
       <use x="63.623047" xlink:href="#DejaVuSans-30"/>
       <use x="127.246094" xlink:href="#DejaVuSans-30"/>
      </g>
     </g>
    </g>
   </g>
   <g id="matplotlib.axis_2">
    <g id="ytick_1">
     <g id="line2d_7">
      <defs>
       <path d="M 0 0 
L -3.5 0 
" id="m27ede54a3a" style="stroke:#000000;stroke-width:0.8;"/>
      </defs>
      <g>
       <use style="stroke:#000000;stroke-width:0.8;" x="54" xlink:href="#m27ede54a3a" y="299.350588"/>
      </g>
     </g>
     <g id="text_7">
      <!-- 0.0 -->
      <g transform="translate(31.096875 303.149807)scale(0.1 -0.1)">
       <defs>
        <path d="M 684 794 
L 1344 794 
L 1344 0 
L 684 0 
L 684 794 
z
" id="DejaVuSans-2e" transform="scale(0.015625)"/>
       </defs>
       <use xlink:href="#DejaVuSans-30"/>
       <use x="63.623047" xlink:href="#DejaVuSans-2e"/>
       <use x="95.410156" xlink:href="#DejaVuSans-30"/>
      </g>
     </g>
    </g>
    <g id="ytick_2">
     <g id="line2d_8">
      <g>
       <use style="stroke:#000000;stroke-width:0.8;" x="54" xlink:href="#m27ede54a3a" y="260.216471"/>
      </g>
     </g>
     <g id="text_8">
      <!-- 0.2 -->
      <g transform="translate(31.096875 264.015689)scale(0.1 -0.1)">
       <use xlink:href="#DejaVuSans-30"/>
       <use x="63.623047" xlink:href="#DejaVuSans-2e"/>
       <use x="95.410156" xlink:href="#DejaVuSans-32"/>
      </g>
     </g>
    </g>
    <g id="ytick_3">
     <g id="line2d_9">
      <g>
       <use style="stroke:#000000;stroke-width:0.8;" x="54" xlink:href="#m27ede54a3a" y="221.082353"/>
      </g>
     </g>
     <g id="text_9">
      <!-- 0.4 -->
      <g transform="translate(31.096875 224.881572)scale(0.1 -0.1)">
       <use xlink:href="#DejaVuSans-30"/>
       <use x="63.623047" xlink:href="#DejaVuSans-2e"/>
       <use x="95.410156" xlink:href="#DejaVuSans-34"/>
      </g>
     </g>
    </g>
    <g id="ytick_4">
     <g id="line2d_10">
      <g>
       <use style="stroke:#000000;stroke-width:0.8;" x="54" xlink:href="#m27ede54a3a" y="181.948235"/>
      </g>
     </g>
     <g id="text_10">
      <!-- 0.6 -->
      <g transform="translate(31.096875 185.747454)scale(0.1 -0.1)">
       <use xlink:href="#DejaVuSans-30"/>
       <use x="63.623047" xlink:href="#DejaVuSans-2e"/>
       <use x="95.410156" xlink:href="#DejaVuSans-36"/>
      </g>
     </g>
    </g>
    <g id="ytick_5">
     <g id="line2d_11">
      <g>
       <use style="stroke:#000000;stroke-width:0.8;" x="54" xlink:href="#m27ede54a3a" y="142.814118"/>
      </g>
     </g>
     <g id="text_11">
      <!-- 0.8 -->
      <g transform="translate(31.096875 146.613336)scale(0.1 -0.1)">
       <use xlink:href="#DejaVuSans-30"/>
       <use x="63.623047" xlink:href="#DejaVuSans-2e"/>
       <use x="95.410156" xlink:href="#DejaVuSans-38"/>
      </g>
     </g>
    </g>
    <g id="ytick_6">
     <g id="line2d_12">
      <g>
       <use style="stroke:#000000;stroke-width:0.8;" x="54" xlink:href="#m27ede54a3a" y="103.68"/>
      </g>
     </g>
     <g id="text_12">
      <!-- 1.0 -->
      <g transform="translate(31.096875 107.479219)scale(0.1 -0.1)">
       <use xlink:href="#DejaVuSans-31"/>
       <use x="63.623047" xlink:href="#DejaVuSans-2e"/>
       <use x="95.410156" xlink:href="#DejaVuSans-30"/>
      </g>
     </g>
    </g>
    <g id="text_13">
     <!-- $S_2 / S_{page}$ -->
     <g transform="translate(23.996875 220.815294)rotate(-90)scale(0.1 -0.1)">
      <defs>
       <path d="M 3859 4513 
L 3738 3897 
Q 3422 4066 3111 4152 
Q 2800 4238 2509 4238 
Q 1944 4238 1609 3991 
Q 1275 3744 1275 3334 
Q 1275 3109 1398 2989 
Q 1522 2869 2034 2731 
L 2413 2638 
Q 3053 2472 3303 2217 
Q 3553 1963 3553 1503 
Q 3553 797 2998 353 
Q 2444 -91 1538 -91 
Q 1166 -91 791 -17 
Q 416 56 38 206 
L 166 856 
Q 513 641 861 531 
Q 1209 422 1556 422 
Q 2147 422 2503 684 
Q 2859 947 2859 1369 
Q 2859 1650 2717 1795 
Q 2575 1941 2106 2059 
L 1728 2156 
Q 1081 2325 845 2545 
Q 609 2766 609 3163 
Q 609 3859 1145 4304 
Q 1681 4750 2541 4750 
Q 2875 4750 3203 4690 
Q 3531 4631 3859 4513 
z
" id="DejaVuSans-Oblique-53" transform="scale(0.015625)"/>
       <path d="M 1625 4666 
L 2156 4666 
L 531 -594 
L 0 -594 
L 1625 4666 
z
" id="DejaVuSans-2f" transform="scale(0.015625)"/>
       <path d="M 3175 2156 
Q 3175 2616 2975 2859 
Q 2775 3103 2400 3103 
Q 2144 3103 1911 2972 
Q 1678 2841 1497 2591 
Q 1319 2344 1212 1994 
Q 1106 1644 1106 1300 
Q 1106 863 1306 627 
Q 1506 391 1875 391 
Q 2147 391 2380 519 
Q 2613 647 2778 891 
Q 2956 1147 3065 1494 
Q 3175 1841 3175 2156 
z
M 1394 2969 
Q 1625 3272 1939 3428 
Q 2253 3584 2638 3584 
Q 3175 3584 3472 3232 
Q 3769 2881 3769 2247 
Q 3769 1728 3584 1258 
Q 3400 788 3053 416 
Q 2822 169 2531 39 
Q 2241 -91 1919 -91 
Q 1547 -91 1294 64 
Q 1041 219 916 525 
L 556 -1331 
L -19 -1331 
L 922 3500 
L 1497 3500 
L 1394 2969 
z
" id="DejaVuSans-Oblique-70" transform="scale(0.015625)"/>
       <path d="M 3438 1997 
L 3047 0 
L 2472 0 
L 2578 531 
Q 2325 219 2001 64 
Q 1678 -91 1281 -91 
Q 834 -91 548 182 
Q 263 456 263 884 
Q 263 1497 752 1853 
Q 1241 2209 2100 2209 
L 2900 2209 
L 2931 2363 
Q 2938 2388 2941 2417 
Q 2944 2447 2944 2509 
Q 2944 2788 2717 2942 
Q 2491 3097 2081 3097 
Q 1800 3097 1504 3025 
Q 1209 2953 897 2809 
L 997 3341 
Q 1322 3463 1633 3523 
Q 1944 3584 2234 3584 
Q 2853 3584 3176 3315 
Q 3500 3047 3500 2534 
Q 3500 2431 3484 2292 
Q 3469 2153 3438 1997 
z
M 2816 1759 
L 2241 1759 
Q 1534 1759 1195 1570 
Q 856 1381 856 984 
Q 856 709 1029 553 
Q 1203 397 1509 397 
Q 1978 397 2328 733 
Q 2678 1069 2791 1631 
L 2816 1759 
z
" id="DejaVuSans-Oblique-61" transform="scale(0.015625)"/>
       <path d="M 3816 3500 
L 3219 434 
Q 3047 -456 2561 -893 
Q 2075 -1331 1253 -1331 
Q 950 -1331 690 -1286 
Q 431 -1241 206 -1147 
L 313 -588 
Q 525 -725 762 -790 
Q 1000 -856 1269 -856 
Q 1816 -856 2167 -557 
Q 2519 -259 2631 300 
L 2681 563 
Q 2441 288 2122 144 
Q 1803 0 1434 0 
Q 903 0 598 351 
Q 294 703 294 1319 
Q 294 1803 478 2267 
Q 663 2731 997 3091 
Q 1219 3328 1514 3456 
Q 1809 3584 2131 3584 
Q 2484 3584 2746 3420 
Q 3009 3256 3138 2956 
L 3238 3500 
L 3816 3500 
z
M 2950 2216 
Q 2950 2641 2750 2872 
Q 2550 3103 2181 3103 
Q 1953 3103 1747 3012 
Q 1541 2922 1394 2759 
Q 1156 2491 1023 2127 
Q 891 1763 891 1375 
Q 891 944 1092 712 
Q 1294 481 1672 481 
Q 2219 481 2584 976 
Q 2950 1472 2950 2216 
z
" id="DejaVuSans-Oblique-67" transform="scale(0.015625)"/>
       <path d="M 3078 2063 
Q 3088 2113 3092 2166 
Q 3097 2219 3097 2272 
Q 3097 2653 2873 2875 
Q 2650 3097 2266 3097 
Q 1838 3097 1509 2826 
Q 1181 2556 1013 2059 
L 3078 2063 
z
M 3578 1613 
L 903 1613 
Q 884 1494 878 1425 
Q 872 1356 872 1306 
Q 872 872 1139 634 
Q 1406 397 1894 397 
Q 2269 397 2603 481 
Q 2938 566 3225 728 
L 3116 159 
Q 2806 34 2476 -28 
Q 2147 -91 1806 -91 
Q 1078 -91 686 257 
Q 294 606 294 1247 
Q 294 1794 489 2264 
Q 684 2734 1063 3103 
Q 1306 3334 1642 3459 
Q 1978 3584 2356 3584 
Q 2950 3584 3301 3228 
Q 3653 2872 3653 2272 
Q 3653 2128 3634 1964 
Q 3616 1800 3578 1613 
z
" id="DejaVuSans-Oblique-65" transform="scale(0.015625)"/>
      </defs>
      <use transform="translate(0 0.78125)" xlink:href="#DejaVuSans-Oblique-53"/>
      <use transform="translate(63.476562 -15.625)scale(0.7)" xlink:href="#DejaVuSans-32"/>
      <use transform="translate(110.74707 0.78125)" xlink:href="#DejaVuSans-2f"/>
      <use transform="translate(144.438477 0.78125)" xlink:href="#DejaVuSans-Oblique-53"/>
      <use transform="translate(207.915039 -15.625)scale(0.7)" xlink:href="#DejaVuSans-Oblique-70"/>
      <use transform="translate(252.348633 -15.625)scale(0.7)" xlink:href="#DejaVuSans-Oblique-61"/>
      <use transform="translate(295.244141 -15.625)scale(0.7)" xlink:href="#DejaVuSans-Oblique-67"/>
      <use transform="translate(339.677734 -15.625)scale(0.7)" xlink:href="#DejaVuSans-Oblique-65"/>
     </g>
    </g>
   </g>
   <g id="line2d_13">
    <path clip-path="url(#pe2f58f598c)" d="M 69.218182 86.691403 
L 72.292562 85.703564 
L 75.366942 86.974078 
L 78.441322 87.41536 
L 81.515702 85.706861 
L 84.590083 85.567403 
L 87.664463 86.277472 
L 90.738843 85.538665 
L 93.813223 86.915864 
L 96.887603 85.424671 
L 99.961983 86.763336 
L 103.036364 87.071258 
L 106.110744 86.960322 
L 109.185124 86.267846 
L 112.259504 87.168352 
L 115.333884 87.050911 
L 118.408264 86.123299 
L 121.482645 86.772021 
L 124.557025 88.319172 
L 127.631405 86.152373 
L 130.705785 85.946786 
L 133.780165 88.352552 
L 136.854545 87.9045 
L 139.928926 86.67846 
L 143.003306 85.992132 
L 146.077686 85.499205 
L 149.152066 87.162624 
L 152.226446 86.029197 
L 155.300826 86.176449 
L 158.375207 88.234893 
L 161.449587 87.501337 
L 164.523967 85.342949 
L 167.598347 89.934861 
L 170.672727 87.46515 
L 173.747107 86.632496 
L 176.821488 87.218748 
L 179.895868 85.827691 
L 182.970248 84.772609 
L 186.044628 87.756417 
L 189.119008 86.753951 
L 192.193388 86.50785 
L 195.267769 86.48065 
L 198.342149 86.114279 
L 201.416529 88.349136 
L 204.490909 86.731057 
L 207.565289 86.269665 
L 210.639669 87.178263 
L 213.71405 87.899033 
L 216.78843 87.152143 
L 219.86281 86.918802 
L 222.93719 85.708903 
L 226.01157 85.495962 
L 229.08595 85.839746 
L 232.160331 86.900615 
L 235.234711 86.932665 
L 238.309091 85.698607 
L 241.383471 88.839102 
L 244.457851 85.575688 
L 247.532231 88.16426 
L 250.606612 87.254391 
L 253.680992 89.390216 
L 256.755372 85.721645 
L 259.829752 86.475691 
L 262.904132 86.421224 
L 265.978512 86.416475 
L 269.052893 86.498897 
L 272.127273 86.130286 
L 275.201653 86.485538 
L 278.276033 87.05348 
L 281.350413 86.823054 
L 284.424793 86.674107 
L 287.499174 86.698426 
L 290.573554 86.002065 
L 293.647934 85.861524 
L 296.722314 86.491356 
L 299.796694 86.193715 
L 302.871074 87.477862 
L 305.945455 87.722511 
L 309.019835 85.911896 
L 312.094215 87.456135 
L 315.168595 86.973266 
L 318.242975 86.428571 
L 321.317355 86.3891 
L 324.391736 86.819371 
L 327.466116 87.8265 
L 330.540496 86.991193 
L 333.614876 87.219224 
L 336.689256 86.809736 
L 339.763636 86.283122 
L 342.838017 84.965591 
L 345.912397 85.862042 
L 348.986777 86.664958 
L 352.061157 87.101484 
L 355.135537 85.73539 
L 358.209917 86.640307 
L 361.284298 86.245411 
L 364.358678 89.508971 
L 367.433058 85.365596 
L 370.507438 85.668488 
L 373.581818 86.254486 
" style="fill:none;stroke:#1f77b4;stroke-linecap:square;stroke-width:1.5;"/>
   </g>
   <g id="line2d_14">
    <path clip-path="url(#pe2f58f598c)" d="M 69.218182 168.06456 
L 72.292562 131.114551 
L 75.366942 162.602884 
L 78.441322 219.162214 
L 81.515702 178.201584 
L 84.590083 219.257721 
L 87.664463 146.627349 
L 90.738843 125.379072 
L 93.813223 185.828288 
L 96.887603 159.356679 
L 99.961983 182.287445 
L 103.036364 142.08112 
L 106.110744 156.784203 
L 109.185124 157.265355 
L 112.259504 173.509838 
L 115.333884 211.62243 
L 118.408264 133.227511 
L 121.482645 183.510105 
L 124.557025 181.309817 
L 127.631405 184.676278 
L 130.705785 239.569271 
L 133.780165 163.603853 
L 136.854545 184.887103 
L 139.928926 216.220726 
L 143.003306 208.556851 
L 146.077686 199.390339 
L 149.152066 165.340043 
L 152.226446 240.201538 
L 155.300826 185.062813 
L 158.375207 212.219659 
L 161.449587 169.729437 
L 164.523967 204.337033 
L 167.598347 178.699968 
L 170.672727 209.985963 
L 173.747107 210.760567 
L 176.821488 219.943671 
L 179.895868 187.861153 
L 182.970248 185.716864 
L 186.044628 192.256204 
L 189.119008 205.204567 
L 192.193388 172.058078 
L 195.267769 202.881597 
L 198.342149 182.482714 
L 201.416529 249.848962 
L 204.490909 235.745982 
L 207.565289 187.610688 
L 210.639669 201.55049 
L 213.71405 214.427624 
L 216.78843 220.01459 
L 219.86281 174.988132 
L 222.93719 164.385309 
L 226.01157 246.380008 
L 229.08595 192.494653 
L 232.160331 237.828817 
L 235.234711 187.946538 
L 238.309091 255.120011 
L 241.383471 189.382442 
L 244.457851 245.638444 
L 247.532231 199.419141 
L 250.606612 249.978769 
L 253.680992 230.05678 
L 256.755372 205.713391 
L 259.829752 177.695353 
L 262.904132 215.866991 
L 265.978512 257.576256 
L 269.052893 166.323338 
L 272.127273 178.333264 
L 275.201653 166.495951 
L 278.276033 218.73687 
L 281.350413 201.149013 
L 284.424793 196.156148 
L 287.499174 217.08472 
L 290.573554 220.070362 
L 293.647934 146.906734 
L 296.722314 197.752466 
L 299.796694 210.122366 
L 302.871074 188.49219 
L 305.945455 235.031258 
L 309.019835 207.088223 
L 312.094215 235.897192 
L 315.168595 222.860997 
L 318.242975 215.076915 
L 321.317355 191.725851 
L 324.391736 204.868619 
L 327.466116 213.444595 
L 330.540496 194.87608 
L 333.614876 212.729323 
L 336.689256 222.956357 
L 339.763636 225.859065 
L 342.838017 221.986381 
L 345.912397 176.92835 
L 348.986777 215.948225 
L 352.061157 183.981481 
L 355.135537 231.052745 
L 358.209917 171.213728 
L 361.284298 192.703907 
L 364.358678 153.948483 
L 367.433058 150.099467 
L 370.507438 223.1105 
L 373.581818 238.297067 
" style="fill:none;stroke:#ff7f0e;stroke-linecap:square;stroke-width:1.5;"/>
   </g>
   <g id="line2d_15">
    <path clip-path="url(#pe2f58f598c)" d="M 69.218182 256.231347 
L 72.292562 235.024507 
L 75.366942 245.421859 
L 78.441322 260.048573 
L 81.515702 270.419558 
L 84.590083 276.966222 
L 87.664463 280.864012 
L 90.738843 283.235961 
L 93.813223 284.651354 
L 96.887603 285.473982 
L 99.961983 285.92696 
L 103.036364 286.152532 
L 106.110744 286.219579 
L 109.185124 286.169823 
L 112.259504 286.0252 
L 115.333884 285.803755 
L 118.408264 285.517978 
L 121.482645 285.180272 
L 124.557025 284.800608 
L 127.631405 284.388995 
L 130.705785 283.953803 
L 133.780165 283.503171 
L 136.854545 283.043962 
L 139.928926 282.582655 
L 143.003306 282.124697 
L 146.077686 281.675063 
L 149.152066 281.237837 
L 152.226446 280.816549 
L 155.300826 280.413917 
L 158.375207 280.032066 
L 161.449587 279.672396 
L 164.523967 279.33575 
L 167.598347 279.022377 
L 170.672727 278.732085 
L 173.747107 278.464262 
L 176.821488 278.217998 
L 179.895868 277.992141 
L 182.970248 277.785389 
L 186.044628 277.596335 
L 189.119008 277.423538 
L 192.193388 277.265553 
L 195.267769 277.120973 
L 198.342149 276.988443 
L 201.416529 276.866688 
L 204.490909 276.754512 
L 207.565289 276.650815 
L 210.639669 276.554585 
L 213.71405 276.464904 
L 216.78843 276.380945 
L 219.86281 276.301964 
L 222.93719 276.227301 
L 226.01157 276.15637 
L 229.08595 276.088656 
L 232.160331 276.023707 
L 235.234711 275.961133 
L 238.309091 275.900592 
L 241.383471 275.841793 
L 244.457851 275.784484 
L 247.532231 275.728452 
L 250.606612 275.673516 
L 253.680992 275.619523 
L 256.755372 275.566343 
L 259.829752 275.513868 
L 262.904132 275.462008 
L 265.978512 275.410688 
L 269.052893 275.359843 
L 272.127273 275.309421 
L 275.201653 275.259377 
L 278.276033 275.209674 
L 281.350413 275.16028 
L 284.424793 275.111167 
L 287.499174 275.06231 
L 290.573554 275.013689 
L 293.647934 274.965283 
L 296.722314 274.917075 
L 299.796694 274.869047 
L 302.871074 274.821184 
L 305.945455 274.77347 
L 309.019835 274.725891 
L 312.094215 274.67843 
L 315.168595 274.631075 
L 318.242975 274.58381 
L 321.317355 274.536622 
L 324.391736 274.489496 
L 327.466116 274.442419 
L 330.540496 274.395377 
L 333.614876 274.348356 
L 336.689256 274.301344 
L 339.763636 274.254329 
L 342.838017 274.207297 
L 345.912397 274.160238 
L 348.986777 274.113139 
L 352.061157 274.065991 
L 355.135537 274.018783 
L 358.209917 273.971506 
L 361.284298 273.924151 
L 364.358678 273.876709 
L 367.433058 273.829174 
L 370.507438 273.781539 
L 373.581818 273.733798 
" style="fill:none;stroke:#2ca02c;stroke-linecap:square;stroke-width:1.5;"/>
   </g>
   <g id="line2d_16">
    <path clip-path="url(#pe2f58f598c)" d="M 69.218182 279.652651 
L 72.292562 278.043978 
L 75.366942 276.445391 
L 78.441322 274.879797 
L 81.515702 273.368559 
L 84.590083 271.930599 
L 87.664463 270.581666 
L 90.738843 269.333826 
L 93.813223 268.195183 
L 96.887603 267.169851 
L 99.961983 266.258154 
L 103.036364 265.457054 
L 106.110744 264.760738 
L 109.185124 264.161315 
L 112.259504 263.649545 
L 115.333884 263.215536 
L 118.408264 262.849345 
L 121.482645 262.541454 
L 124.557025 262.283099 
L 127.631405 262.06647 
L 130.705785 261.884795 
L 133.780165 261.732336 
L 136.854545 261.604327 
L 139.928926 261.496878 
L 143.003306 261.406857 
L 146.077686 261.331782 
L 149.152066 261.269708 
L 152.226446 261.219132 
L 155.300826 261.178905 
L 158.375207 261.148168 
L 161.449587 261.126287 
L 164.523967 261.112807 
L 167.598347 261.107417 
L 170.672727 261.109913 
L 173.747107 261.120182 
L 176.821488 261.138175 
L 179.895868 261.163897 
L 182.970248 261.197392 
L 186.044628 261.238738 
L 189.119008 261.288035 
L 192.193388 261.3454 
L 195.267769 261.410967 
L 198.342149 261.484878 
L 201.416529 261.567282 
L 204.490909 261.658335 
L 207.565289 261.758192 
L 210.639669 261.867014 
L 213.71405 261.984959 
L 216.78843 262.112182 
L 219.86281 262.248839 
L 222.93719 262.395077 
L 226.01157 262.551042 
L 229.08595 262.716871 
L 232.160331 262.892692 
L 235.234711 263.078626 
L 238.309091 263.27478 
L 241.383471 263.481252 
L 244.457851 263.698125 
L 247.532231 263.925466 
L 250.606612 264.163327 
L 253.680992 264.411741 
L 256.755372 264.670721 
L 259.829752 264.94026 
L 262.904132 265.220329 
L 265.978512 265.510875 
L 269.052893 265.81182 
L 272.127273 266.12306 
L 275.201653 266.444465 
L 278.276033 266.775876 
L 281.350413 267.117107 
L 284.424793 267.467942 
L 287.499174 267.828135 
L 290.573554 268.197412 
L 293.647934 268.575467 
L 296.722314 268.961965 
L 299.796694 269.356543 
L 302.871074 269.758807 
L 305.945455 270.168337 
L 309.019835 270.584683 
L 312.094215 271.007372 
L 315.168595 271.435904 
L 318.242975 271.869757 
L 321.317355 272.308388 
L 324.391736 272.751235 
L 327.466116 273.197716 
L 330.540496 273.647239 
L 333.614876 274.099196 
L 336.689256 274.552971 
L 339.763636 275.007942 
L 342.838017 275.463483 
L 345.912397 275.918967 
L 348.986777 276.37377 
L 352.061157 276.827274 
L 355.135537 277.278868 
L 358.209917 277.727956 
L 361.284298 278.173953 
L 364.358678 278.616297 
L 367.433058 279.054441 
L 370.507438 279.487866 
L 373.581818 279.916077 
" style="fill:none;stroke:#d62728;stroke-linecap:square;stroke-width:1.5;"/>
   </g>
   <g id="line2d_17">
    <path clip-path="url(#pe2f58f598c)" d="M 69.218182 279.313705 
L 72.292562 279.107241 
L 75.366942 278.898716 
L 78.441322 278.688154 
L 81.515702 278.475578 
L 84.590083 278.261014 
L 87.664463 278.044489 
L 90.738843 277.826032 
L 93.813223 277.605674 
L 96.887603 277.383445 
L 99.961983 277.15938 
L 103.036364 276.933512 
L 106.110744 276.705877 
L 109.185124 276.476514 
L 112.259504 276.24546 
L 115.333884 276.012756 
L 118.408264 275.778442 
L 121.482645 275.542562 
L 124.557025 275.305158 
L 127.631405 275.066276 
L 130.705785 274.825961 
L 133.780165 274.584259 
L 136.854545 274.34122 
L 139.928926 274.09689 
L 143.003306 273.85132 
L 146.077686 273.604559 
L 149.152066 273.35666 
L 152.226446 273.107672 
L 155.300826 272.85765 
L 158.375207 272.606644 
L 161.449587 272.354709 
L 164.523967 272.101899 
L 167.598347 271.848267 
L 170.672727 271.593869 
L 173.747107 271.338759 
L 176.821488 271.082992 
L 179.895868 270.826623 
L 182.970248 270.569709 
L 186.044628 270.312305 
L 189.119008 270.054466 
L 192.193388 269.796248 
L 195.267769 269.537707 
L 198.342149 269.2789 
L 201.416529 269.019881 
L 204.490909 268.760706 
L 207.565289 268.501431 
L 210.639669 268.242112 
L 213.71405 267.982803 
L 216.78843 267.72356 
L 219.86281 267.464438 
L 222.93719 267.205491 
L 226.01157 266.946774 
L 229.08595 266.688342 
L 232.160331 266.430248 
L 235.234711 266.172546 
L 238.309091 265.91529 
L 241.383471 265.658533 
L 244.457851 265.402328 
L 247.532231 265.146728 
L 250.606612 264.891785 
L 253.680992 264.637551 
L 256.755372 264.384079 
L 259.829752 264.131419 
L 262.904132 263.879623 
L 265.978512 263.628741 
L 269.052893 263.378826 
L 272.127273 263.129925 
L 275.201653 262.882091 
L 278.276033 262.635371 
L 281.350413 262.389816 
L 284.424793 262.145473 
L 287.499174 261.902392 
L 290.573554 261.660621 
L 293.647934 261.420207 
L 296.722314 261.181197 
L 299.796694 260.943639 
L 302.871074 260.707578 
L 305.945455 260.473061 
L 309.019835 260.240133 
L 312.094215 260.008838 
L 315.168595 259.779223 
L 318.242975 259.551329 
L 321.317355 259.325202 
L 324.391736 259.100883 
L 327.466116 258.878415 
L 330.540496 258.657839 
L 333.614876 258.439197 
L 336.689256 258.222529 
L 339.763636 258.007874 
L 342.838017 257.795272 
L 345.912397 257.584761 
L 348.986777 257.376379 
L 352.061157 257.170162 
L 355.135537 256.966147 
L 358.209917 256.764368 
L 361.284298 256.564862 
L 364.358678 256.36766 
L 367.433058 256.172796 
L 370.507438 255.980303 
L 373.581818 255.790211 
" style="fill:none;stroke:#9467bd;stroke-linecap:square;stroke-width:1.5;"/>
   </g>
   <g id="patch_3">
    <path d="M 54 299.350588 
L 54 103.68 
" style="fill:none;stroke:#000000;stroke-linecap:square;stroke-linejoin:miter;stroke-width:0.8;"/>
   </g>
   <g id="patch_4">
    <path d="M 388.8 299.350588 
L 388.8 103.68 
" style="fill:none;stroke:#000000;stroke-linecap:square;stroke-linejoin:miter;stroke-width:0.8;"/>
   </g>
   <g id="patch_5">
    <path d="M 54 299.350588 
L 388.8 299.350588 
" style="fill:none;stroke:#000000;stroke-linecap:square;stroke-linejoin:miter;stroke-width:0.8;"/>
   </g>
   <g id="patch_6">
    <path d="M 54 103.68 
L 388.8 103.68 
" style="fill:none;stroke:#000000;stroke-linecap:square;stroke-linejoin:miter;stroke-width:0.8;"/>
   </g>
   <g id="legend_1">
    <g id="patch_7">
     <path d="M 296.1 185.172187 
L 381.8 185.172187 
Q 383.8 185.172187 383.8 183.172187 
L 383.8 110.68 
Q 383.8 108.68 381.8 108.68 
L 296.1 108.68 
Q 294.1 108.68 294.1 110.68 
L 294.1 183.172187 
Q 294.1 185.172187 296.1 185.172187 
z
" style="fill:#ffffff;opacity:0.8;stroke:#cccccc;stroke-linejoin:miter;"/>
    </g>
    <g id="line2d_18">
     <path d="M 298.1 116.778437 
L 318.1 116.778437 
" style="fill:none;stroke:#1f77b4;stroke-linecap:square;stroke-width:1.5;"/>
    </g>
    <g id="line2d_19"/>
    <g id="text_14">
     <!-- $\eta=$1 -->
     <g transform="translate(326.1 120.278437)scale(0.1 -0.1)">
      <defs>
       <path d="M 3703 2113 
L 3034 -1331 
L 2459 -1331 
L 3125 2094 
Q 3222 2591 3075 2838 
Q 2931 3084 2544 3084 
Q 2078 3084 1750 2788 
Q 1425 2491 1325 1978 
L 941 0 
L 363 0 
L 1044 3500 
L 1622 3500 
L 1516 2956 
Q 1781 3272 2094 3428 
Q 2403 3584 2769 3584 
Q 3372 3584 3609 3213 
Q 3844 2838 3703 2113 
z
" id="DejaVuSans-Oblique-3b7" transform="scale(0.015625)"/>
       <path d="M 678 2906 
L 4684 2906 
L 4684 2381 
L 678 2381 
L 678 2906 
z
M 678 1631 
L 4684 1631 
L 4684 1100 
L 678 1100 
L 678 1631 
z
" id="DejaVuSans-3d" transform="scale(0.015625)"/>
      </defs>
      <use transform="translate(0 0.09375)" xlink:href="#DejaVuSans-Oblique-3b7"/>
      <use transform="translate(82.861328 0.09375)" xlink:href="#DejaVuSans-3d"/>
      <use transform="translate(186.132812 0.09375)" xlink:href="#DejaVuSans-31"/>
     </g>
    </g>
    <g id="line2d_20">
     <path d="M 298.1 131.476875 
L 318.1 131.476875 
" style="fill:none;stroke:#ff7f0e;stroke-linecap:square;stroke-width:1.5;"/>
    </g>
    <g id="line2d_21"/>
    <g id="text_15">
     <!-- $\eta=$0.1 -->
     <g transform="translate(326.1 134.976875)scale(0.1 -0.1)">
      <use transform="translate(0 0.78125)" xlink:href="#DejaVuSans-Oblique-3b7"/>
      <use transform="translate(82.861328 0.78125)" xlink:href="#DejaVuSans-3d"/>
      <use transform="translate(186.132812 0.78125)" xlink:href="#DejaVuSans-30"/>
      <use transform="translate(249.755859 0.78125)" xlink:href="#DejaVuSans-2e"/>
      <use transform="translate(281.542969 0.78125)" xlink:href="#DejaVuSans-31"/>
     </g>
    </g>
    <g id="line2d_22">
     <path d="M 298.1 146.175313 
L 318.1 146.175313 
" style="fill:none;stroke:#2ca02c;stroke-linecap:square;stroke-width:1.5;"/>
    </g>
    <g id="line2d_23"/>
    <g id="text_16">
     <!-- $\eta=$0.01 -->
     <g transform="translate(326.1 149.675313)scale(0.1 -0.1)">
      <use transform="translate(0 0.78125)" xlink:href="#DejaVuSans-Oblique-3b7"/>
      <use transform="translate(82.861328 0.78125)" xlink:href="#DejaVuSans-3d"/>
      <use transform="translate(186.132812 0.78125)" xlink:href="#DejaVuSans-30"/>
      <use transform="translate(249.755859 0.78125)" xlink:href="#DejaVuSans-2e"/>
      <use transform="translate(281.542969 0.78125)" xlink:href="#DejaVuSans-30"/>
      <use transform="translate(345.166016 0.78125)" xlink:href="#DejaVuSans-31"/>
     </g>
    </g>
    <g id="line2d_24">
     <path d="M 298.1 160.87375 
L 318.1 160.87375 
" style="fill:none;stroke:#d62728;stroke-linecap:square;stroke-width:1.5;"/>
    </g>
    <g id="line2d_25"/>
    <g id="text_17">
     <!-- $\eta=$0.001 -->
     <g transform="translate(326.1 164.37375)scale(0.1 -0.1)">
      <use transform="translate(0 0.78125)" xlink:href="#DejaVuSans-Oblique-3b7"/>
      <use transform="translate(82.861328 0.78125)" xlink:href="#DejaVuSans-3d"/>
      <use transform="translate(186.132812 0.78125)" xlink:href="#DejaVuSans-30"/>
      <use transform="translate(249.755859 0.78125)" xlink:href="#DejaVuSans-2e"/>
      <use transform="translate(281.542969 0.78125)" xlink:href="#DejaVuSans-30"/>
      <use transform="translate(345.166016 0.78125)" xlink:href="#DejaVuSans-30"/>
      <use transform="translate(408.789062 0.78125)" xlink:href="#DejaVuSans-31"/>
     </g>
    </g>
    <g id="line2d_26">
     <path d="M 298.1 175.572188 
L 318.1 175.572188 
" style="fill:none;stroke:#9467bd;stroke-linecap:square;stroke-width:1.5;"/>
    </g>
    <g id="line2d_27"/>
    <g id="text_18">
     <!-- $\eta=$0.0001 -->
     <g transform="translate(326.1 179.072188)scale(0.1 -0.1)">
      <use transform="translate(0 0.78125)" xlink:href="#DejaVuSans-Oblique-3b7"/>
      <use transform="translate(82.861328 0.78125)" xlink:href="#DejaVuSans-3d"/>
      <use transform="translate(186.132812 0.78125)" xlink:href="#DejaVuSans-30"/>
      <use transform="translate(249.755859 0.78125)" xlink:href="#DejaVuSans-2e"/>
      <use transform="translate(281.542969 0.78125)" xlink:href="#DejaVuSans-30"/>
      <use transform="translate(345.166016 0.78125)" xlink:href="#DejaVuSans-30"/>
      <use transform="translate(408.789062 0.78125)" xlink:href="#DejaVuSans-30"/>
      <use transform="translate(472.412109 0.78125)" xlink:href="#DejaVuSans-31"/>
     </g>
    </g>
   </g>
  </g>
  <g id="axes_2">
   <g id="patch_8">
    <path d="M 54 534.155294 
L 388.8 534.155294 
L 388.8 338.484706 
L 54 338.484706 
z
" style="fill:#ffffff;"/>
   </g>
   <g id="matplotlib.axis_3">
    <g id="xtick_7">
     <g id="line2d_28">
      <g>
       <use style="stroke:#000000;stroke-width:0.8;" x="69.218182" xlink:href="#md4455fc55f" y="534.155294"/>
      </g>
     </g>
     <g id="text_19">
      <!-- 0 -->
      <g transform="translate(66.036932 548.753732)scale(0.1 -0.1)">
       <use xlink:href="#DejaVuSans-30"/>
      </g>
     </g>
    </g>
    <g id="xtick_8">
     <g id="line2d_29">
      <g>
       <use style="stroke:#000000;stroke-width:0.8;" x="130.705785" xlink:href="#md4455fc55f" y="534.155294"/>
      </g>
     </g>
     <g id="text_20">
      <!-- 20 -->
      <g transform="translate(124.343285 548.753732)scale(0.1 -0.1)">
       <use xlink:href="#DejaVuSans-32"/>
       <use x="63.623047" xlink:href="#DejaVuSans-30"/>
      </g>
     </g>
    </g>
    <g id="xtick_9">
     <g id="line2d_30">
      <g>
       <use style="stroke:#000000;stroke-width:0.8;" x="192.193388" xlink:href="#md4455fc55f" y="534.155294"/>
      </g>
     </g>
     <g id="text_21">
      <!-- 40 -->
      <g transform="translate(185.830888 548.753732)scale(0.1 -0.1)">
       <use xlink:href="#DejaVuSans-34"/>
       <use x="63.623047" xlink:href="#DejaVuSans-30"/>
      </g>
     </g>
    </g>
    <g id="xtick_10">
     <g id="line2d_31">
      <g>
       <use style="stroke:#000000;stroke-width:0.8;" x="253.680992" xlink:href="#md4455fc55f" y="534.155294"/>
      </g>
     </g>
     <g id="text_22">
      <!-- 60 -->
      <g transform="translate(247.318492 548.753732)scale(0.1 -0.1)">
       <use xlink:href="#DejaVuSans-36"/>
       <use x="63.623047" xlink:href="#DejaVuSans-30"/>
      </g>
     </g>
    </g>
    <g id="xtick_11">
     <g id="line2d_32">
      <g>
       <use style="stroke:#000000;stroke-width:0.8;" x="315.168595" xlink:href="#md4455fc55f" y="534.155294"/>
      </g>
     </g>
     <g id="text_23">
      <!-- 80 -->
      <g transform="translate(308.806095 548.753732)scale(0.1 -0.1)">
       <use xlink:href="#DejaVuSans-38"/>
       <use x="63.623047" xlink:href="#DejaVuSans-30"/>
      </g>
     </g>
    </g>
    <g id="xtick_12">
     <g id="line2d_33">
      <g>
       <use style="stroke:#000000;stroke-width:0.8;" x="376.656198" xlink:href="#md4455fc55f" y="534.155294"/>
      </g>
     </g>
     <g id="text_24">
      <!-- 100 -->
      <g transform="translate(367.112448 548.753732)scale(0.1 -0.1)">
       <use xlink:href="#DejaVuSans-31"/>
       <use x="63.623047" xlink:href="#DejaVuSans-30"/>
       <use x="127.246094" xlink:href="#DejaVuSans-30"/>
      </g>
     </g>
    </g>
   </g>
   <g id="matplotlib.axis_4">
    <g id="ytick_7">
     <g id="line2d_34">
      <g>
       <use style="stroke:#000000;stroke-width:0.8;" x="54" xlink:href="#m27ede54a3a" y="518.709291"/>
      </g>
     </g>
     <g id="text_25">
      <!-- −15 -->
      <g transform="translate(25.895312 522.50851)scale(0.1 -0.1)">
       <defs>
        <path d="M 678 2272 
L 4684 2272 
L 4684 1741 
L 678 1741 
L 678 2272 
z
" id="DejaVuSans-2212" transform="scale(0.015625)"/>
        <path d="M 691 4666 
L 3169 4666 
L 3169 4134 
L 1269 4134 
L 1269 2991 
Q 1406 3038 1543 3061 
Q 1681 3084 1819 3084 
Q 2600 3084 3056 2656 
Q 3513 2228 3513 1497 
Q 3513 744 3044 326 
Q 2575 -91 1722 -91 
Q 1428 -91 1123 -41 
Q 819 9 494 109 
L 494 744 
Q 775 591 1075 516 
Q 1375 441 1709 441 
Q 2250 441 2565 725 
Q 2881 1009 2881 1497 
Q 2881 1984 2565 2268 
Q 2250 2553 1709 2553 
Q 1456 2553 1204 2497 
Q 953 2441 691 2322 
L 691 4666 
z
" id="DejaVuSans-35" transform="scale(0.015625)"/>
       </defs>
       <use xlink:href="#DejaVuSans-2212"/>
       <use x="83.789062" xlink:href="#DejaVuSans-31"/>
       <use x="147.412109" xlink:href="#DejaVuSans-35"/>
      </g>
     </g>
    </g>
    <g id="ytick_8">
     <g id="line2d_35">
      <g>
       <use style="stroke:#000000;stroke-width:0.8;" x="54" xlink:href="#m27ede54a3a" y="489.238383"/>
      </g>
     </g>
     <g id="text_26">
      <!-- −10 -->
      <g transform="translate(25.895312 493.037602)scale(0.1 -0.1)">
       <use xlink:href="#DejaVuSans-2212"/>
       <use x="83.789062" xlink:href="#DejaVuSans-31"/>
       <use x="147.412109" xlink:href="#DejaVuSans-30"/>
      </g>
     </g>
    </g>
    <g id="ytick_9">
     <g id="line2d_36">
      <g>
       <use style="stroke:#000000;stroke-width:0.8;" x="54" xlink:href="#m27ede54a3a" y="459.767476"/>
      </g>
     </g>
     <g id="text_27">
      <!-- −5 -->
      <g transform="translate(32.257812 463.566695)scale(0.1 -0.1)">
       <use xlink:href="#DejaVuSans-2212"/>
       <use x="83.789062" xlink:href="#DejaVuSans-35"/>
      </g>
     </g>
    </g>
    <g id="ytick_10">
     <g id="line2d_37">
      <g>
       <use style="stroke:#000000;stroke-width:0.8;" x="54" xlink:href="#m27ede54a3a" y="430.296568"/>
      </g>
     </g>
     <g id="text_28">
      <!-- 0 -->
      <g transform="translate(40.6375 434.095787)scale(0.1 -0.1)">
       <use xlink:href="#DejaVuSans-30"/>
      </g>
     </g>
    </g>
    <g id="ytick_11">
     <g id="line2d_38">
      <g>
       <use style="stroke:#000000;stroke-width:0.8;" x="54" xlink:href="#m27ede54a3a" y="400.82566"/>
      </g>
     </g>
     <g id="text_29">
      <!-- 5 -->
      <g transform="translate(40.6375 404.624879)scale(0.1 -0.1)">
       <use xlink:href="#DejaVuSans-35"/>
      </g>
     </g>
    </g>
    <g id="ytick_12">
     <g id="line2d_39">
      <g>
       <use style="stroke:#000000;stroke-width:0.8;" x="54" xlink:href="#m27ede54a3a" y="371.354753"/>
      </g>
     </g>
     <g id="text_30">
      <!-- 10 -->
      <g transform="translate(34.275 375.153971)scale(0.1 -0.1)">
       <use xlink:href="#DejaVuSans-31"/>
       <use x="63.623047" xlink:href="#DejaVuSans-30"/>
      </g>
     </g>
    </g>
    <g id="ytick_13">
     <g id="line2d_40">
      <g>
       <use style="stroke:#000000;stroke-width:0.8;" x="54" xlink:href="#m27ede54a3a" y="341.883845"/>
      </g>
     </g>
     <g id="text_31">
      <!-- 15 -->
      <g transform="translate(34.275 345.683064)scale(0.1 -0.1)">
       <use xlink:href="#DejaVuSans-31"/>
       <use x="63.623047" xlink:href="#DejaVuSans-35"/>
      </g>
     </g>
    </g>
    <g id="text_32">
     <!-- Energy $E$ -->
     <g transform="translate(19.795312 458.67)rotate(-90)scale(0.1 -0.1)">
      <defs>
       <path d="M 628 4666 
L 3578 4666 
L 3578 4134 
L 1259 4134 
L 1259 2753 
L 3481 2753 
L 3481 2222 
L 1259 2222 
L 1259 531 
L 3634 531 
L 3634 0 
L 628 0 
L 628 4666 
z
" id="DejaVuSans-45" transform="scale(0.015625)"/>
       <path d="M 3513 2113 
L 3513 0 
L 2938 0 
L 2938 2094 
Q 2938 2591 2744 2837 
Q 2550 3084 2163 3084 
Q 1697 3084 1428 2787 
Q 1159 2491 1159 1978 
L 1159 0 
L 581 0 
L 581 3500 
L 1159 3500 
L 1159 2956 
Q 1366 3272 1645 3428 
Q 1925 3584 2291 3584 
Q 2894 3584 3203 3211 
Q 3513 2838 3513 2113 
z
" id="DejaVuSans-6e" transform="scale(0.015625)"/>
       <path d="M 3597 1894 
L 3597 1613 
L 953 1613 
Q 991 1019 1311 708 
Q 1631 397 2203 397 
Q 2534 397 2845 478 
Q 3156 559 3463 722 
L 3463 178 
Q 3153 47 2828 -22 
Q 2503 -91 2169 -91 
Q 1331 -91 842 396 
Q 353 884 353 1716 
Q 353 2575 817 3079 
Q 1281 3584 2069 3584 
Q 2775 3584 3186 3129 
Q 3597 2675 3597 1894 
z
M 3022 2063 
Q 3016 2534 2758 2815 
Q 2500 3097 2075 3097 
Q 1594 3097 1305 2825 
Q 1016 2553 972 2059 
L 3022 2063 
z
" id="DejaVuSans-65" transform="scale(0.015625)"/>
       <path d="M 2631 2963 
Q 2534 3019 2420 3045 
Q 2306 3072 2169 3072 
Q 1681 3072 1420 2755 
Q 1159 2438 1159 1844 
L 1159 0 
L 581 0 
L 581 3500 
L 1159 3500 
L 1159 2956 
Q 1341 3275 1631 3429 
Q 1922 3584 2338 3584 
Q 2397 3584 2469 3576 
Q 2541 3569 2628 3553 
L 2631 2963 
z
" id="DejaVuSans-72" transform="scale(0.015625)"/>
       <path d="M 2906 1791 
Q 2906 2416 2648 2759 
Q 2391 3103 1925 3103 
Q 1463 3103 1205 2759 
Q 947 2416 947 1791 
Q 947 1169 1205 825 
Q 1463 481 1925 481 
Q 2391 481 2648 825 
Q 2906 1169 2906 1791 
z
M 3481 434 
Q 3481 -459 3084 -895 
Q 2688 -1331 1869 -1331 
Q 1566 -1331 1297 -1286 
Q 1028 -1241 775 -1147 
L 775 -588 
Q 1028 -725 1275 -790 
Q 1522 -856 1778 -856 
Q 2344 -856 2625 -561 
Q 2906 -266 2906 331 
L 2906 616 
Q 2728 306 2450 153 
Q 2172 0 1784 0 
Q 1141 0 747 490 
Q 353 981 353 1791 
Q 353 2603 747 3093 
Q 1141 3584 1784 3584 
Q 2172 3584 2450 3431 
Q 2728 3278 2906 2969 
L 2906 3500 
L 3481 3500 
L 3481 434 
z
" id="DejaVuSans-67" transform="scale(0.015625)"/>
       <path d="M 2059 -325 
Q 1816 -950 1584 -1140 
Q 1353 -1331 966 -1331 
L 506 -1331 
L 506 -850 
L 844 -850 
Q 1081 -850 1212 -737 
Q 1344 -625 1503 -206 
L 1606 56 
L 191 3500 
L 800 3500 
L 1894 763 
L 2988 3500 
L 3597 3500 
L 2059 -325 
z
" id="DejaVuSans-79" transform="scale(0.015625)"/>
       <path id="DejaVuSans-20" transform="scale(0.015625)"/>
       <path d="M 1081 4666 
L 4031 4666 
L 3928 4134 
L 1606 4134 
L 1338 2753 
L 3566 2753 
L 3463 2222 
L 1234 2222 
L 909 531 
L 3284 531 
L 3181 0 
L 172 0 
L 1081 4666 
z
" id="DejaVuSans-Oblique-45" transform="scale(0.015625)"/>
      </defs>
      <use transform="translate(0 0.09375)" xlink:href="#DejaVuSans-45"/>
      <use transform="translate(63.183594 0.09375)" xlink:href="#DejaVuSans-6e"/>
      <use transform="translate(126.5625 0.09375)" xlink:href="#DejaVuSans-65"/>
      <use transform="translate(188.085938 0.09375)" xlink:href="#DejaVuSans-72"/>
      <use transform="translate(229.199219 0.09375)" xlink:href="#DejaVuSans-67"/>
      <use transform="translate(292.675781 0.09375)" xlink:href="#DejaVuSans-79"/>
      <use transform="translate(351.855469 0.09375)" xlink:href="#DejaVuSans-20"/>
      <use transform="translate(383.642578 0.09375)" xlink:href="#DejaVuSans-Oblique-45"/>
     </g>
    </g>
   </g>
   <g id="line2d_41">
    <path clip-path="url(#pc129911ec1)" d="M 69.218182 430.269641 
L 72.292562 431.347719 
L 75.366942 432.614099 
L 78.441322 430.555244 
L 81.515702 430.667439 
L 84.590083 431.841768 
L 87.664463 429.816576 
L 90.738843 430.387126 
L 93.813223 429.06505 
L 96.887603 430.162025 
L 99.961983 432.149826 
L 103.036364 429.508413 
L 106.110744 429.795283 
L 109.185124 429.684103 
L 112.259504 431.27925 
L 115.333884 428.959506 
L 118.408264 429.982425 
L 121.482645 431.089037 
L 124.557025 428.735559 
L 127.631405 432.325228 
L 130.705785 430.612351 
L 133.780165 430.560874 
L 136.854545 429.791021 
L 139.928926 428.172247 
L 143.003306 430.633931 
L 146.077686 429.712159 
L 149.152066 430.435874 
L 152.226446 429.192053 
L 155.300826 429.115686 
L 158.375207 428.574435 
L 161.449587 430.69238 
L 164.523967 432.855144 
L 167.598347 433.257171 
L 170.672727 430.178504 
L 173.747107 432.600173 
L 176.821488 431.98342 
L 179.895868 430.371473 
L 182.970248 430.041301 
L 186.044628 429.564062 
L 189.119008 429.961226 
L 192.193388 430.390335 
L 195.267769 430.214693 
L 198.342149 430.064773 
L 201.416529 429.743742 
L 204.490909 430.816521 
L 207.565289 428.223037 
L 210.639669 429.930609 
L 213.71405 428.349496 
L 216.78843 428.557531 
L 219.86281 429.353148 
L 222.93719 430.940685 
L 226.01157 431.622606 
L 229.08595 431.399128 
L 232.160331 431.435951 
L 235.234711 428.696039 
L 238.309091 431.991677 
L 241.383471 431.225312 
L 244.457851 430.824998 
L 247.532231 428.760754 
L 250.606612 429.106073 
L 253.680992 428.572645 
L 256.755372 430.151824 
L 259.829752 432.509465 
L 262.904132 431.174272 
L 265.978512 431.266341 
L 269.052893 430.034635 
L 272.127273 429.394432 
L 275.201653 427.689002 
L 278.276033 429.977964 
L 281.350413 430.422612 
L 284.424793 432.16415 
L 287.499174 431.157178 
L 290.573554 430.822285 
L 293.647934 428.680908 
L 296.722314 430.723586 
L 299.796694 427.389614 
L 302.871074 429.85141 
L 305.945455 428.169226 
L 309.019835 429.765002 
L 312.094215 430.121119 
L 315.168595 429.480773 
L 318.242975 429.508849 
L 321.317355 428.649141 
L 324.391736 429.61998 
L 327.466116 429.042028 
L 330.540496 430.654809 
L 333.614876 430.630659 
L 336.689256 431.178194 
L 339.763636 429.445437 
L 342.838017 431.092881 
L 345.912397 429.58378 
L 348.986777 432.135646 
L 352.061157 428.756133 
L 355.135537 430.050152 
L 358.209917 429.452729 
L 361.284298 432.999998 
L 364.358678 429.711523 
L 367.433058 428.965606 
L 370.507438 429.540019 
L 373.581818 426.589992 
" style="fill:none;stroke:#1f77b4;stroke-linecap:square;stroke-width:1.5;"/>
   </g>
   <g id="line2d_42">
    <path clip-path="url(#pc129911ec1)" d="M 69.218182 422.041048 
L 72.292562 430.817598 
L 75.366942 438.225683 
L 78.441322 451.770161 
L 81.515702 452.714823 
L 84.590083 437.482328 
L 87.664463 438.15827 
L 90.738843 436.082539 
L 93.813223 446.226937 
L 96.887603 447.124318 
L 99.961983 454.574397 
L 103.036364 440.258403 
L 106.110744 455.637523 
L 109.185124 430.259246 
L 112.259504 445.60923 
L 115.333884 466.937316 
L 118.408264 447.561537 
L 121.482645 464.293521 
L 124.557025 437.099395 
L 127.631405 452.2752 
L 130.705785 444.35889 
L 133.780165 439.55133 
L 136.854545 449.331624 
L 139.928926 445.255878 
L 143.003306 451.754845 
L 146.077686 457.126939 
L 149.152066 452.271439 
L 152.226446 461.018367 
L 155.300826 449.569447 
L 158.375207 449.903306 
L 161.449587 455.945702 
L 164.523967 462.832034 
L 167.598347 447.679305 
L 170.672727 446.722228 
L 173.747107 465.836801 
L 176.821488 453.867642 
L 179.895868 459.015648 
L 182.970248 443.40393 
L 186.044628 452.247368 
L 189.119008 448.628985 
L 192.193388 456.759278 
L 195.267769 437.034006 
L 198.342149 449.044156 
L 201.416529 451.923039 
L 204.490909 462.164766 
L 207.565289 447.677781 
L 210.639669 448.851508 
L 213.71405 455.994406 
L 216.78843 446.726501 
L 219.86281 443.120497 
L 222.93719 455.096658 
L 226.01157 453.622344 
L 229.08595 445.414236 
L 232.160331 462.32744 
L 235.234711 438.647897 
L 238.309091 470.943874 
L 241.383471 443.083794 
L 244.457851 464.435142 
L 247.532231 447.466124 
L 250.606612 465.194646 
L 253.680992 442.954818 
L 256.755372 456.906842 
L 259.829752 456.375223 
L 262.904132 439.731695 
L 265.978512 475.839111 
L 269.052893 428.858701 
L 272.127273 449.370924 
L 275.201653 455.469876 
L 278.276033 462.700869 
L 281.350413 464.296893 
L 284.424793 460.904475 
L 287.499174 445.01319 
L 290.573554 459.283565 
L 293.647934 439.183337 
L 296.722314 456.964996 
L 299.796694 445.076858 
L 302.871074 457.377973 
L 305.945455 456.12652 
L 309.019835 448.783573 
L 312.094215 436.115148 
L 315.168595 444.32102 
L 318.242975 452.622293 
L 321.317355 449.843813 
L 324.391736 454.094434 
L 327.466116 444.305602 
L 330.540496 460.417414 
L 333.614876 454.703025 
L 336.689256 449.933068 
L 339.763636 451.492416 
L 342.838017 460.211507 
L 345.912397 454.897945 
L 348.986777 451.939475 
L 352.061157 454.466571 
L 355.135537 449.113631 
L 358.209917 454.999015 
L 361.284298 465.462829 
L 364.358678 439.101727 
L 367.433058 442.41023 
L 370.507438 435.04048 
L 373.581818 472.372502 
" style="fill:none;stroke:#ff7f0e;stroke-linecap:square;stroke-width:1.5;"/>
   </g>
   <g id="line2d_43">
    <path clip-path="url(#pc129911ec1)" d="M 69.218182 421.844298 
L 72.292562 455.40448 
L 75.366942 468.838147 
L 78.441322 479.054687 
L 81.515702 486.583419 
L 84.590083 492.233459 
L 87.664463 496.850171 
L 90.738843 500.691248 
L 93.813223 503.708488 
L 96.887603 505.911418 
L 99.961983 507.480447 
L 103.036364 508.649892 
L 106.110744 509.595714 
L 109.185124 510.418675 
L 112.259504 511.168987 
L 115.333884 511.869948 
L 118.408264 512.531937 
L 121.482645 513.159522 
L 124.557025 513.754867 
L 127.631405 514.319312 
L 130.705785 514.854053 
L 133.780165 515.360379 
L 136.854545 515.8397 
L 139.928926 516.293497 
L 143.003306 516.723253 
L 146.077686 517.130396 
L 149.152066 517.516264 
L 152.226446 517.882092 
L 155.300826 518.229007 
L 158.375207 518.558042 
L 161.449587 518.870142 
L 164.523967 519.16618 
L 167.598347 519.44697 
L 170.672727 519.713273 
L 173.747107 519.965815 
L 176.821488 520.205285 
L 179.895868 520.432346 
L 182.970248 520.647637 
L 186.044628 520.851774 
L 189.119008 521.045353 
L 192.193388 521.228947 
L 195.267769 521.403107 
L 198.342149 521.568364 
L 201.416529 521.725223 
L 204.490909 521.874169 
L 207.565289 522.015663 
L 210.639669 522.150143 
L 213.71405 522.278025 
L 216.78843 522.399705 
L 219.86281 522.515557 
L 222.93719 522.625938 
L 226.01157 522.731183 
L 229.08595 522.831612 
L 232.160331 522.927527 
L 235.234711 523.019212 
L 238.309091 523.106939 
L 241.383471 523.190963 
L 244.457851 523.271524 
L 247.532231 523.34885 
L 250.606612 523.423155 
L 253.680992 523.49464 
L 256.755372 523.563494 
L 259.829752 523.629895 
L 262.904132 523.69401 
L 265.978512 523.755993 
L 269.052893 523.815992 
L 272.127273 523.874141 
L 275.201653 523.930567 
L 278.276033 523.98539 
L 281.350413 524.038717 
L 284.424793 524.090653 
L 287.499174 524.14129 
L 290.573554 524.190718 
L 293.647934 524.239018 
L 296.722314 524.286265 
L 299.796694 524.332528 
L 302.871074 524.377873 
L 305.945455 524.422359 
L 309.019835 524.466041 
L 312.094215 524.50897 
L 315.168595 524.551192 
L 318.242975 524.592752 
L 321.317355 524.633688 
L 324.391736 524.674038 
L 327.466116 524.713835 
L 330.540496 524.753112 
L 333.614876 524.791896 
L 336.689256 524.830215 
L 339.763636 524.868094 
L 342.838017 524.905555 
L 345.912397 524.94262 
L 348.986777 524.979307 
L 352.061157 525.015636 
L 355.135537 525.051623 
L 358.209917 525.087284 
L 361.284298 525.122633 
L 364.358678 525.157685 
L 367.433058 525.192452 
L 370.507438 525.226945 
L 373.581818 525.261176 
" style="fill:none;stroke:#2ca02c;stroke-linecap:square;stroke-width:1.5;"/>
   </g>
   <g id="line2d_44">
    <path clip-path="url(#pc129911ec1)" d="M 69.218182 370.021059 
L 72.292562 374.477939 
L 75.366942 378.82704 
L 78.441322 383.060524 
L 81.515702 387.172756 
L 84.590083 391.159026 
L 87.664463 395.014662 
L 90.738843 398.734538 
L 93.813223 402.312968 
L 96.887603 405.74392 
L 99.961983 409.021462 
L 103.036364 412.140328 
L 106.110744 415.096495 
L 109.185124 417.887671 
L 112.259504 420.513629 
L 115.333884 422.976328 
L 118.408264 425.279854 
L 121.482645 427.430183 
L 124.557025 429.434837 
L 127.631405 431.302478 
L 130.705785 433.042501 
L 133.780165 434.664652 
L 136.854545 436.178707 
L 139.928926 437.594219 
L 143.003306 438.92033 
L 146.077686 440.165648 
L 149.152066 441.338172 
L 152.226446 442.445263 
L 155.300826 443.493641 
L 158.375207 444.489409 
L 161.449587 445.43808 
L 164.523967 446.344626 
L 167.598347 447.213521 
L 170.672727 448.048786 
L 173.747107 448.854036 
L 176.821488 449.632525 
L 179.895868 450.387179 
L 182.970248 451.120637 
L 186.044628 451.835282 
L 189.119008 452.533268 
L 192.193388 453.216547 
L 195.267769 453.886891 
L 198.342149 454.545911 
L 201.416529 455.195074 
L 204.490909 455.835718 
L 207.565289 456.469065 
L 210.639669 457.096234 
L 213.71405 457.71825 
L 216.78843 458.33605 
L 219.86281 458.950498 
L 222.93719 459.562384 
L 226.01157 460.172436 
L 229.08595 460.781322 
L 232.160331 461.389658 
L 235.234711 461.99801 
L 238.309091 462.606898 
L 241.383471 463.216801 
L 244.457851 463.82816 
L 247.532231 464.44138 
L 250.606612 465.056831 
L 253.680992 465.674854 
L 256.755372 466.295758 
L 259.829752 466.919824 
L 262.904132 467.547307 
L 265.978512 468.178432 
L 269.052893 468.813399 
L 272.127273 469.452381 
L 275.201653 470.095523 
L 278.276033 470.742942 
L 281.350413 471.394727 
L 284.424793 472.050933 
L 287.499174 472.711588 
L 290.573554 473.376683 
L 293.647934 474.046174 
L 296.722314 474.719981 
L 299.796694 475.397984 
L 302.871074 476.080021 
L 305.945455 476.765889 
L 309.019835 477.455338 
L 312.094215 478.148074 
L 315.168595 478.843755 
L 318.242975 479.54199 
L 321.317355 480.24234 
L 324.391736 480.94432 
L 327.466116 481.647394 
L 330.540496 482.350982 
L 333.614876 483.054458 
L 336.689256 483.757157 
L 339.763636 484.458371 
L 342.838017 485.157361 
L 345.912397 485.853357 
L 348.986777 486.545563 
L 352.061157 487.233164 
L 355.135537 487.915333 
L 358.209917 488.591237 
L 361.284298 489.260041 
L 364.358678 489.92092 
L 367.433058 490.573064 
L 370.507438 491.215683 
L 373.581818 491.848019 
" style="fill:none;stroke:#d62728;stroke-linecap:square;stroke-width:1.5;"/>
   </g>
   <g id="line2d_45">
    <path clip-path="url(#pc129911ec1)" d="M 69.218182 347.378824 
L 72.292562 348.068367 
L 75.366942 348.764984 
L 78.441322 349.468603 
L 81.515702 350.179142 
L 84.590083 350.896514 
L 87.664463 351.620626 
L 90.738843 352.351376 
L 93.813223 353.088656 
L 96.887603 353.832351 
L 99.961983 354.582339 
L 103.036364 355.338492 
L 106.110744 356.100673 
L 109.185124 356.868741 
L 112.259504 357.642547 
L 115.333884 358.421934 
L 118.408264 359.206741 
L 121.482645 359.996799 
L 124.557025 360.791933 
L 127.631405 361.591963 
L 130.705785 362.396703 
L 133.780165 363.20596 
L 136.854545 364.019537 
L 139.928926 364.837231 
L 143.003306 365.658835 
L 146.077686 366.484137 
L 149.152066 367.31292 
L 152.226446 368.144964 
L 155.300826 368.980044 
L 158.375207 369.817934 
L 161.449587 370.658402 
L 164.523967 371.501215 
L 167.598347 372.346138 
L 170.672727 373.192931 
L 173.747107 374.041357 
L 176.821488 374.891173 
L 179.895868 375.742139 
L 182.970248 376.594011 
L 186.044628 377.446548 
L 189.119008 378.299507 
L 192.193388 379.152646 
L 195.267769 380.005725 
L 198.342149 380.858504 
L 201.416529 381.710745 
L 204.490909 382.562211 
L 207.565289 383.41267 
L 210.639669 384.261891 
L 213.71405 385.109645 
L 216.78843 385.955709 
L 219.86281 386.79986 
L 222.93719 387.641882 
L 226.01157 388.481563 
L 229.08595 389.318693 
L 232.160331 390.15307 
L 235.234711 390.984493 
L 238.309091 391.81277 
L 241.383471 392.637713 
L 244.457851 393.459137 
L 247.532231 394.276868 
L 250.606612 395.090732 
L 253.680992 395.900565 
L 256.755372 396.706209 
L 259.829752 397.507509 
L 262.904132 398.30432 
L 265.978512 399.0965 
L 269.052893 399.883917 
L 272.127273 400.666443 
L 275.201653 401.443957 
L 278.276033 402.216344 
L 281.350413 402.983496 
L 284.424793 403.745313 
L 287.499174 404.501698 
L 290.573554 405.252564 
L 293.647934 405.997827 
L 296.722314 406.737411 
L 299.796694 407.471246 
L 302.871074 408.199269 
L 305.945455 408.921421 
L 309.019835 409.637651 
L 312.094215 410.34791 
L 315.168595 411.05216 
L 318.242975 411.750363 
L 321.317355 412.442491 
L 324.391736 413.128519 
L 327.466116 413.808426 
L 330.540496 414.482197 
L 333.614876 415.149823 
L 336.689256 415.811298 
L 339.763636 416.466621 
L 342.838017 417.115795 
L 345.912397 417.758827 
L 348.986777 418.395728 
L 352.061157 419.026513 
L 355.135537 419.651201 
L 358.209917 420.269813 
L 361.284298 420.882376 
L 364.358678 421.488917 
L 367.433058 422.089468 
L 370.507438 422.684062 
L 373.581818 423.272738 
" style="fill:none;stroke:#9467bd;stroke-linecap:square;stroke-width:1.5;"/>
   </g>
   <g id="patch_9">
    <path d="M 54 534.155294 
L 54 338.484706 
" style="fill:none;stroke:#000000;stroke-linecap:square;stroke-linejoin:miter;stroke-width:0.8;"/>
   </g>
   <g id="patch_10">
    <path d="M 388.8 534.155294 
L 388.8 338.484706 
" style="fill:none;stroke:#000000;stroke-linecap:square;stroke-linejoin:miter;stroke-width:0.8;"/>
   </g>
   <g id="patch_11">
    <path d="M 54 534.155294 
L 388.8 534.155294 
" style="fill:none;stroke:#000000;stroke-linecap:square;stroke-linejoin:miter;stroke-width:0.8;"/>
   </g>
   <g id="patch_12">
    <path d="M 54 338.484706 
L 388.8 338.484706 
" style="fill:none;stroke:#000000;stroke-linecap:square;stroke-linejoin:miter;stroke-width:0.8;"/>
   </g>
  </g>
  <g id="axes_3">
   <g id="patch_13">
    <path d="M 54 768.96 
L 388.8 768.96 
L 388.8 573.289412 
L 54 573.289412 
z
" style="fill:#ffffff;"/>
   </g>
   <g id="matplotlib.axis_5">
    <g id="xtick_13">
     <g id="line2d_46">
      <g>
       <use style="stroke:#000000;stroke-width:0.8;" x="69.218182" xlink:href="#md4455fc55f" y="768.96"/>
      </g>
     </g>
     <g id="text_33">
      <!-- 0 -->
      <g transform="translate(66.036932 783.558437)scale(0.1 -0.1)">
       <use xlink:href="#DejaVuSans-30"/>
      </g>
     </g>
    </g>
    <g id="xtick_14">
     <g id="line2d_47">
      <g>
       <use style="stroke:#000000;stroke-width:0.8;" x="130.705785" xlink:href="#md4455fc55f" y="768.96"/>
      </g>
     </g>
     <g id="text_34">
      <!-- 20 -->
      <g transform="translate(124.343285 783.558437)scale(0.1 -0.1)">
       <use xlink:href="#DejaVuSans-32"/>
       <use x="63.623047" xlink:href="#DejaVuSans-30"/>
      </g>
     </g>
    </g>
    <g id="xtick_15">
     <g id="line2d_48">
      <g>
       <use style="stroke:#000000;stroke-width:0.8;" x="192.193388" xlink:href="#md4455fc55f" y="768.96"/>
      </g>
     </g>
     <g id="text_35">
      <!-- 40 -->
      <g transform="translate(185.830888 783.558437)scale(0.1 -0.1)">
       <use xlink:href="#DejaVuSans-34"/>
       <use x="63.623047" xlink:href="#DejaVuSans-30"/>
      </g>
     </g>
    </g>
    <g id="xtick_16">
     <g id="line2d_49">
      <g>
       <use style="stroke:#000000;stroke-width:0.8;" x="253.680992" xlink:href="#md4455fc55f" y="768.96"/>
      </g>
     </g>
     <g id="text_36">
      <!-- 60 -->
      <g transform="translate(247.318492 783.558437)scale(0.1 -0.1)">
       <use xlink:href="#DejaVuSans-36"/>
       <use x="63.623047" xlink:href="#DejaVuSans-30"/>
      </g>
     </g>
    </g>
    <g id="xtick_17">
     <g id="line2d_50">
      <g>
       <use style="stroke:#000000;stroke-width:0.8;" x="315.168595" xlink:href="#md4455fc55f" y="768.96"/>
      </g>
     </g>
     <g id="text_37">
      <!-- 80 -->
      <g transform="translate(308.806095 783.558437)scale(0.1 -0.1)">
       <use xlink:href="#DejaVuSans-38"/>
       <use x="63.623047" xlink:href="#DejaVuSans-30"/>
      </g>
     </g>
    </g>
    <g id="xtick_18">
     <g id="line2d_51">
      <g>
       <use style="stroke:#000000;stroke-width:0.8;" x="376.656198" xlink:href="#md4455fc55f" y="768.96"/>
      </g>
     </g>
     <g id="text_38">
      <!-- 100 -->
      <g transform="translate(367.112448 783.558437)scale(0.1 -0.1)">
       <use xlink:href="#DejaVuSans-31"/>
       <use x="63.623047" xlink:href="#DejaVuSans-30"/>
       <use x="127.246094" xlink:href="#DejaVuSans-30"/>
      </g>
     </g>
    </g>
    <g id="text_39">
     <!-- Iterations -->
     <g transform="translate(197.586719 797.236562)scale(0.1 -0.1)">
      <defs>
       <path d="M 628 4666 
L 1259 4666 
L 1259 0 
L 628 0 
L 628 4666 
z
" id="DejaVuSans-49" transform="scale(0.015625)"/>
       <path d="M 1172 4494 
L 1172 3500 
L 2356 3500 
L 2356 3053 
L 1172 3053 
L 1172 1153 
Q 1172 725 1289 603 
Q 1406 481 1766 481 
L 2356 481 
L 2356 0 
L 1766 0 
Q 1100 0 847 248 
Q 594 497 594 1153 
L 594 3053 
L 172 3053 
L 172 3500 
L 594 3500 
L 594 4494 
L 1172 4494 
z
" id="DejaVuSans-74" transform="scale(0.015625)"/>
       <path d="M 2194 1759 
Q 1497 1759 1228 1600 
Q 959 1441 959 1056 
Q 959 750 1161 570 
Q 1363 391 1709 391 
Q 2188 391 2477 730 
Q 2766 1069 2766 1631 
L 2766 1759 
L 2194 1759 
z
M 3341 1997 
L 3341 0 
L 2766 0 
L 2766 531 
Q 2569 213 2275 61 
Q 1981 -91 1556 -91 
Q 1019 -91 701 211 
Q 384 513 384 1019 
Q 384 1609 779 1909 
Q 1175 2209 1959 2209 
L 2766 2209 
L 2766 2266 
Q 2766 2663 2505 2880 
Q 2244 3097 1772 3097 
Q 1472 3097 1187 3025 
Q 903 2953 641 2809 
L 641 3341 
Q 956 3463 1253 3523 
Q 1550 3584 1831 3584 
Q 2591 3584 2966 3190 
Q 3341 2797 3341 1997 
z
" id="DejaVuSans-61" transform="scale(0.015625)"/>
       <path d="M 603 3500 
L 1178 3500 
L 1178 0 
L 603 0 
L 603 3500 
z
M 603 4863 
L 1178 4863 
L 1178 4134 
L 603 4134 
L 603 4863 
z
" id="DejaVuSans-69" transform="scale(0.015625)"/>
       <path d="M 1959 3097 
Q 1497 3097 1228 2736 
Q 959 2375 959 1747 
Q 959 1119 1226 758 
Q 1494 397 1959 397 
Q 2419 397 2687 759 
Q 2956 1122 2956 1747 
Q 2956 2369 2687 2733 
Q 2419 3097 1959 3097 
z
M 1959 3584 
Q 2709 3584 3137 3096 
Q 3566 2609 3566 1747 
Q 3566 888 3137 398 
Q 2709 -91 1959 -91 
Q 1206 -91 779 398 
Q 353 888 353 1747 
Q 353 2609 779 3096 
Q 1206 3584 1959 3584 
z
" id="DejaVuSans-6f" transform="scale(0.015625)"/>
       <path d="M 2834 3397 
L 2834 2853 
Q 2591 2978 2328 3040 
Q 2066 3103 1784 3103 
Q 1356 3103 1142 2972 
Q 928 2841 928 2578 
Q 928 2378 1081 2264 
Q 1234 2150 1697 2047 
L 1894 2003 
Q 2506 1872 2764 1633 
Q 3022 1394 3022 966 
Q 3022 478 2636 193 
Q 2250 -91 1575 -91 
Q 1294 -91 989 -36 
Q 684 19 347 128 
L 347 722 
Q 666 556 975 473 
Q 1284 391 1588 391 
Q 1994 391 2212 530 
Q 2431 669 2431 922 
Q 2431 1156 2273 1281 
Q 2116 1406 1581 1522 
L 1381 1569 
Q 847 1681 609 1914 
Q 372 2147 372 2553 
Q 372 3047 722 3315 
Q 1072 3584 1716 3584 
Q 2034 3584 2315 3537 
Q 2597 3491 2834 3397 
z
" id="DejaVuSans-73" transform="scale(0.015625)"/>
      </defs>
      <use xlink:href="#DejaVuSans-49"/>
      <use x="29.492188" xlink:href="#DejaVuSans-74"/>
      <use x="68.701172" xlink:href="#DejaVuSans-65"/>
      <use x="130.224609" xlink:href="#DejaVuSans-72"/>
      <use x="171.337891" xlink:href="#DejaVuSans-61"/>
      <use x="232.617188" xlink:href="#DejaVuSans-74"/>
      <use x="271.826172" xlink:href="#DejaVuSans-69"/>
      <use x="299.609375" xlink:href="#DejaVuSans-6f"/>
      <use x="360.791016" xlink:href="#DejaVuSans-6e"/>
      <use x="424.169922" xlink:href="#DejaVuSans-73"/>
     </g>
    </g>
   </g>
   <g id="matplotlib.axis_6">
    <g id="ytick_14">
     <g id="line2d_52">
      <g>
       <use style="stroke:#000000;stroke-width:0.8;" x="54" xlink:href="#m27ede54a3a" y="763.691616"/>
      </g>
     </g>
     <g id="text_40">
      <!-- 0 -->
      <g transform="translate(40.6375 767.490835)scale(0.1 -0.1)">
       <use xlink:href="#DejaVuSans-30"/>
      </g>
     </g>
    </g>
    <g id="ytick_15">
     <g id="line2d_53">
      <g>
       <use style="stroke:#000000;stroke-width:0.8;" x="54" xlink:href="#m27ede54a3a" y="739.837141"/>
      </g>
     </g>
     <g id="text_41">
      <!-- 5 -->
      <g transform="translate(40.6375 743.636359)scale(0.1 -0.1)">
       <use xlink:href="#DejaVuSans-35"/>
      </g>
     </g>
    </g>
    <g id="ytick_16">
     <g id="line2d_54">
      <g>
       <use style="stroke:#000000;stroke-width:0.8;" x="54" xlink:href="#m27ede54a3a" y="715.982665"/>
      </g>
     </g>
     <g id="text_42">
      <!-- 10 -->
      <g transform="translate(34.275 719.781884)scale(0.1 -0.1)">
       <use xlink:href="#DejaVuSans-31"/>
       <use x="63.623047" xlink:href="#DejaVuSans-30"/>
      </g>
     </g>
    </g>
    <g id="ytick_17">
     <g id="line2d_55">
      <g>
       <use style="stroke:#000000;stroke-width:0.8;" x="54" xlink:href="#m27ede54a3a" y="692.12819"/>
      </g>
     </g>
     <g id="text_43">
      <!-- 15 -->
      <g transform="translate(34.275 695.927409)scale(0.1 -0.1)">
       <use xlink:href="#DejaVuSans-31"/>
       <use x="63.623047" xlink:href="#DejaVuSans-35"/>
      </g>
     </g>
    </g>
    <g id="ytick_18">
     <g id="line2d_56">
      <g>
       <use style="stroke:#000000;stroke-width:0.8;" x="54" xlink:href="#m27ede54a3a" y="668.273715"/>
      </g>
     </g>
     <g id="text_44">
      <!-- 20 -->
      <g transform="translate(34.275 672.072934)scale(0.1 -0.1)">
       <use xlink:href="#DejaVuSans-32"/>
       <use x="63.623047" xlink:href="#DejaVuSans-30"/>
      </g>
     </g>
    </g>
    <g id="ytick_19">
     <g id="line2d_57">
      <g>
       <use style="stroke:#000000;stroke-width:0.8;" x="54" xlink:href="#m27ede54a3a" y="644.41924"/>
      </g>
     </g>
     <g id="text_45">
      <!-- 25 -->
      <g transform="translate(34.275 648.218458)scale(0.1 -0.1)">
       <use xlink:href="#DejaVuSans-32"/>
       <use x="63.623047" xlink:href="#DejaVuSans-35"/>
      </g>
     </g>
    </g>
    <g id="ytick_20">
     <g id="line2d_58">
      <g>
       <use style="stroke:#000000;stroke-width:0.8;" x="54" xlink:href="#m27ede54a3a" y="620.564764"/>
      </g>
     </g>
     <g id="text_46">
      <!-- 30 -->
      <g transform="translate(34.275 624.363983)scale(0.1 -0.1)">
       <defs>
        <path d="M 2597 2516 
Q 3050 2419 3304 2112 
Q 3559 1806 3559 1356 
Q 3559 666 3084 287 
Q 2609 -91 1734 -91 
Q 1441 -91 1130 -33 
Q 819 25 488 141 
L 488 750 
Q 750 597 1062 519 
Q 1375 441 1716 441 
Q 2309 441 2620 675 
Q 2931 909 2931 1356 
Q 2931 1769 2642 2001 
Q 2353 2234 1838 2234 
L 1294 2234 
L 1294 2753 
L 1863 2753 
Q 2328 2753 2575 2939 
Q 2822 3125 2822 3475 
Q 2822 3834 2567 4026 
Q 2313 4219 1838 4219 
Q 1578 4219 1281 4162 
Q 984 4106 628 3988 
L 628 4550 
Q 988 4650 1302 4700 
Q 1616 4750 1894 4750 
Q 2613 4750 3031 4423 
Q 3450 4097 3450 3541 
Q 3450 3153 3228 2886 
Q 3006 2619 2597 2516 
z
" id="DejaVuSans-33" transform="scale(0.015625)"/>
       </defs>
       <use xlink:href="#DejaVuSans-33"/>
       <use x="63.623047" xlink:href="#DejaVuSans-30"/>
      </g>
     </g>
    </g>
    <g id="ytick_21">
     <g id="line2d_59">
      <g>
       <use style="stroke:#000000;stroke-width:0.8;" x="54" xlink:href="#m27ede54a3a" y="596.710289"/>
      </g>
     </g>
     <g id="text_47">
      <!-- 35 -->
      <g transform="translate(34.275 600.509508)scale(0.1 -0.1)">
       <use xlink:href="#DejaVuSans-33"/>
       <use x="63.623047" xlink:href="#DejaVuSans-35"/>
      </g>
     </g>
    </g>
    <g id="text_48">
     <!-- $\Vert \nabla_\theta E \Vert$ -->
     <g transform="translate(27.875 684.974706)rotate(-90)scale(0.1 -0.1)">
      <defs>
       <path d="M 1344 4891 
L 1344 -1509 
L 813 -1509 
L 813 4891 
L 1344 4891 
z
M 2376 4891 
L 2376 -1509 
L 1845 -1509 
L 1845 4891 
L 2376 4891 
z
" id="DejaVuSans-2016" transform="scale(0.015625)"/>
       <path d="M 2138 659 
L 3444 4047 
L 831 4047 
L 2138 659 
z
M 1791 0 
L -19 4603 
L 4300 4603 
L 2491 0 
L 1791 0 
z
" id="DejaVuSans-2207" transform="scale(0.015625)"/>
       <path d="M 2913 2219 
L 925 2219 
Q 791 1284 928 888 
Q 1100 400 1566 400 
Q 2034 400 2391 891 
Q 2703 1322 2913 2219 
z
M 3009 2750 
Q 3094 3638 2984 3950 
Q 2813 4444 2353 4444 
Q 1875 4444 1525 3956 
Q 1250 3563 1034 2750 
L 3009 2750 
z
M 2444 4913 
Q 3194 4913 3494 4250 
Q 3794 3591 3566 2422 
Q 3341 1256 2781 594 
Q 2225 -72 1475 -72 
Q 722 -72 425 594 
Q 128 1256 353 2422 
Q 581 3591 1134 4250 
Q 1691 4913 2444 4913 
z
" id="DejaVuSans-Oblique-3b8" transform="scale(0.015625)"/>
      </defs>
      <use transform="translate(0 0.578125)" xlink:href="#DejaVuSans-2016"/>
      <use transform="translate(50 0.578125)" xlink:href="#DejaVuSans-2207"/>
      <use transform="translate(117.851562 -15.828125)scale(0.7)" xlink:href="#DejaVuSans-Oblique-3b8"/>
      <use transform="translate(163.413086 0.578125)" xlink:href="#DejaVuSans-Oblique-45"/>
      <use transform="translate(226.59668 0.578125)" xlink:href="#DejaVuSans-2016"/>
     </g>
    </g>
   </g>
   <g id="line2d_60">
    <path clip-path="url(#pd07e3fb891)" d="M 69.218182 738.569841 
L 72.292562 739.785971 
L 75.366942 739.170854 
L 78.441322 741.545567 
L 81.515702 739.831339 
L 84.590083 740.025401 
L 87.664463 739.918473 
L 90.738843 740.950315 
L 93.813223 741.621412 
L 96.887603 740.944312 
L 99.961983 739.267167 
L 103.036364 741.305779 
L 106.110744 740.839605 
L 109.185124 740.775425 
L 112.259504 739.274582 
L 115.333884 741.878771 
L 118.408264 739.25312 
L 121.482645 740.40326 
L 124.557025 738.789126 
L 127.631405 737.915946 
L 130.705785 739.900887 
L 133.780165 740.737078 
L 136.854545 740.602626 
L 139.928926 739.68501 
L 143.003306 740.960371 
L 146.077686 740.935327 
L 149.152066 739.808668 
L 152.226446 737.891295 
L 155.300826 739.612895 
L 158.375207 737.584534 
L 161.449587 741.035134 
L 164.523967 740.684915 
L 167.598347 740.906047 
L 170.672727 739.267372 
L 173.747107 739.383655 
L 176.821488 738.84697 
L 179.895868 738.518808 
L 182.970248 739.751768 
L 186.044628 739.410622 
L 189.119008 741.488042 
L 192.193388 739.42544 
L 195.267769 740.242813 
L 198.342149 739.58808 
L 201.416529 740.570439 
L 204.490909 741.278854 
L 207.565289 740.116239 
L 210.639669 741.200423 
L 213.71405 740.860201 
L 216.78843 740.162427 
L 219.86281 741.041291 
L 222.93719 738.298005 
L 226.01157 738.099254 
L 229.08595 741.138753 
L 232.160331 739.224789 
L 235.234711 740.215979 
L 238.309091 737.396141 
L 241.383471 738.763052 
L 244.457851 741.525306 
L 247.532231 739.338021 
L 250.606612 741.423051 
L 253.680992 738.91832 
L 256.755372 740.94133 
L 259.829752 741.799871 
L 262.904132 739.80641 
L 265.978512 739.90326 
L 269.052893 740.49802 
L 272.127273 738.296261 
L 275.201653 738.5493 
L 278.276033 738.852473 
L 281.350413 740.644042 
L 284.424793 740.24932 
L 287.499174 741.317918 
L 290.573554 741.139714 
L 293.647934 739.021541 
L 296.722314 738.92671 
L 299.796694 740.011095 
L 302.871074 740.757016 
L 305.945455 739.022597 
L 309.019835 739.973161 
L 312.094215 740.352939 
L 315.168595 739.740202 
L 318.242975 739.349651 
L 321.317355 739.870703 
L 324.391736 739.138949 
L 327.466116 738.001125 
L 330.540496 740.237499 
L 333.614876 738.734229 
L 336.689256 739.504476 
L 339.763636 739.235157 
L 342.838017 741.02142 
L 345.912397 739.992089 
L 348.986777 739.909021 
L 352.061157 739.200528 
L 355.135537 738.600256 
L 358.209917 738.237125 
L 361.284298 740.820404 
L 364.358678 741.043145 
L 367.433058 738.709673 
L 370.507438 741.080454 
L 373.581818 737.07829 
" style="fill:none;stroke:#1f77b4;stroke-linecap:square;stroke-width:1.5;"/>
   </g>
   <g id="line2d_61">
    <path clip-path="url(#pd07e3fb891)" d="M 69.218182 682.354874 
L 72.292562 706.041775 
L 75.366942 719.963844 
L 78.441322 706.049843 
L 81.515702 703.752896 
L 84.590083 692.096995 
L 87.664463 696.205648 
L 90.738843 708.303476 
L 93.813223 699.761686 
L 96.887603 713.967883 
L 99.961983 691.354744 
L 103.036364 716.290132 
L 106.110744 693.511793 
L 109.185124 692.098845 
L 112.259504 712.45469 
L 115.333884 687.214587 
L 118.408264 707.961185 
L 121.482645 692.022359 
L 124.557025 692.336983 
L 127.631405 693.17296 
L 130.705785 689.200485 
L 133.780165 711.436998 
L 136.854545 693.606103 
L 139.928926 701.624293 
L 143.003306 695.385306 
L 146.077686 689.511183 
L 149.152066 694.016606 
L 152.226446 692.792565 
L 155.300826 699.059513 
L 158.375207 690.812122 
L 161.449587 709.044373 
L 164.523967 693.037086 
L 167.598347 695.621386 
L 170.672727 701.001033 
L 173.747107 695.607868 
L 176.821488 694.278492 
L 179.895868 698.862749 
L 182.970248 701.180597 
L 186.044628 689.824643 
L 189.119008 685.692399 
L 192.193388 690.281093 
L 195.267769 706.73889 
L 198.342149 705.810444 
L 201.416529 703.469651 
L 204.490909 688.928067 
L 207.565289 706.213002 
L 210.639669 692.64724 
L 213.71405 697.724502 
L 216.78843 688.037925 
L 219.86281 702.380351 
L 222.93719 701.108254 
L 226.01157 690.249016 
L 229.08595 703.710229 
L 232.160331 681.007382 
L 235.234711 711.30907 
L 238.309091 696.520757 
L 241.383471 713.399532 
L 244.457851 689.598014 
L 247.532231 711.947445 
L 250.606612 684.401144 
L 253.680992 708.912436 
L 256.755372 694.305608 
L 259.829752 696.424652 
L 262.904132 710.875925 
L 265.978512 684.263357 
L 269.052893 725.794354 
L 272.127273 712.754924 
L 275.201653 697.778799 
L 278.276033 707.513003 
L 281.350413 702.777566 
L 284.424793 692.217955 
L 287.499174 705.686161 
L 290.573554 680.80048 
L 293.647934 718.506182 
L 296.722314 694.414242 
L 299.796694 701.176423 
L 302.871074 700.943904 
L 305.945455 696.149444 
L 309.019835 700.289505 
L 312.094215 694.986574 
L 315.168595 700.828257 
L 318.242975 701.583088 
L 321.317355 702.368172 
L 324.391736 694.200539 
L 327.466116 702.391748 
L 330.540496 700.418677 
L 333.614876 692.393633 
L 336.689256 688.976982 
L 339.763636 688.556132 
L 342.838017 701.346213 
L 345.912397 694.799594 
L 348.986777 695.146574 
L 352.061157 695.834724 
L 355.135537 695.385993 
L 358.209917 700.756726 
L 361.284298 691.277099 
L 364.358678 682.071007 
L 367.433058 694.301967 
L 370.507438 706.424608 
L 373.581818 682.61556 
" style="fill:none;stroke:#ff7f0e;stroke-linecap:square;stroke-width:1.5;"/>
   </g>
   <g id="line2d_62">
    <path clip-path="url(#pd07e3fb891)" d="M 69.218182 631.15921 
L 72.292562 687.221572 
L 75.366942 698.516636 
L 78.441322 707.437934 
L 81.515702 715.479994 
L 84.590083 720.455088 
L 87.664463 724.125108 
L 90.738843 728.305257 
L 93.813223 733.267947 
L 96.887603 738.070355 
L 99.961983 741.768422 
L 103.036364 744.172313 
L 106.110744 745.616537 
L 109.185124 746.503923 
L 112.259504 747.111533 
L 115.333884 747.591719 
L 118.408264 748.019044 
L 121.482645 748.426573 
L 124.557025 748.826662 
L 127.631405 749.221947 
L 130.705785 749.611098 
L 133.780165 749.991765 
L 136.854545 750.36195 
L 139.928926 750.72049 
L 143.003306 751.067058 
L 146.077686 751.401955 
L 149.152066 751.725864 
L 152.226446 752.039633 
L 155.300826 752.344122 
L 158.375207 752.640117 
L 161.449587 752.928278 
L 164.523967 753.209124 
L 167.598347 753.483033 
L 170.672727 753.750249 
L 173.747107 754.010909 
L 176.821488 754.265055 
L 179.895868 754.51267 
L 182.970248 754.7537 
L 186.044628 754.988075 
L 189.119008 755.215732 
L 192.193388 755.436624 
L 195.267769 755.650726 
L 198.342149 755.858042 
L 201.416529 756.058599 
L 204.490909 756.252445 
L 207.565289 756.439645 
L 210.639669 756.620275 
L 213.71405 756.794419 
L 216.78843 756.962164 
L 219.86281 757.123601 
L 222.93719 757.278821 
L 226.01157 757.427918 
L 229.08595 757.570988 
L 232.160331 757.708126 
L 235.234711 757.839437 
L 238.309091 757.965026 
L 241.383471 758.085006 
L 244.457851 758.199499 
L 247.532231 758.308631 
L 250.606612 758.412537 
L 253.680992 758.511362 
L 256.755372 758.605254 
L 259.829752 758.694371 
L 262.904132 758.778878 
L 265.978512 758.858941 
L 269.052893 758.934735 
L 272.127273 759.006435 
L 275.201653 759.07422 
L 278.276033 759.138269 
L 281.350413 759.19876 
L 284.424793 759.255873 
L 287.499174 759.309782 
L 290.573554 759.36066 
L 293.647934 759.408676 
L 296.722314 759.453995 
L 299.796694 759.496776 
L 302.871074 759.537172 
L 305.945455 759.575331 
L 309.019835 759.611393 
L 312.094215 759.645494 
L 315.168595 759.67776 
L 318.242975 759.708314 
L 321.317355 759.737269 
L 324.391736 759.764733 
L 327.466116 759.790806 
L 330.540496 759.815583 
L 333.614876 759.839152 
L 336.689256 759.861596 
L 339.763636 759.88299 
L 342.838017 759.903406 
L 345.912397 759.922908 
L 348.986777 759.941558 
L 352.061157 759.959412 
L 355.135537 759.976519 
L 358.209917 759.992929 
L 361.284298 760.008683 
L 364.358678 760.023821 
L 367.433058 760.038379 
L 370.507438 760.052389 
L 373.581818 760.065882 
" style="fill:none;stroke:#2ca02c;stroke-linecap:square;stroke-width:1.5;"/>
   </g>
   <g id="line2d_63">
    <path clip-path="url(#pd07e3fb891)" d="M 69.218182 632.107402 
L 72.292562 633.66464 
L 75.366942 635.369445 
L 78.441322 637.188791 
L 81.515702 639.109104 
L 84.590083 641.13191 
L 87.664463 643.268537 
L 90.738843 645.534626 
L 93.813223 647.945024 
L 96.887603 650.509521 
L 99.961983 653.2298 
L 103.036364 656.097809 
L 106.110744 659.095612 
L 109.185124 662.19657 
L 112.259504 665.367517 
L 115.333884 668.571503 
L 118.408264 671.770641 
L 121.482645 674.928671 
L 124.557025 678.012971 
L 127.631405 680.995889 
L 130.705785 683.855411 
L 133.780165 686.57525 
L 136.854545 689.144514 
L 139.928926 691.557085 
L 143.003306 693.810864 
L 146.077686 695.906972 
L 149.152066 697.848997 
L 152.226446 699.642314 
L 155.300826 701.293509 
L 158.375207 702.809913 
L 161.449587 704.199234 
L 164.523967 705.469279 
L 167.598347 706.627754 
L 170.672727 707.682125 
L 173.747107 708.63953 
L 176.821488 709.506721 
L 179.895868 710.290046 
L 182.970248 710.995442 
L 186.044628 711.628441 
L 189.119008 712.194193 
L 192.193388 712.697488 
L 195.267769 713.142777 
L 198.342149 713.534205 
L 201.416529 713.875629 
L 204.490909 714.170644 
L 207.565289 714.422607 
L 210.639669 714.63465 
L 213.71405 714.809702 
L 216.78843 714.950501 
L 219.86281 715.059608 
L 222.93719 715.139417 
L 226.01157 715.192168 
L 229.08595 715.219955 
L 232.160331 715.224736 
L 235.234711 715.208341 
L 238.309091 715.172484 
L 241.383471 715.118771 
L 244.457851 715.048707 
L 247.532231 714.963712 
L 250.606612 714.865126 
L 253.680992 714.754224 
L 256.755372 714.632224 
L 259.829752 714.500304 
L 262.904132 714.359607 
L 265.978512 714.211256 
L 269.052893 714.056369 
L 272.127273 713.896062 
L 275.201653 713.731467 
L 278.276033 713.563739 
L 281.350413 713.394064 
L 284.424793 713.223668 
L 287.499174 713.053822 
L 290.573554 712.885849 
L 293.647934 712.721126 
L 296.722314 712.561086 
L 299.796694 712.407215 
L 302.871074 712.261058 
L 305.945455 712.124204 
L 309.019835 711.99829 
L 312.094215 711.884988 
L 315.168595 711.785996 
L 318.242975 711.70303 
L 321.317355 711.637805 
L 324.391736 711.592029 
L 327.466116 711.567381 
L 330.540496 711.565497 
L 333.614876 711.587952 
L 336.689256 711.636242 
L 339.763636 711.711768 
L 342.838017 711.815817 
L 345.912397 711.949542 
L 348.986777 712.113949 
L 352.061157 712.309883 
L 355.135537 712.538009 
L 358.209917 712.798804 
L 361.284298 713.09255 
L 364.358678 713.41932 
L 367.433058 713.778981 
L 370.507438 714.171188 
L 373.581818 714.595387 
" style="fill:none;stroke:#d62728;stroke-linecap:square;stroke-width:1.5;"/>
   </g>
   <g id="line2d_64">
    <path clip-path="url(#pd07e3fb891)" d="M 69.218182 600.720844 
L 72.292562 599.882729 
L 75.366942 599.057312 
L 78.441322 598.245196 
L 81.515702 597.446979 
L 84.590083 596.66326 
L 87.664463 595.894631 
L 90.738843 595.141683 
L 93.813223 594.404997 
L 96.887603 593.68515 
L 99.961983 592.98271 
L 103.036364 592.298234 
L 106.110744 591.632271 
L 109.185124 590.985356 
L 112.259504 590.358014 
L 115.333884 589.750753 
L 118.408264 589.16407 
L 121.482645 588.598441 
L 124.557025 588.054328 
L 127.631405 587.532175 
L 130.705785 587.032405 
L 133.780165 586.555421 
L 136.854545 586.101607 
L 139.928926 585.671322 
L 143.003306 585.264903 
L 146.077686 584.882663 
L 149.152066 584.524892 
L 152.226446 584.191853 
L 155.300826 583.883783 
L 158.375207 583.600893 
L 161.449587 583.343367 
L 164.523967 583.111362 
L 167.598347 582.905007 
L 170.672727 582.7244 
L 173.747107 582.569616 
L 176.821488 582.440696 
L 179.895868 582.337655 
L 182.970248 582.260481 
L 186.044628 582.209129 
L 189.119008 582.183529 
L 192.193388 582.183583 
L 195.267769 582.209162 
L 198.342149 582.260112 
L 201.416529 582.33625 
L 204.490909 582.43737 
L 207.565289 582.563235 
L 210.639669 582.713586 
L 213.71405 582.888137 
L 216.78843 583.086581 
L 219.86281 583.308585 
L 222.93719 583.553794 
L 226.01157 583.821833 
L 229.08595 584.112305 
L 232.160331 584.424794 
L 235.234711 584.758866 
L 238.309091 585.114069 
L 241.383471 585.489934 
L 244.457851 585.885977 
L 247.532231 586.301701 
L 250.606612 586.736594 
L 253.680992 587.190133 
L 256.755372 587.661783 
L 259.829752 588.151001 
L 262.904132 588.657234 
L 265.978512 589.179923 
L 269.052893 589.718499 
L 272.127273 590.272392 
L 275.201653 590.841025 
L 278.276033 591.42382 
L 281.350413 592.020193 
L 284.424793 592.629562 
L 287.499174 593.251344 
L 290.573554 593.884958 
L 293.647934 594.529821 
L 296.722314 595.185356 
L 299.796694 595.850987 
L 302.871074 596.526145 
L 305.945455 597.210263 
L 309.019835 597.902781 
L 312.094215 598.603144 
L 315.168595 599.310808 
L 318.242975 600.025231 
L 321.317355 600.745883 
L 324.391736 601.472242 
L 327.466116 602.203795 
L 330.540496 602.940038 
L 333.614876 603.680478 
L 336.689256 604.424631 
L 339.763636 605.172026 
L 342.838017 605.922203 
L 345.912397 606.674711 
L 348.986777 607.429112 
L 352.061157 608.18498 
L 355.135537 608.941902 
L 358.209917 609.699475 
L 361.284298 610.45731 
L 364.358678 611.21503 
L 367.433058 611.972268 
L 370.507438 612.728674 
L 373.581818 613.483906 
" style="fill:none;stroke:#9467bd;stroke-linecap:square;stroke-width:1.5;"/>
   </g>
   <g id="patch_14">
    <path d="M 54 768.96 
L 54 573.289412 
" style="fill:none;stroke:#000000;stroke-linecap:square;stroke-linejoin:miter;stroke-width:0.8;"/>
   </g>
   <g id="patch_15">
    <path d="M 388.8 768.96 
L 388.8 573.289412 
" style="fill:none;stroke:#000000;stroke-linecap:square;stroke-linejoin:miter;stroke-width:0.8;"/>
   </g>
   <g id="patch_16">
    <path d="M 54 768.96 
L 388.8 768.96 
" style="fill:none;stroke:#000000;stroke-linecap:square;stroke-linejoin:miter;stroke-width:0.8;"/>
   </g>
   <g id="patch_17">
    <path d="M 54 573.289412 
L 388.8 573.289412 
" style="fill:none;stroke:#000000;stroke-linecap:square;stroke-linejoin:miter;stroke-width:0.8;"/>
   </g>
  </g>
 </g>
 <defs>
  <clipPath id="pe2f58f598c">
   <rect height="195.670588" width="334.8" x="54" y="103.68"/>
  </clipPath>
  <clipPath id="pc129911ec1">
   <rect height="195.670588" width="334.8" x="54" y="338.484706"/>
  </clipPath>
  <clipPath id="pd07e3fb891">
   <rect height="195.670588" width="334.8" x="54" y="573.289412"/>
  </clipPath>
 </defs>
</svg>
